<?xml version="1.0" encoding="UTF-8" standalone="no"?>
<!DOCTYPE svg PUBLIC "-//W3C//DTD SVG 1.1//EN" "http://www.w3.org/Graphics/SVG/1.1/DTD/svg11.dtd">
<svg width="100%" height="100%" viewBox="0 0 8100 8100" version="1.1" xmlns="http://www.w3.org/2000/svg" xmlns:xlink="http://www.w3.org/1999/xlink" xml:space="preserve" xmlns:serif="http://www.serif.com/" style="fill-rule:evenodd;clip-rule:evenodd;stroke-linejoin:round;stroke-miterlimit:2;">
    <g transform="matrix(1.06438,0,0,1.8625,-120.218,-1208.07)">
        <rect id="Artboard1" x="112.946" y="648.627" width="7610.05" height="4349" style="fill:none;"/>
        <g id="Artboard11" serif:id="Artboard1">
            <g transform="matrix(2.07189,0,0,1.18404,-4081.8,1317.14)">
                <g id="Page-1" serif:id="Page 1">
                    <g>
                        <g id="Pinas-Logo" serif:id="Pinas Logo">
                            <path d="M3861.11,645.928C3864.01,645.789 3866.94,645.722 3869.9,645.722C3936.14,645.722 3989.93,680.733 3989.93,723.856C3989.93,763.556 3944.34,796.383 3885.41,801.339C3888.06,849.883 3938.29,1155.32 3999.37,1381.36C4032.19,1502.84 4093.24,1587.64 4137.57,1597.26C4278.34,1571.61 4652.42,992.411 4673.26,959.994C4627.33,949.022 4594.53,920.294 4594.53,886.617C4594.53,843.494 4648.32,808.483 4714.57,808.483C4780.82,808.483 4834.6,843.494 4834.6,886.617C4834.6,927.528 4786.2,961.133 4724.67,964.478C4724.67,964.95 4724.5,965.461 4724.14,966.017C4724.14,966.017 4667.13,1210.07 4603.42,1402.56C4581.73,1468.1 4569.06,1528.69 4569.41,1570.47C4569.72,1607.12 4579.98,1629.34 4595.63,1634.97C4700.02,1607.34 5156.35,1179.38 5175.92,1181.96C5175.86,1181.85 5175.79,1181.75 5175.71,1181.65C5174.63,1180.36 5170.8,1179.69 5171.07,1179.7C5125.82,1168.5 5093.63,1139.99 5093.63,1106.63C5093.63,1063.51 5147.42,1028.5 5213.66,1028.5C5279.91,1028.5 5333.69,1063.51 5333.69,1106.63C5333.69,1149.76 5279.91,1184.77 5213.66,1184.77C5213.12,1184.77 5212.58,1184.77 5212.03,1184.76C5213.89,1185.12 5214.3,1185.28 5212.52,1185.13L4865.97,1618.21C4790.53,1699.22 4752.86,1775.54 4735.79,1849.32C4325.71,1882.87 4107.97,1898.52 3889.38,1898.07C3879.97,1898.08 3870.54,1898.07 3861.11,1898.03C3851.69,1898.07 3842.27,1898.08 3832.84,1898.07C3614.26,1898.52 3396.52,1882.87 2986.43,1849.32C2969.37,1775.54 2931.69,1699.22 2856.26,1618.21L2509.7,1185.13C2507.92,1185.28 2508.33,1185.12 2510.19,1184.76C2509.64,1184.77 2509.1,1184.77 2508.56,1184.77C2442.31,1184.77 2388.53,1149.76 2388.53,1106.63C2388.53,1063.51 2442.31,1028.5 2508.56,1028.5C2574.81,1028.5 2628.59,1063.51 2628.59,1106.63C2628.59,1139.99 2596.41,1168.5 2551.15,1179.7C2551.42,1179.69 2547.59,1180.36 2546.52,1181.65C2546.43,1181.75 2546.36,1181.85 2546.31,1181.96C2565.87,1179.38 3022.21,1607.34 3126.59,1634.97C3142.24,1629.34 3152.51,1607.12 3152.81,1570.47C3153.16,1528.69 3140.49,1468.1 3118.8,1402.56C3055.09,1210.07 2998.08,966.017 2998.08,966.017C2997.72,965.461 2997.56,964.95 2997.55,964.478C2936.02,961.133 2887.62,927.528 2887.62,886.617C2887.62,843.494 2941.41,808.483 3007.66,808.483C3073.91,808.483 3127.69,843.494 3127.69,886.617C3127.69,920.294 3094.89,949.022 3048.97,959.994C3069.81,992.411 3443.87,1571.59 3584.66,1597.26C3628.98,1587.64 3690.03,1502.84 3722.86,1381.36C3783.93,1155.32 3834.16,849.883 3836.82,801.339C3777.88,796.383 3732.29,763.556 3732.29,723.856C3732.29,680.733 3786.08,645.722 3852.32,645.722C3855.28,645.722 3858.21,645.789 3861.11,645.928ZM3861.11,1756.04C3453.08,1756.19 3048.06,1767.25 3048.06,1789.2C3048.06,1811.14 3453.17,1822.19 3861.11,1822.34C4269.06,1822.19 4674.16,1811.14 4674.16,1789.2C4674.16,1767.25 4269.14,1756.19 3861.11,1756.04Z" style="fill:url(#_Linear1);"/>
                        </g>
                    </g>
                </g>
            </g>
        </g>
    </g>
    <defs>
        <linearGradient id="_Linear1" x1="0" y1="0" x2="1" y2="0" gradientUnits="userSpaceOnUse" gradientTransform="matrix(13.0573,-1245.83,1245.83,13.0573,3848.06,1638.51)"><stop offset="0" style="stop-color:rgb(200,178,127);stop-opacity:1"/><stop offset="0.19" style="stop-color:rgb(241,219,168);stop-opacity:1"/><stop offset="0.37" style="stop-color:rgb(174,141,86);stop-opacity:1"/><stop offset="0.67" style="stop-color:rgb(241,219,168);stop-opacity:1"/><stop offset="1" style="stop-color:rgb(200,178,127);stop-opacity:1"/></linearGradient>
    </defs>
</svg>
