<?xml version="1.0" encoding="UTF-8" standalone="no"?>
<!DOCTYPE svg PUBLIC "-//W3C//DTD SVG 1.1//EN" "http://www.w3.org/Graphics/SVG/1.1/DTD/svg11.dtd">
<svg width="100%" height="100%" viewBox="0 0 7723 5467" version="1.1" xmlns="http://www.w3.org/2000/svg" xmlns:xlink="http://www.w3.org/1999/xlink" xml:space="preserve" xmlns:serif="http://www.serif.com/" style="fill-rule:evenodd;clip-rule:evenodd;stroke-linejoin:round;stroke-miterlimit:2;">
    <rect id="Page-3" serif:id="Page 3" x="0" y="0" width="7722.22" height="5466.67" style="fill:none;"/>
    <g id="Page-31" serif:id="Page 3">
        <g>
            <g id="Pinas-Logo" serif:id="Pinas Logo">
            </g>
            <g id="Text">
                <path d="M2908.78,4395.79C2895.99,4397.12 2887.86,4400.44 2875.43,4409.44C2854.91,4424.28 2840.92,4451.8 2835.75,4487.49C2831.63,4515.93 2833.89,4573.83 2840.04,4597.46C2852.43,4645.05 2877.71,4679.7 2909.2,4692.24C2923.75,4698.04 2944.18,4698.95 2957.98,4694.42C2970.87,4690.19 2987.59,4677.84 2996.72,4665.79L3003.77,4656.51L3005.41,4680.59C3009.52,4740.95 2999.39,4757.06 2957.34,4757.06C2934.7,4757.06 2924.62,4751.25 2920.04,4735.58L2917.54,4727.02L2883.96,4720.64C2865.56,4717.14 2848.97,4714.22 2847.27,4714.18C2844.73,4714.12 2844.41,4716.87 2845.48,4729.06C2847.26,4749.37 2852.5,4764.29 2863.15,4779.39C2873.27,4793.76 2886.08,4803.42 2902.36,4808.98C2922.49,4815.86 2954.13,4818.88 2978.52,4816.24C3021.7,4811.58 3047.52,4793.76 3060.27,4759.81C3069.46,4735.34 3070.04,4715.12 3065.87,4563.37C3063.72,4485.03 3061.69,4420.64 3061.36,4420.32C3060.88,4419.86 3036.71,4416.58 3010.18,4413.37L3001.63,4412.34L3003.12,4450.21L2993.77,4438.31C2968.12,4405.67 2941.6,4392.41 2908.78,4395.79ZM4048.66,4461.8C4022.73,4466.55 3999.76,4481.4 3984.64,4503.16C3968,4527.13 3961.37,4552.06 3961.37,4590.64C3961.37,4630.25 3970.31,4659.71 3989.36,4682.92C4011.4,4709.76 4044.14,4720.96 4078.18,4713.31C4092.66,4710.05 4113.49,4696.84 4124.98,4683.64L4132.31,4675.23L4131.13,4704.97C4129.84,4737.47 4127.23,4747.48 4117.89,4755.75C4110.74,4762.08 4095.93,4765.91 4078.61,4765.91C4056.57,4765.91 4045.2,4760.14 4042.84,4747.77C4041.53,4740.88 4043.94,4741.52 3998.38,4736.21C3987.25,4734.91 3975.78,4733.51 3973.03,4733.12C3968.21,4732.42 3968,4732.82 3968.05,4742.69C3968.15,4763.44 3979.12,4784.96 3996.08,4797.68C4015.73,4812.42 4057.21,4819.88 4099.14,4816.23C4150.08,4811.8 4177.23,4791.44 4188.49,4749.22C4193.34,4731.03 4195.79,4677.69 4198.13,4539.14L4199.48,4459.34L4186.54,4460.22C4179.35,4460.7 4165.89,4461.51 4156.27,4462.03L4138.94,4462.97L4137.66,4497.07L4132.31,4490.25C4129.38,4486.52 4120.76,4479.24 4113.27,4474.19C4093.5,4460.86 4074.11,4457.14 4048.66,4461.8ZM3470.37,4366.78L3405.76,4402.33L3408.76,4452.53L3379.44,4450.93L3380.52,4506.21L3407.47,4507.66L3408.97,4521.37C3409.79,4528.89 3410.6,4554.67 3410.76,4578.46C3411.12,4632.14 3414.18,4671.18 3419.06,4684.37C3428.24,4709.13 3451.97,4720.6 3489.19,4718.26C3496.26,4717.81 3507.33,4715.91 3513.8,4714.04C3524.93,4710.81 3525.57,4710.32 3525.57,4704.97C3525.57,4699.46 3520.87,4658.8 3520.16,4658.26C3519.96,4658.09 3514.44,4659.21 3507.81,4660.75C3494.12,4663.93 3488.92,4663.44 3483.04,4658.4C3477.51,4653.65 3476.57,4643.31 3474.88,4568.88L3473.58,4511.28L3518.08,4513.46L3517.01,4486.98C3516.42,4472.48 3515.65,4460.28 3515.3,4460C3514.95,4459.72 3506.53,4459.09 3496.69,4458.62C3486.84,4458.14 3477.36,4457.19 3475.72,4456.52C3473.37,4455.55 3472.47,4445.71 3471.55,4411.03L3470.37,4366.78ZM3812.46,4464.29C3793.29,4467.58 3773.49,4478.49 3758.8,4493.87L3750.21,4502.87L3750.21,4467.33L3726.89,4467.33C3714.05,4467.33 3700.29,4466.87 3696.29,4466.31L3689.02,4465.29L3690.62,4590.07C3691.51,4658.69 3692.37,4714.93 3692.55,4715.06C3692.73,4715.17 3706.99,4715.53 3724.32,4715.85L3755.77,4716.43L3755.77,4638.81C3755.77,4557.42 3756.82,4546.44 3765.81,4534.5C3784.15,4510.12 3821.03,4506.36 3836.92,4527.24C3844.93,4537.78 3845.24,4541.03 3846.51,4628.8L3847.76,4716.43L3912.16,4717.3L3911.24,4618.64C3910.23,4511.43 3910.26,4511.6 3897.09,4492.71C3890.12,4482.71 3873.27,4471.43 3859.11,4467.29C3846.91,4463.73 3824.22,4462.27 3812.46,4464.29ZM3560.53,4462.54C3559.3,4463.99 3563.72,4713.06 3564.99,4713.97C3565.55,4714.36 3580.02,4714.98 3597.13,4715.34L3628.26,4715.99L3627.41,4643.82C3626.93,4604.07 3625.92,4547.59 3625.16,4518.11L3623.77,4464.57L3602.16,4463.63C3590.18,4463.1 3576.31,4462.39 3571.03,4462.03C3565.89,4461.68 3561.06,4461.91 3560.53,4462.54ZM4490.66,4432.36C4457.33,4435.84 4424.61,4453.69 4405.52,4478.79C4382.25,4509.37 4374.01,4536.53 4373.87,4583.1C4373.7,4638.81 4387.01,4671.17 4419.94,4695.11C4438.54,4708.62 4454.5,4713.37 4481.24,4713.31C4506.06,4713.26 4520.16,4710.24 4538.37,4701.11C4552.93,4693.81 4566.78,4681.18 4577.09,4665.79C4584.09,4655.35 4596.03,4625.86 4597.3,4615.89L4598.06,4609.94L4567.78,4605.81C4551.09,4603.53 4537.37,4601.77 4537.19,4601.89C4537.01,4602.01 4535.2,4607.91 4533.16,4615.02C4525.6,4641.28 4510.34,4654.92 4488.52,4654.92C4463.18,4654.92 4448.11,4641.13 4441.88,4612.26C4437.66,4592.68 4440.14,4541.48 4446.04,4526.52C4451.64,4512.3 4457.18,4504.78 4467.1,4497.94C4480.85,4488.45 4499.43,4486 4513.55,4491.82C4522.43,4495.48 4531.43,4507.8 4533.38,4518.97C4534.12,4523.18 4535.51,4526.66 4536.44,4526.66C4538.32,4526.66 4587.36,4512.64 4594.42,4510.08C4598.46,4508.62 4598.52,4507.95 4595.54,4498.23C4585.21,4464.57 4566.16,4443.09 4539.65,4435.22C4528.24,4431.83 4507.34,4430.61 4490.66,4432.36ZM3120.04,4353.36C3120.81,4371.19 3123.41,4457.39 3125.82,4544.87C3128.23,4632.36 3130.44,4704.12 3130.74,4704.32C3131.03,4704.52 3145.39,4705.17 3162.51,4705.77L3193.74,4706.86L3192.12,4647.66C3189.21,4542.33 3189.98,4525.92 3198.62,4508.38C3208.2,4488.94 3237.12,4481.67 3258.78,4493.26C3261.93,4494.94 3267.16,4499.97 3270.28,4504.32C3278.41,4515.65 3280.17,4533.19 3282.72,4627.93C3283.91,4672.18 3285.17,4708.62 3285.53,4708.81C3285.88,4709.01 3300.18,4709.57 3317.08,4710.05L3347.99,4710.92L3347.91,4686.98C3347.7,4635.18 3343.55,4523.66 3341.34,4510.71C3338.72,4495.33 3332.22,4479.24 3324.42,4468.78C3316.94,4458.77 3298.72,4445.84 3284.88,4440.75C3271.19,4435.71 3246.15,4433.82 3232.68,4436.82C3222.54,4439.08 3203.92,4450.35 3194.26,4460.07L3186.9,4467.47L3185.19,4399.21C3184.24,4361.63 3183.14,4330.69 3182.73,4330.37C3182.32,4330.05 3169.99,4328.18 3155.45,4326.23C3140.9,4324.28 3126.6,4322.28 3123.79,4321.81L3118.65,4320.94L3120.04,4353.36ZM4680.74,4309.33L4651.11,4313.97L4649.96,4323.26C4648.73,4333.12 4639.24,4702.16 4640.21,4702.77C4641.57,4703.64 4700.53,4700.76 4702.03,4699.74C4703.13,4699 4712.17,4397.68 4713.67,4311.51C4713.74,4307.44 4713.04,4304.35 4712.09,4304.47C4711.15,4304.59 4697.01,4306.78 4680.74,4309.33ZM4952.77,4377.59L4925.6,4382.16L4924.1,4466.31C4921.99,4584.99 4919.94,4600.72 4904.03,4620.39C4885.71,4643.02 4855.71,4645.88 4841.74,4626.33C4832.81,4613.84 4831.97,4599.06 4834.26,4494.74C4835.43,4441.5 4836.14,4397.58 4835.84,4397.11C4835.09,4395.92 4776.57,4404.36 4774.48,4405.96C4771.85,4407.96 4767.92,4612.99 4770.21,4628.8C4774.55,4658.83 4783.92,4677.36 4800.66,4689.01C4836.59,4714.03 4887.91,4700.62 4917.26,4658.54L4924.74,4647.81L4924.96,4691.48L4950.21,4690.46C4964.11,4689.9 4977.08,4689.14 4979.09,4688.78C4982.96,4688.07 4983.71,4666.81 4987.02,4463.84C4988.46,4375.05 4988.4,4372.88 4984.22,4372.95C4981.86,4372.99 4967.74,4375.07 4952.77,4377.59ZM2718.47,4399.14C2718.77,4415.27 2720.02,4486.62 2721.26,4557.86C2722.49,4629.09 2723.69,4687.39 2723.93,4687.54C2725,4688.22 2785.11,4691.15 2785.97,4690.56C2787.09,4689.81 2782.27,4428.44 2780.63,4401.02L2779.34,4379.55L2749.71,4374.69C2733.45,4372.02 2719.59,4369.83 2719.01,4369.83C2718.42,4369.83 2718.18,4383.03 2718.47,4399.14ZM5080.71,4230.84L5051.18,4237.95L5049.93,4256.23C5048.12,4282.63 5043.29,4683.66 5044.77,4684.66C5045.47,4685.14 5058.46,4684.94 5073.65,4684.22L5101.24,4682.92L5102.53,4635.62L5112.18,4649.26C5140.3,4689.01 5184.41,4697.56 5217.03,4669.57C5249.47,4641.74 5266.2,4601.96 5273.29,4535.81C5276.46,4506.35 5274.81,4449.44 5270.04,4423.07C5259.28,4363.59 5230.14,4328.48 5191.53,4328.48C5163.26,4328.48 5138.76,4344.29 5117.12,4376.51L5109.81,4387.38L5110.98,4305.49C5111.63,4260.51 5111.72,4223.62 5111.19,4223.66C5110.66,4223.7 5096.97,4226.93 5080.71,4230.84ZM2447.31,4427.5L2447.31,4672.62L2457.89,4673.56C2463.68,4674.07 2478.43,4674.96 2490.41,4675.52L2512.34,4676.53L2512.34,4473.86L2577.92,4482.78C2614.07,4487.69 2644.26,4491.7 2645.2,4491.7C2647.37,4491.7 2647.43,4429.17 2645.26,4420.9L2643.7,4414.95L2579.31,4404.14C2543.79,4398.18 2514.43,4393.01 2513.84,4392.61C2513.25,4392.21 2512.04,4366.57 2511.17,4335.66C2509.8,4287.93 2510.04,4279.57 2512.77,4280.28C2524.53,4283.33 2660.83,4311.94 2663.6,4311.94C2664.42,4311.94 2665.09,4294.97 2665.09,4274.22L2665.09,4236.5L2608.4,4222.93C2577.17,4215.46 2528.55,4203.31 2500.14,4195.88C2471.69,4188.43 2448.3,4182.38 2447.94,4182.38C2447.59,4182.38 2447.31,4292.72 2447.31,4427.5ZM4103.85,4515.78C4114.93,4520.99 4125.69,4534.79 4130.01,4549.29C4134.23,4563.52 4133.7,4605.04 4129.12,4619.08C4117.6,4654.34 4081.88,4671.46 4053.57,4655.28C4045.41,4650.61 4034.64,4635.77 4031,4624.16C4026.74,4610.57 4025.52,4582.08 4028.46,4565.11C4032.52,4541.75 4039.88,4528.69 4054.64,4518.68C4069.09,4508.88 4086.95,4507.83 4103.85,4515.78ZM2963.12,4462.57C2980.58,4471.81 2994.69,4493.87 2999.66,4519.7C3002.95,4536.82 3003.04,4576.19 2999.83,4589.63C2992.99,4618.21 2975.99,4634.89 2953.7,4634.89C2931.17,4634.89 2913.23,4618.21 2904.09,4588.76C2902.32,4583.01 2899.88,4568.01 2898.69,4555.39C2894.03,4506.21 2905.46,4468.89 2927.82,4460.3C2936.16,4457.09 2955.07,4458.31 2963.12,4462.57ZM5181.47,4404.72C5189.72,4409.13 5198.42,4421.33 5203.35,4435.41C5210.09,4454.65 5213.18,4496.49 5210.29,4529.42C5206.91,4568.01 5199.96,4588.2 5184.65,4603.85C5165.02,4623.91 5137.77,4618.36 5122.73,4591.23C5112.89,4573.49 5111.1,4564.09 5109.87,4523.76C5108.53,4479.94 5111.35,4458.67 5121.29,4437.58C5128.13,4423.07 5140.34,4409.34 5150.24,4405.03C5159.66,4400.93 5174.13,4400.79 5181.47,4404.72ZM3559.16,4365.33L3559.16,4427.43L3578.84,4428.37C3589.75,4428.89 3604.29,4429.7 3611.47,4430.18L3624.41,4431.06L3623.12,4369.11L3605.16,4368.09C3595.31,4367.53 3580.84,4366.68 3573.17,4366.21L3559.16,4365.33ZM2717.29,4287.28L2717.94,4326.31L2748.21,4332.03C2764.9,4335.19 2778.77,4337.79 2779.13,4337.82C2780.22,4337.92 2779.68,4304.83 2778.23,4283.22C2776.87,4262.91 2776.45,4261.37 2771.96,4260.22C2769.31,4259.54 2755.81,4256.58 2741.9,4253.62L2716.66,4248.25L2717.29,4287.28Z" style="fill:white;fill-rule:nonzero;"/>
                <path d="M3574.82,4065.17L3574.82,4175.88L3487.63,4175.88L3487.63,4116.52C3487.63,4107.95 3486.98,4102.8 3485.69,4101.07C3484.39,4099.33 3480.83,4098.02 3475.01,4097.13C3469.18,4096.24 3456.19,4095.8 3436.05,4095.8L3427.42,4095.8L3427.42,4082.88C3469.57,4080.01 3501.59,4074.1 3523.46,4065.17L3574.82,4065.17Z" style="fill:white;fill-rule:nonzero;"/>
                <path d="M3608.71,4146.47L3695.9,4146.47C3695.9,4151.62 3696.12,4154.87 3696.54,4156.22C3696.98,4157.56 3698.74,4158.69 3701.83,4159.6C3704.93,4160.51 3709.13,4160.97 3714.46,4160.97C3718.92,4160.97 3722.59,4160.53 3725.47,4159.67C3728.34,4158.81 3729.96,4157.69 3730.32,4156.32C3730.68,4154.95 3730.86,4152.19 3730.86,4148.04L3730.86,4130.4C3726.54,4133.37 3720.07,4135.59 3711.44,4137.07C3702.81,4138.55 3692.08,4139.29 3679.28,4139.29C3663.31,4139.29 3649.21,4137.92 3636.98,4135.19C3624.75,4132.46 3616.98,4129.17 3613.67,4125.34C3610.36,4121.51 3608.71,4116.34 3608.71,4109.82L3608.71,4101C3608.71,4093.25 3609.68,4087.48 3611.62,4083.7C3613.56,4079.92 3618.56,4076.42 3626.62,4073.2C3634.68,4069.99 3645.83,4067.49 3660.07,4065.72C3674.32,4063.94 3690.86,4063.05 3709.71,4063.05C3733.02,4063.05 3752.16,4064.07 3767.12,4066.12C3782.08,4068.18 3793.67,4071.13 3801.87,4074.98C3810.07,4078.83 3814.82,4082.88 3816.11,4087.12C3817.41,4091.36 3818.06,4099.56 3818.06,4111.73L3818.06,4127.12C3818.06,4140.29 3817.48,4149.11 3816.33,4153.55C3815.18,4157.99 3810.18,4162.2 3801.33,4166.17C3792.48,4170.13 3780.5,4173.11 3765.39,4175.09C3750.29,4177.07 3732.81,4178.06 3712.95,4178.06C3688.34,4178.06 3668.24,4176.81 3652.63,4174.3C3637.02,4171.79 3625.79,4168.26 3618.96,4163.71C3612.12,4159.14 3608.71,4153.4 3608.71,4146.47ZM3695.9,4111.94C3695.9,4116.59 3697.81,4119.46 3701.62,4120.56C3705.43,4121.65 3709.35,4122.19 3713.38,4122.19C3719.42,4122.19 3723.85,4121.5 3726.66,4120.11C3729.46,4118.72 3730.86,4115.99 3730.86,4111.94L3730.86,4091.91C3730.86,4087.03 3729.53,4083.83 3726.87,4082.33C3724.21,4080.83 3719.78,4080.07 3713.59,4080.07C3709.86,4080.07 3705.97,4080.66 3701.94,4081.82C3697.91,4082.98 3695.9,4086.12 3695.9,4091.22L3695.9,4111.94Z" style="fill:white;fill-rule:nonzero;"/>
                <path d="M3848.06,4146.47L3935.24,4146.47C3935.24,4151.62 3935.46,4154.87 3935.89,4156.22C3936.33,4157.56 3938.09,4158.69 3941.18,4159.6C3944.27,4160.51 3948.48,4160.97 3953.81,4160.97C3958.27,4160.97 3961.94,4160.53 3964.82,4159.67C3967.69,4158.81 3969.31,4157.69 3969.67,4156.32C3970.03,4154.95 3970.21,4152.19 3970.21,4148.04L3970.21,4130.4C3965.89,4133.37 3959.42,4135.59 3950.78,4137.07C3942.15,4138.55 3931.43,4139.29 3918.63,4139.29C3902.66,4139.29 3888.56,4137.92 3876.33,4135.19C3864.09,4132.46 3856.33,4129.17 3853.02,4125.34C3849.71,4121.51 3848.06,4116.34 3848.06,4109.82L3848.06,4101C3848.06,4093.25 3849.03,4087.48 3850.97,4083.7C3852.91,4079.92 3857.91,4076.42 3865.97,4073.2C3874.02,4069.99 3885.18,4067.49 3899.42,4065.72C3913.67,4063.94 3930.21,4063.05 3949.06,4063.05C3972.37,4063.05 3991.51,4064.07 4006.47,4066.12C4021.43,4068.18 4033.02,4071.13 4041.22,4074.98C4049.42,4078.83 4054.17,4082.88 4055.46,4087.12C4056.76,4091.36 4057.4,4099.56 4057.4,4111.73L4057.4,4127.12C4057.4,4140.29 4056.83,4149.11 4055.68,4153.55C4054.52,4157.99 4049.52,4162.2 4040.68,4166.17C4031.83,4170.13 4019.85,4173.11 4004.74,4175.09C3989.63,4177.07 3972.15,4178.06 3952.29,4178.06C3927.69,4178.06 3907.58,4176.81 3891.97,4174.3C3876.36,4171.79 3865.14,4168.26 3858.31,4163.71C3851.47,4159.14 3848.06,4153.4 3848.06,4146.47ZM3935.24,4111.94C3935.24,4116.59 3937.15,4119.46 3940.97,4120.56C3944.78,4121.65 3948.7,4122.19 3952.73,4122.19C3958.77,4122.19 3963.19,4121.5 3966,4120.11C3968.81,4118.72 3970.21,4115.99 3970.21,4111.94L3970.21,4091.91C3970.21,4087.03 3968.88,4083.83 3966.22,4082.33C3963.56,4080.83 3959.13,4080.07 3952.94,4080.07C3949.2,4080.07 3945.32,4080.66 3941.29,4081.82C3937.26,4082.98 3935.24,4086.12 3935.24,4091.22L3935.24,4111.94Z" style="fill:white;fill-rule:nonzero;"/>
                <path d="M4277.76,4065.17L4277.76,4082.88L4169.63,4082.88L4169.63,4101.68C4183.16,4096.62 4200.57,4094.09 4221.86,4094.09C4245.89,4094.09 4264.05,4096.22 4276.36,4100.48C4288.66,4104.75 4294.81,4112.94 4294.81,4125.07L4294.81,4140.87C4294.81,4148.71 4293.62,4154.46 4291.24,4158.13C4288.87,4161.8 4283.8,4165.19 4276.03,4168.32C4268.26,4171.44 4257.43,4173.83 4243.55,4175.5C4229.67,4177.16 4212.72,4177.99 4192.72,4177.99C4170.28,4177.99 4150.49,4176.76 4133.37,4174.27C4116.25,4171.78 4104.09,4168.08 4096.9,4163.16C4089.71,4158.23 4086.11,4150.62 4086.11,4140.32L4086.11,4134.3L4173.3,4134.3L4173.3,4141.21C4173.3,4148.36 4174.09,4153.44 4175.67,4156.46C4177.26,4159.47 4182.72,4160.97 4192.08,4160.97C4196.39,4160.97 4199.88,4160.53 4202.54,4159.67C4205.21,4158.81 4206.64,4157.87 4206.86,4156.87C4207.07,4155.86 4207.33,4151.51 4207.62,4143.81L4207.62,4121.86C4207.62,4117.71 4206.25,4114.88 4203.51,4113.38C4200.78,4111.87 4196.25,4111.12 4189.92,4111.12C4185.89,4111.12 4182.51,4111.51 4179.77,4112.28C4177.04,4113.06 4175.28,4113.89 4174.48,4114.78C4173.69,4115.67 4173.3,4117.73 4173.3,4120.97L4086.97,4120.97L4090.64,4065.17L4277.76,4065.17Z" style="fill:white;fill-rule:nonzero;"/>
                <path d="M2940.87,3818.5L2940.87,3951.96L2845.48,3951.96L2788.87,3891.29L2788.87,3951.96L2697.88,3951.96L2697.88,3818.5L2788.87,3818.5L2849.88,3878.59L2849.88,3818.5L2940.87,3818.5Z" style="fill:white;fill-rule:nonzero;"/>
                <path d="M2984.56,3818.5L3166.02,3818.5L3166.02,3845.21L3093.38,3845.21L3093.38,3870.52L3161.37,3870.52L3161.37,3895.91L3093.38,3895.91L3093.38,3925.25L3173.26,3925.25L3173.26,3951.96L2984.56,3951.96L2984.56,3818.5Z" style="fill:white;fill-rule:nonzero;"/>
                <path d="M3204.53,3818.5L3285.96,3818.5C3338.52,3818.5 3374.06,3819.27 3392.59,3820.81C3411.12,3822.34 3425.2,3824.87 3434.85,3828.39C3444.51,3831.91 3450.53,3835.82 3452.94,3840.14C3455.36,3844.45 3456.57,3852.93 3456.57,3865.57L3456.57,3912.31C3456.57,3924.29 3454.8,3932.3 3451.27,3936.34C3447.73,3940.38 3441.57,3943.54 3432.78,3945.82C3423.99,3948.1 3413.14,3949.69 3400.22,3950.6C3387.29,3951.51 3367.82,3951.96 3341.79,3951.96L3204.53,3951.96L3204.53,3818.5ZM3313.36,3841.33L3313.36,3929.13C3329.04,3929.13 3338.69,3928.12 3342.31,3926.12C3345.93,3924.11 3347.74,3918.66 3347.74,3909.76L3347.74,3857.91C3347.74,3851.86 3347.14,3847.98 3345.93,3846.28C3344.72,3844.58 3341.97,3843.33 3337.66,3842.53C3333.35,3841.73 3325.25,3841.33 3313.36,3841.33Z" style="fill:white;fill-rule:nonzero;"/>
                <path d="M3497.15,3818.5L3678.61,3818.5L3678.61,3845.21L3605.98,3845.21L3605.98,3870.52L3673.96,3870.52L3673.96,3895.91L3605.98,3895.91L3605.98,3925.25L3685.85,3925.25L3685.85,3951.96L3497.15,3951.96L3497.15,3818.5Z" style="fill:white;fill-rule:nonzero;"/>
                <path d="M3717.13,3818.5L3794.16,3818.5C3845.52,3818.5 3880.28,3819.13 3898.46,3820.39C3916.64,3821.66 3931.47,3824.89 3942.92,3830.08C3954.38,3835.28 3960.12,3843.56 3960.12,3854.93C3960.12,3865.32 3956.07,3872.3 3947.97,3875.87C3939.87,3879.44 3923.93,3881.59 3900.14,3882.31C3921.68,3884.01 3936.16,3886.29 3943.57,3889.14C3950.98,3892.01 3955.59,3894.63 3957.4,3897.02C3959.21,3899.41 3960.12,3905.99 3960.12,3916.76L3960.12,3951.96L3859.04,3951.96L3859.04,3907.61C3859.04,3900.47 3857.28,3896.04 3853.74,3894.34C3850.21,3892.63 3840.95,3891.78 3825.96,3891.78L3825.96,3951.96L3717.13,3951.96L3717.13,3818.5ZM3825.96,3841.33L3825.96,3871.01C3838.19,3871.01 3846.77,3870.47 3851.68,3869.4C3856.59,3868.33 3859.04,3864.86 3859.04,3858.97L3859.04,3851.64C3859.04,3847.41 3856.67,3844.63 3851.93,3843.31C3847.19,3841.99 3838.53,3841.33 3825.96,3841.33Z" style="fill:white;fill-rule:nonzero;"/>
                <path d="M4111.08,3818.5L4111.08,3925.25L4177.25,3925.25L4177.25,3951.96L4002.25,3951.96L4002.25,3818.5L4111.08,3818.5Z" style="fill:white;fill-rule:nonzero;"/>
                <path d="M4404.73,3818.5L4467.02,3951.96L4355.61,3951.96L4350.18,3927.97L4311.15,3927.97L4304.69,3951.96L4191.98,3951.96L4247.31,3818.5L4404.73,3818.5ZM4347.08,3904.31C4341.57,3889.2 4336.06,3870.54 4330.54,3848.34C4319.51,3873.84 4312.62,3892.5 4309.86,3904.31L4347.08,3904.31Z" style="fill:white;fill-rule:nonzero;"/>
                <path d="M4728.62,3818.5L4728.62,3951.96L4633.24,3951.96L4576.63,3891.29L4576.63,3951.96L4485.63,3951.96L4485.63,3818.5L4576.63,3818.5L4637.63,3878.59L4637.63,3818.5L4728.62,3818.5Z" style="fill:white;fill-rule:nonzero;"/>
                <path d="M4772.31,3818.5L4853.73,3818.5C4906.29,3818.5 4941.84,3819.27 4960.36,3820.81C4978.89,3822.34 4992.98,3824.87 5002.63,3828.39C5012.28,3831.91 5018.31,3835.82 5020.72,3840.14C5023.13,3844.45 5024.34,3852.93 5024.34,3865.57L5024.34,3912.31C5024.34,3924.29 5022.57,3932.3 5019.04,3936.34C5015.51,3940.38 5009.34,3943.54 5000.56,3945.82C4991.77,3948.1 4980.91,3949.69 4967.99,3950.6C4955.06,3951.51 4935.59,3951.96 4909.57,3951.96L4772.31,3951.96L4772.31,3818.5ZM4881.13,3841.33L4881.13,3929.13C4896.82,3929.13 4906.47,3928.12 4910.08,3926.12C4913.71,3924.11 4915.51,3918.66 4915.51,3909.76L4915.51,3857.91C4915.51,3851.86 4914.91,3847.98 4913.71,3846.28C4912.5,3844.58 4909.74,3843.33 4905.43,3842.53C4901.12,3841.73 4893.02,3841.33 4881.13,3841.33Z" style="fill:white;fill-rule:nonzero;"/>
                <path d="M3592.89,2033.55L3592.89,2071.38L3536.22,2071.38L3536.22,2222.61L3440.77,2222.61L3440.77,2071.38L3384.31,2071.38L3384.31,2033.55L3592.89,2033.55Z" style="fill:white;fill-rule:nonzero;"/>
                <path d="M3614.66,2033.55L3773.82,2033.55L3773.82,2071.38L3710.11,2071.38L3710.11,2107.23L3769.74,2107.23L3769.74,2143.2L3710.11,2143.2L3710.11,2184.77L3780.17,2184.77L3780.17,2222.61L3614.66,2222.61L3614.66,2033.55Z" style="fill:white;fill-rule:nonzero;"/>
                <path d="M3972.43,2033.55L4027.07,2222.61L3929.36,2222.61L3924.59,2188.63L3890.36,2188.63L3884.69,2222.61L3785.84,2222.61L3834.36,2033.55L3972.43,2033.55ZM3921.87,2155.11C3917.04,2133.71 3912.2,2107.27 3907.36,2075.82C3897.69,2111.94 3891.64,2138.37 3889.22,2155.11L3921.87,2155.11Z" style="fill:white;fill-rule:nonzero;"/>
                <path d="M4337.91,2033.55L4337.91,2222.61L4254.48,2222.61L4254.48,2094.97L4221.15,2222.61L4161.97,2222.61L4126.83,2097.89L4126.83,2222.61L4043.4,2222.61L4043.4,2033.55L4166.96,2033.55C4170.59,2044.92 4174.44,2058.31 4178.52,2073.72L4191.67,2121.83L4213.44,2033.55L4337.91,2033.55Z" style="fill:white;fill-rule:nonzero;"/>
            </g>
            <g id="Pinas-Logo1" serif:id="Pinas Logo">
                <path d="M6511.06,1888.36C6472.67,1887.63 6419.67,1893.81 6389.11,1897.11C6368.39,1899.34 6346.44,1903.74 6327.61,1908.15C6310.22,1912.22 6289.56,1919.47 6276.33,1923.57C6266.83,1926.49 6257.44,1929.61 6248,1932.73C6237.94,1936.06 6226.61,1939.66 6216.06,1943.56C6204.28,1947.89 6190.44,1953.94 6177.56,1958.76C6162.61,1964.35 6140.83,1971.68 6126.22,1977.09C6114.11,1981.61 6101.89,1986.1 6090,1991.26C6077.17,1996.81 6062.89,2004.06 6049.28,2010.42C6033.56,2017.78 6013.22,2026.37 5995.72,2035.41C5976.83,2045.16 5955.44,2057.07 5935.89,2068.94C5914.5,2081.93 5886.72,2099.81 5867.44,2113.31C5851.22,2124.72 5835.72,2137.23 5820.44,2149.97C5800.5,2166.56 5770.61,2190.24 5747.94,2212.87C5724.83,2235.92 5699.06,2260.55 5681.78,2288.27C5661.5,2320.73 5650,2345.09 5643.44,2376.59C5634.44,2419.67 5627.83,2495.44 5627.83,2546.74C5627.83,2592.94 5636.78,2649.49 5643.44,2684.42C5648.17,2709.29 5655.56,2734.19 5667.72,2756.27C5683,2784.01 5708.5,2822.87 5735.11,2850.83C5761.78,2878.88 5795,2902.71 5827.72,2924.56C5905.78,2976.6 6130.17,3113.82 6203.22,3163.04C6226.56,3178.77 6251.22,3205.36 6265.94,3219.91C6275.28,3229.18 6284.17,3239.19 6291.39,3250.32C6299.5,3262.84 6308.33,3280.34 6314.61,3295.09C6320.56,3309.2 6326,3323.74 6328.83,3338.83C6334.11,3366.91 6343.44,3427.06 6346.39,3463.51C6348.89,3494.74 6354.94,3531.45 6346.39,3557.53C6337.94,3583.32 6318.89,3610.7 6295.06,3620.01C6271.17,3629.31 6225.39,3620.31 6203.22,3613.35C6186.06,3607.97 6171,3593.98 6161.83,3578.22C6152.39,3561.98 6148.28,3537.23 6146.61,3515.87C6143.72,3479.41 6145.22,3411.59 6144.56,3359.46C6143.89,3307.31 6144.39,3229.14 6142.56,3203.03C6142.33,3199.92 6136.39,3203.06 6133.39,3202.83C6123.89,3202.1 6101.61,3199.88 6085.72,3198.66C6053.56,3196.19 5988.78,3191.62 5940.33,3188.04C5885.83,3184.01 5804.17,3178.04 5758.5,3174.5C5727.83,3172.12 5684.67,3168.22 5666.5,3166.79C5660.78,3166.35 5650.44,3160.22 5649.39,3165.96C5646.61,3180.78 5649.78,3225.81 5650,3255.73C5650.22,3285.66 5649.72,3323.25 5650.61,3345.5C5651.17,3360.16 5653.28,3374.72 5655.28,3389.24C5657.61,3405.93 5662.17,3432.07 5664.44,3445.68C5665.83,3454.09 5667.56,3463.35 5668.94,3470.88C5670.11,3477.55 5670.72,3484.37 5672.61,3490.88C5674.72,3498.38 5678.61,3507.58 5681.78,3515.87C5686,3526.98 5691.89,3544.31 5698.06,3557.53C5704.11,3570.54 5713.67,3586.03 5718.83,3595.23C5722.11,3601.09 5724.56,3607.53 5728.78,3612.72C5738.78,3625.05 5761.33,3651.17 5778.89,3669.17C5797.61,3688.4 5818.94,3710.24 5841.17,3728.11C5870.56,3751.72 5914.67,3787.37 5955.22,3810.8C6014.44,3845.03 6118.89,3901.64 6196.72,3933.48C6269.44,3963.24 6354.33,3989.82 6422.11,4001.79C6481.56,4012.31 6559.44,4009.61 6603.11,4005.33C6631.61,4002.55 6663.56,3985.51 6684.11,3976.17C6699.39,3969.27 6714.17,3960.54 6726.72,3949.31C6742.11,3935.49 6764.11,3915.08 6776.56,3893.28C6790.61,3868.81 6804.06,3823.43 6810.78,3802.47C6814.39,3791.21 6815.67,3779.24 6817.11,3767.48C6820.5,3740.12 6830,3681.64 6831.17,3638.34C6832.89,3570.93 6829.67,3424.16 6827.67,3362.99C6826.67,3332.33 6823.22,3301.76 6819.11,3271.35C6813.89,3231.98 6805,3162.32 6796.11,3126.81C6790.06,3102.51 6775.06,3078.1 6765.78,3058.28C6757.83,3041.24 6751.61,3022.97 6740.56,3007.87C6721.17,2981.46 6676.67,2928.45 6649.5,2899.78C6627.44,2876.44 6603.17,2855.14 6577.67,2835.83C6539.28,2806.82 6458.83,2750.89 6419.22,2725.66C6394.11,2709.63 6366.5,2698 6340.06,2684.42C6305.78,2666.85 6244.06,2640.22 6213.78,2620.26C6192.06,2605.92 6170.89,2582.6 6158.39,2564.65C6147.89,2549.51 6141.67,2530.96 6139.06,2512.58C6135.11,2484.18 6132.61,2425.76 6134.61,2394.28C6136.11,2370.13 6142,2342.83 6151.11,2323.67C6159.5,2305.98 6172.67,2289.44 6189.17,2279.33C6205.67,2269.19 6234,2264.07 6250.22,2262.85C6262.72,2261.92 6277.83,2265.07 6286.67,2272.02C6295.56,2278.96 6301.89,2292.37 6303.39,2304.51C6306.56,2330.09 6304.5,2385.19 6305.61,2425.52C6306.72,2466.17 6305.94,2481.44 6310.11,2548.41C6310.72,2557.92 6700,2492.83 6780.06,2480.92C6783.72,2480.38 6790.22,2480.74 6790.44,2476.97C6791.72,2451.73 6789.22,2378.64 6787.78,2329.5C6786.17,2274.07 6784.72,2188.77 6780.67,2144.34C6778.11,2116.68 6770.44,2087.62 6763.33,2062.91C6756.72,2039.97 6749.89,2016.58 6737.89,1996.04C6725.5,1974.77 6708.56,1950.98 6688.83,1935.22C6669.11,1919.47 6644.33,1908.01 6619.61,1901.48C6589.94,1893.67 6547.5,1889.06 6511.06,1888.36Z" style="fill:white;fill-rule:nonzero;"/>
                <path d="M5258.25,2236.19C5254.78,2238.26 4491.24,2345.74 4491.24,2345.74L4487.37,2349.71C4485.27,2351.86 4481.55,2361.37 4479.23,2370.53C4476.86,2379.88 4209.07,3492.24 4206.59,3500.67C4204.13,3509 4202.11,3516.25 4202.11,3516.71C4202.11,3517.17 4746.81,3567.09 4756.34,3568.57L4773.86,3571.28L4776.91,3561.07C4778.58,3555.47 4808.79,3355.89 4810.71,3352.79L4814.17,3347.17L4997.01,3365.91L5007.6,3378.82L5027.96,3598.77L5032.44,3604.39L5036.92,3610.02L5046.89,3610.02C5052.31,3610.02 5571.56,3717.92 5575.5,3719.99L5582.61,3723.74L5585.06,3719.57C5586.39,3717.26 5585.5,3707.07 5583,3696.66C5580.56,3686.39 5287.17,2266.63 5284.92,2257.86C5282.67,2249.11 5279.48,2239.79 5277.79,2237.02C5276.08,2234.23 5272.5,2232.12 5269.65,2232.23C5266.69,2232.36 5261.91,2234.02 5258.25,2236.19ZM4907.42,2630.26C4907.42,2630.26 4974.64,3070.77 4978.08,3087.44C4981.51,3104.1 4984.48,3120.81 4984.59,3124.1L4984.79,3130.14L4960.16,3126.59C4946.56,3124.64 4802.77,3120.56 4802.77,3120.56L4803.38,3112.64C4803.71,3108.28 4894.8,2630.26 4894.8,2630.26L4907.42,2630.26Z" style="fill:white;fill-rule:nonzero;"/>
                <path d="M2875.37,2318.04L2872.53,2321.17L2872.53,3566.69L2879.04,3569.19L2885.56,3571.69L3331.47,3526.7L3334.93,3521.29L3338.39,3515.87L3338.18,3268.85L3337.98,3021.83L3342.06,3020.37L3346.12,3018.91L3618.56,3509.62L4108.04,3511.71L4107.03,2940.81L4106.01,2369.91L4093.18,2371.57C4086.13,2372.49 3641.36,2378.66 3641.36,2378.66L3641.77,2620.68L3642.18,2862.71L3635.05,2861.24L3627.92,2859.79L3621,2846.67C3617.21,2839.48 3340.31,2366.92 3337.17,2364.29L3331.47,2359.49L2878.23,2314.92L2875.37,2318.04Z" style="fill:white;fill-rule:nonzero;"/>
                <path d="M2111.22,2177.25C2111.11,2178.51 2111.02,2523.21 2111.02,2943.52C2111.02,3363.83 2111.75,3708.24 2112.64,3709.16C2113.54,3710.07 2654.25,3600.86 2654.25,3600.86L2654.25,2286.18C2654.25,2286.18 2111.33,2176 2111.22,2177.25Z" style="fill:white;fill-rule:nonzero;"/>
                <path d="M2386.91,1636.86C2603.73,1636.86 2779.77,1746.92 2779.77,1882.47C2779.77,2018.03 2603.73,2128.08 2386.91,2128.08C2170.08,2128.08 1994.05,2018.03 1994.05,1882.47C1994.05,1746.92 2170.08,1636.86 2386.91,1636.86ZM2368.92,1684.48C2366.67,1686.37 2365.17,1688.94 2364.89,1691.38C2364.31,1696.5 2364.28,1697.27 2364.52,1701.43C2364.79,1706.08 2364.79,1706.19 2364.57,1707.99C2364.46,1708.88 2364.52,1709.52 2364.78,1710.28C2365.32,1711.86 2365.29,1716.87 2364.73,1718.34C2364.5,1718.94 2364.24,1719.8 2364.16,1720.24C2363.94,1721.33 2363.01,1723.05 2362.09,1724.04C2361.68,1724.48 2361.34,1724.97 2361.34,1725.11C2361.34,1725.64 2359.46,1728.91 2359.09,1729.02C2358.86,1729.09 2358.61,1729.53 2358.45,1730.14C2358.31,1730.7 2357.98,1731.51 2357.72,1731.94C2357.04,1733.11 2357.43,1740.29 2358.23,1741.23C2358.6,1741.66 2358.77,1743.48 2358.46,1743.66C2357.84,1744.02 2358.26,1753.36 2358.92,1754.05C2359.31,1754.45 2359.34,1754.76 2359.24,1757.04C2359.16,1759.04 2359.21,1759.7 2359.46,1760.07C2359.64,1760.33 2359.89,1761.05 2360.03,1761.67C2360.44,1763.57 2361.06,1765.19 2361.89,1766.55C2362.33,1767.27 2362.69,1768.01 2362.69,1768.21C2362.69,1768.66 2361.81,1770.39 2361.58,1770.39C2361.48,1770.39 2361.24,1770.81 2361.03,1771.31C2360.67,1772.22 2356.5,1776.6 2356,1776.6C2355.87,1776.6 2355.58,1776.75 2355.37,1776.93C2354.73,1777.49 2352.32,1778.95 2352.06,1778.95C2351.92,1778.95 2351.24,1779.24 2350.55,1779.6C2349.76,1780.01 2348.8,1780.29 2347.97,1780.37C2346.66,1780.51 2346.31,1780.44 2342.7,1779.36C2340.01,1778.54 2333.44,1777.98 2330.53,1778.3C2324.77,1778.94 2321.62,1779.66 2318.98,1780.94C2317.96,1781.43 2316.85,1781.97 2316.52,1782.13C2316.18,1782.29 2315.58,1782.72 2315.19,1783.07C2314.35,1783.83 2313.53,1783.79 2311.66,1782.91C2311.05,1782.62 2310.42,1782.38 2310.26,1782.38C2310.09,1782.38 2309.65,1782.22 2309.26,1782.02C2308.87,1781.83 2307.89,1781.59 2307.09,1781.49C2306.29,1781.4 2304.93,1781.23 2304.07,1781.11C2300.43,1780.61 2290.95,1781.13 2288.89,1781.94C2288.64,1782.04 2287.29,1782.47 2285.87,1782.91C2282.82,1783.86 2280.58,1784.82 2278.69,1785.99C2277.92,1786.47 2277.18,1786.87 2277.03,1786.87C2276.87,1786.87 2276.37,1787.33 2275.89,1787.91C2274.62,1789.47 2274.65,1789.46 2270.03,1789.56C2266.2,1789.65 2265.74,1789.7 2264.32,1790.22C2261.94,1791.07 2261.51,1791.08 2260.34,1790.31C2259.78,1789.94 2259.11,1789.55 2258.82,1789.43C2258.53,1789.31 2258.15,1789.13 2257.96,1789.01C2257.78,1788.9 2256.84,1788.46 2255.89,1788.02C2254.94,1787.59 2254.17,1787.16 2254.17,1787.07C2254.17,1786.98 2253.83,1786.85 2253.43,1786.78C2253.02,1786.71 2251.86,1786.31 2250.84,1785.9C2249.83,1785.49 2248.87,1785.16 2248.71,1785.16C2248.54,1785.16 2247.92,1785.02 2247.32,1784.85C2246.3,1784.56 2245.63,1784.4 2242.11,1783.54C2239.87,1782.99 2232.44,1782.31 2231.09,1782.52C2230.11,1782.67 2229.5,1782.13 2229.3,1780.92C2229.01,1779.15 2227.76,1778.82 2220.56,1778.63C2217.98,1778.57 2214.62,1778.42 2213.08,1778.31C2211.54,1778.2 2209.49,1778.05 2208.5,1777.98C2207.52,1777.91 2206.34,1777.7 2205.88,1777.51C2205.18,1777.23 2204.72,1777.21 2202.87,1777.39C2200.02,1777.68 2195.82,1777.52 2195.97,1777.12C2196.05,1776.93 2195.93,1776.87 2195.59,1776.92C2195.33,1776.96 2194.31,1777.06 2193.33,1777.14C2192.36,1777.22 2191.26,1777.41 2190.88,1777.56C2188.46,1778.54 2188.41,1778.55 2187.72,1778.31C2187.37,1778.17 2186.81,1777.83 2186.51,1777.56C2185.69,1776.82 2183.23,1775.78 2181.46,1775.42C2180.61,1775.26 2179.61,1774.97 2179.24,1774.8C2178.88,1774.62 2177.74,1774.43 2176.72,1774.36C2175.69,1774.29 2174.66,1774.14 2174.43,1774.02C2173.99,1773.8 2172.68,1773.5 2170.66,1773.17C2165.69,1772.34 2155.78,1773.72 2152.23,1775.73C2151.86,1775.94 2151.22,1776.23 2150.78,1776.38C2148.91,1777.02 2147.89,1777.67 2146.2,1779.29C2145.22,1780.24 2144.14,1781.19 2143.8,1781.4C2143.47,1781.61 2143.19,1781.96 2143.19,1782.18C2143.19,1782.39 2143.09,1782.62 2142.98,1782.69C2142.51,1782.97 2141.4,1785.14 2141.4,1785.77C2141.4,1786.14 2141.15,1787.02 2140.84,1787.71C2140.07,1789.47 2139.98,1796.42 2140.7,1798.65C2140.94,1799.39 2141.21,1800.5 2141.28,1801.09C2141.35,1801.67 2141.55,1802.49 2141.73,1802.91C2141.89,1803.31 2142.37,1804.52 2142.77,1805.57C2143.17,1806.62 2143.83,1807.89 2144.23,1808.39C2144.63,1808.89 2145.19,1809.66 2145.49,1810.11C2147.82,1813.63 2155.95,1821.29 2157.34,1821.29C2157.53,1821.29 2157.74,1821.4 2157.83,1821.53C2158.11,1821.96 2159.97,1822.58 2160.99,1822.58C2161.56,1822.58 2162.67,1822.73 2163.46,1822.92C2165.05,1823.3 2168.59,1823.27 2169.12,1822.87C2169.29,1822.74 2169.67,1822.59 2169.98,1822.51C2172.61,1821.9 2174.69,1817.51 2174.37,1813.23C2174.26,1811.72 2174.28,1811.63 2174.97,1810.76C2175.83,1809.69 2179.55,1806.86 2180.84,1806.29C2181.35,1806.08 2181.88,1805.76 2182.02,1805.6C2182.74,1804.77 2185.99,1804.66 2188.74,1805.38C2192.42,1806.35 2192.3,1806.3 2196.73,1808.57C2197.74,1809.09 2199.02,1809.62 2200.24,1810.03C2200.73,1810.2 2202.14,1810.82 2203.37,1811.42C2205.39,1812.39 2207.87,1813.28 2210.62,1814.02C2211.18,1814.16 2211.97,1814.42 2212.39,1814.59C2215.39,1815.83 2218.59,1815.18 2219.78,1813.09C2220.82,1811.29 2221.36,1811.07 2222.5,1811.99C2222.91,1812.32 2223.44,1812.53 2223.89,1812.53C2224.32,1812.53 2225.54,1812.98 2226.94,1813.67C2228.22,1814.3 2229.67,1814.88 2230.16,1814.97C2230.66,1815.06 2231.7,1815.44 2232.51,1815.83C2235.48,1817.27 2236.44,1817.62 2237.77,1817.74C2238.56,1817.81 2239.75,1818.13 2240.63,1818.51C2242.13,1819.15 2243.59,1819.48 2246.35,1819.8C2247.15,1819.89 2248.91,1820.12 2250.26,1820.3C2253.01,1820.67 2263.98,1820.75 2266.33,1820.42C2267.99,1820.19 2269.35,1820.46 2271.47,1821.42C2272.33,1821.81 2273.43,1822.19 2273.93,1822.27C2274.42,1822.36 2274.92,1822.49 2275.04,1822.58C2275.4,1822.83 2278.65,1823.86 2279.11,1823.86C2279.34,1823.86 2279.66,1823.98 2279.81,1824.13C2280.12,1824.42 2281.9,1824.85 2284.09,1825.15C2284.89,1825.26 2285.79,1825.44 2286.09,1825.56C2286.4,1825.68 2287.64,1825.92 2288.83,1826.1C2297.48,1827.4 2300.65,1827.46 2304.84,1826.38C2305.74,1826.15 2306.71,1825.93 2306.96,1825.9C2307.56,1825.83 2309.91,1825.16 2310.77,1824.82C2311.14,1824.67 2312.14,1824.34 2313.01,1824.08C2313.86,1823.82 2314.82,1823.49 2315.12,1823.33C2317.39,1822.17 2318.08,1822.84 2316.97,1825.13C2315.66,1827.83 2315.39,1828.72 2314.44,1833.81C2314.31,1834.51 2314.11,1835.52 2313.98,1836.05C2312.42,1843.21 2313.49,1852.53 2316.21,1855.36C2317.56,1856.76 2320.73,1856.47 2321.23,1854.89C2322.09,1852.17 2322.38,1845.34 2321.75,1842.26C2321.57,1841.37 2321.37,1839.71 2321.31,1838.56C2321.24,1837.4 2321.09,1836.34 2320.98,1836.2C2320.25,1835.31 2319.9,1830.67 2320.46,1829.21C2321.11,1827.47 2322.04,1827.62 2322.04,1829.47C2322.04,1829.92 2322.14,1830.46 2322.26,1830.66C2322.37,1830.86 2322.57,1832.03 2322.72,1833.27C2322.86,1834.51 2323.07,1835.55 2323.18,1835.59C2323.29,1835.62 2323.39,1836.18 2323.39,1836.81C2323.39,1837.44 2323.49,1838.01 2323.61,1838.08C2323.73,1838.16 2323.83,1838.72 2323.83,1839.32C2323.83,1840.54 2324.41,1845.66 2324.73,1847.17C2324.84,1847.71 2324.99,1848.44 2325.07,1848.83C2325.26,1849.76 2325.52,1849.71 2327.08,1848.46C2327.81,1847.88 2329.08,1846.96 2329.89,1846.42C2331.69,1845.25 2331.78,1844.98 2331.08,1842.91C2330.79,1842.02 2330.38,1840.54 2330.19,1839.63C2330,1838.73 2329.54,1837.37 2329.18,1836.64C2328.82,1835.9 2328.52,1835.14 2328.52,1834.94C2328.52,1834.74 2328.12,1834.03 2327.63,1833.35C2327.14,1832.68 2326.74,1831.93 2326.74,1831.7C2326.74,1831.47 2326.6,1831.12 2326.43,1830.93C2326.12,1830.58 2325.25,1828.97 2324.2,1826.81C2323.49,1825.36 2323.51,1825.32 2325.27,1823.57C2326.6,1822.25 2327.18,1821.18 2327.18,1820.06C2327.18,1819.64 2326.74,1819.21 2325.7,1818.59C2325.33,1818.37 2325.43,1818.28 2326.58,1817.79C2328.17,1817.11 2327.96,1817.06 2328.67,1818.25C2329.01,1818.81 2329.46,1819.49 2329.68,1819.77C2329.91,1820.05 2330.08,1820.54 2330.08,1820.84C2330.08,1821.16 2330.25,1821.64 2330.45,1821.92C2331.06,1822.74 2332.09,1824.91 2332.09,1825.34C2332.09,1826.29 2333.03,1830.23 2333.42,1830.92C2333.98,1831.91 2335.22,1835.49 2335.22,1836.12C2335.22,1836.39 2335.42,1837.01 2335.67,1837.49C2335.92,1837.99 2336.12,1838.47 2336.12,1838.58C2336.12,1838.69 2336.26,1839.05 2336.45,1839.39C2336.63,1839.74 2336.78,1840.17 2336.78,1840.37C2336.78,1840.58 2336.88,1840.79 2337.01,1840.87C2337.13,1840.93 2337.23,1841.26 2337.23,1841.58C2337.23,1841.9 2337.43,1842.38 2337.68,1842.63C2337.92,1842.88 2338.12,1843.31 2338.12,1843.58C2338.12,1843.85 2338.41,1844.65 2338.76,1845.36C2339.56,1846.93 2341.03,1851.21 2341.03,1851.96C2341.03,1852.25 2341.13,1852.56 2341.25,1852.63C2341.37,1852.7 2341.47,1852.93 2341.47,1853.16C2341.47,1853.38 2342.01,1854.6 2342.66,1855.87C2343.32,1857.14 2344.14,1858.78 2344.51,1859.52C2344.86,1860.24 2345.27,1860.86 2345.42,1860.86C2345.72,1860.86 2345.94,1861.36 2345.94,1862.06C2345.94,1862.53 2346.77,1864.47 2347.08,1864.71C2347.15,1864.77 2347.34,1865.49 2347.49,1866.31C2347.66,1867.14 2347.87,1867.92 2347.98,1868.06C2348.09,1868.19 2348.21,1868.6 2348.23,1868.97C2348.26,1869.33 2348.36,1869.63 2348.44,1869.63C2348.8,1869.63 2349.64,1873.43 2349.84,1876.01C2349.91,1876.88 2350.07,1877.76 2350.19,1877.97C2350.31,1878.19 2350.47,1878.73 2350.54,1879.18C2350.61,1879.63 2350.88,1880.58 2351.13,1881.27C2351.38,1881.97 2351.61,1882.69 2351.63,1882.88C2351.65,1883.06 2351.78,1883.48 2351.92,1883.79C2352.43,1884.95 2352.28,1887.28 2351.48,1890.69C2351.34,1891.27 2351.21,1893.11 2351.19,1894.75C2351.16,1897.74 2351.15,1897.76 2348.31,1900.53C2345.55,1903.23 2342.64,1906.59 2341.38,1908.55C2341.04,1909.08 2340.22,1910.33 2339.55,1911.33C2338.88,1912.34 2338.27,1913.38 2338.19,1913.67C2338.12,1913.95 2337.92,1914.44 2337.76,1914.74C2337.59,1915.04 2337.46,1915.37 2337.46,1915.48C2337.46,1915.58 2337.17,1916.25 2336.81,1916.97C2335.93,1918.75 2335.22,1921.26 2335.22,1922.58C2335.22,1923.29 2334.99,1924.24 2334.57,1925.26C2332.49,1930.3 2331.89,1941.16 2333.46,1945.4C2334.07,1947.03 2333.89,1947.93 2332.63,1949.66C2332.09,1950.39 2331.65,1951.13 2331.65,1951.28C2331.65,1951.54 2331.5,1951.81 2330.59,1953.19C2330.13,1953.9 2329.57,1955.48 2329.19,1957.1C2329.04,1957.74 2328.73,1958.82 2328.5,1959.47C2328.22,1960.25 2328.04,1961.46 2327.98,1962.99C2327.93,1964.28 2327.72,1966.01 2327.52,1966.83C2327.25,1967.91 2327.14,1969.47 2327.1,1972.49C2327.05,1976.92 2327.09,1977.38 2327.88,1980.16C2328.28,1981.59 2328.33,1982.03 2328.11,1982.36C2327.69,1983.01 2328.2,1986.29 2329.2,1989.29C2329.32,1989.65 2329.48,1990.57 2329.55,1991.33C2329.62,1992.08 2329.88,1993.23 2330.11,1993.88C2330.35,1994.53 2331.04,1996.54 2331.66,1998.37C2332.28,2000.2 2333.08,2002.26 2333.44,2002.97C2333.82,2003.68 2334.11,2004.4 2334.11,2004.57C2334.11,2004.75 2334.26,2005.17 2334.43,2005.5C2334.62,2005.83 2334.87,2006.51 2335.01,2007C2335.26,2007.92 2335.38,2008.22 2336.53,2010.56C2336.9,2011.33 2337.51,2012.63 2337.87,2013.45C2338.23,2014.27 2338.99,2016 2339.56,2017.28C2340.12,2018.57 2340.58,2019.85 2340.58,2020.13C2340.58,2020.41 2340.68,2020.83 2340.8,2021.04C2341.88,2022.96 2342.23,2039.1 2341.28,2042.75C2340.91,2044.17 2340.75,2045.55 2340.67,2047.99C2340.61,2049.82 2340.46,2052.02 2340.33,2052.91C2340.21,2053.79 2339.98,2055.79 2339.81,2057.36C2339.61,2059.24 2339.39,2060.32 2339.17,2060.56C2338.99,2060.76 2338.58,2061.55 2338.26,2062.31C2337.47,2064.17 2334.11,2068.93 2332.38,2070.63C2330.38,2072.6 2329.86,2073.68 2329.72,2076.12C2329.66,2077.39 2329.7,2078.15 2329.85,2078.24C2329.98,2078.32 2330.08,2078.55 2330.08,2078.75C2330.08,2080.33 2333.9,2081.47 2335.26,2080.28C2335.99,2079.64 2335.99,2079.64 2336.48,2080.24C2338.04,2082.15 2341.49,2082.27 2342.84,2080.46C2343.29,2079.84 2343.37,2079.82 2344.34,2079.96C2346.74,2080.31 2349.12,2080.21 2350.14,2079.69C2351.01,2079.26 2351.23,2079.23 2352.51,2079.43C2354.06,2079.66 2355.74,2079.46 2356.89,2078.89C2357.55,2078.56 2357.59,2078.57 2358.02,2079.09C2359.29,2080.64 2363.06,2081.33 2366.62,2080.68C2368.58,2080.32 2371.38,2077.58 2372.17,2075.26C2372.37,2074.67 2372.66,2073.96 2372.8,2073.67C2373.22,2072.87 2373.09,2069.51 2372.57,2067.67C2372.32,2066.78 2372,2065.39 2371.86,2064.56C2371.71,2063.74 2371.4,2062.58 2371.17,2061.99C2370.94,2061.41 2370.71,2060.44 2370.64,2059.86C2370.36,2057.27 2370.24,2056.92 2369.44,2056.16C2368.62,2055.37 2368.04,2054.3 2368.04,2053.54C2368.04,2053.29 2367.9,2052.82 2367.73,2052.51C2366.13,2049.63 2364.87,2043.73 2365.4,2041.58C2365.53,2041.04 2365.62,2039.7 2365.59,2038.58C2365.57,2037.46 2365.53,2033.42 2365.49,2029.59C2365.43,2023.07 2365.24,2020.75 2364.72,2019.81C2364.34,2019.14 2363.73,2016.4 2363.87,2016.04C2364.18,2015.28 2365.3,2015.69 2367.49,2017.38C2371.44,2020.43 2376.93,2024.25 2377.37,2024.25C2377.65,2024.25 2377.87,2024.38 2377.87,2024.55C2377.87,2024.8 2378.99,2025.62 2379.77,2025.94C2380.31,2026.16 2384.76,2029.12 2385.46,2029.72C2385.89,2030.09 2386.91,2030.71 2387.72,2031.09C2388.54,2031.47 2389.69,2032.18 2390.28,2032.68C2391.44,2033.66 2393.77,2034.93 2394.37,2034.94C2394.57,2034.94 2394.89,2035.31 2395.11,2035.81C2395.44,2036.57 2395.68,2036.76 2397.45,2037.54C2398.53,2038.02 2399.71,2038.66 2400.07,2038.94C2401.11,2039.78 2404.71,2041.74 2405.91,2042.11C2406.51,2042.3 2407.33,2042.6 2407.72,2042.77C2408.11,2042.93 2408.47,2043.07 2408.54,2043.07C2408.62,2043.07 2409.35,2043.49 2410.19,2044.01C2411.02,2044.52 2412.24,2045.09 2412.92,2045.29C2414.78,2045.82 2418.17,2047.07 2419.58,2047.75C2420.28,2048.09 2421.26,2048.43 2421.75,2048.51C2422.24,2048.59 2423.59,2048.94 2424.76,2049.28C2426.67,2049.83 2427.16,2049.89 2429.68,2049.85C2432.29,2049.81 2432.51,2049.84 2433.21,2050.31C2433.84,2050.74 2434.37,2050.84 2437.13,2051.04C2440.26,2051.26 2440.51,2051.24 2443.26,2050.65C2446.89,2049.87 2450.22,2046.32 2450.89,2042.53C2450.99,2041.94 2451.18,2041.08 2451.3,2040.61C2451.65,2039.29 2451.66,2035.88 2451.32,2033.98C2450.73,2030.68 2450.98,2028.34 2452.08,2026.62C2452.51,2025.96 2452.97,2025.02 2453.11,2024.51C2453.25,2024.01 2453.56,2023.17 2453.79,2022.66C2454.63,2020.78 2455.17,1998.34 2454.46,1995.27C2453.95,1993.13 2453.81,1991.78 2453.66,1987.57C2453.49,1982.9 2453.54,1982.59 2454.77,1981.49C2455.09,1981.21 2455.36,1980.88 2455.36,1980.76C2455.36,1980.64 2455.53,1980.37 2455.73,1980.15C2456.81,1979.01 2457.23,1971.61 2456.39,1968.43C2456.22,1967.78 2456.02,1966.44 2455.93,1965.44C2455.76,1963.27 2455.41,1961.33 2455.01,1960.31C2454.85,1959.89 2454.54,1958.59 2454.34,1957.42C2454.13,1956.24 2453.88,1954.84 2453.79,1954.32C2453.38,1951.98 2452.92,1948.5 2452.78,1946.73C2452.64,1945.02 2452.31,1943.29 2451.91,1942.34C2451.84,1942.17 2451.74,1941.34 2451.69,1940.52C2451.58,1938.79 2450.66,1934.01 2450.12,1932.29C2449.91,1931.64 2449.59,1930.49 2449.42,1929.72C2449.23,1928.96 2448.7,1927.37 2448.22,1926.19C2447.29,1923.92 2446.75,1922.39 2446.42,1921.17C2446.24,1920.51 2445.34,1918.72 2443.09,1914.54C2442.74,1913.89 2442.01,1912.49 2441.46,1911.44C2439.8,1908.22 2437.91,1904.83 2437.58,1904.48C2437.42,1904.29 2437.12,1903.72 2436.93,1903.19C2436.74,1902.67 2436.3,1901.72 2435.95,1901.07C2435.59,1900.42 2435.24,1899.58 2435.16,1899.21C2435.07,1898.83 2434.8,1898.12 2434.56,1897.64C2434.31,1897.16 2433.97,1895.92 2433.81,1894.91C2433.32,1891.79 2431.91,1888.91 2429.44,1885.99C2426.81,1882.86 2426.33,1881.47 2426.11,1876.15C2425.84,1869.82 2426.26,1867.62 2429.22,1859.58C2429.86,1857.87 2430.46,1856.14 2430.56,1855.73C2430.75,1854.96 2430.8,1854.78 2432.31,1849.53C2433.53,1845.27 2434.81,1840.25 2434.81,1839.73C2434.81,1839.49 2434.95,1838.73 2435.12,1838.04C2435.28,1837.36 2435.59,1836.03 2435.81,1835.09C2436.24,1833.16 2436.45,1832.33 2436.92,1830.81C2437.11,1830.22 2437.36,1828.93 2437.48,1827.93C2437.6,1826.93 2437.9,1824.62 2438.14,1822.81C2438.47,1820.29 2438.54,1818.76 2438.45,1816.39C2438.26,1811.32 2438.48,1810.98 2441.51,1811.9C2444.58,1812.84 2445.14,1812.99 2446.27,1813.18C2447.61,1813.41 2448.87,1813.69 2449.99,1813.99C2450.43,1814.11 2451.32,1814.36 2452.01,1814.54C2452.68,1814.73 2453.49,1814.88 2453.82,1814.88C2454.15,1814.88 2455.11,1815.18 2455.94,1815.54C2456.78,1815.9 2458.08,1816.37 2458.82,1816.59C2459.55,1816.81 2460.71,1817.15 2461.38,1817.36C2462.48,1817.68 2464.46,1818.12 2467.74,1818.78C2468.41,1818.91 2470.53,1818.95 2472.99,1818.88C2476.82,1818.78 2478.76,1818.6 2481.93,1818.06C2482.6,1817.95 2483.74,1817.81 2484.47,1817.76C2485.2,1817.71 2485.9,1817.57 2486.03,1817.47C2486.17,1817.36 2486.83,1817.21 2487.51,1817.13C2489.26,1816.92 2491.73,1816.39 2492.59,1816.04C2492.99,1815.87 2493.53,1815.73 2493.77,1815.73C2494.02,1815.73 2494.95,1815.48 2495.83,1815.18C2496.71,1814.87 2498.03,1814.49 2498.74,1814.32C2499.46,1814.16 2500.46,1813.82 2500.97,1813.57C2502.02,1813.07 2503.57,1812.7 2504.59,1812.72C2519.04,1812.93 2519.85,1812.93 2522.34,1812.61C2523.76,1812.42 2525.66,1812.18 2526.58,1812.08C2529.47,1811.75 2530.67,1811.51 2532.17,1810.93C2532.97,1810.62 2534.27,1810.32 2535.07,1810.25C2535.87,1810.18 2536.93,1809.95 2537.43,1809.73C2537.93,1809.5 2538.45,1809.32 2538.59,1809.32C2538.72,1809.32 2539.52,1808.99 2540.36,1808.59C2541.19,1808.18 2542.28,1807.79 2542.77,1807.71C2543.26,1807.63 2544.61,1807.14 2545.76,1806.63C2547.03,1806.06 2548.17,1805.68 2548.67,1805.68C2549.16,1805.68 2549.81,1805.47 2550.31,1805.14C2551.64,1804.27 2552.07,1804.44 2553.38,1806.34C2554.56,1808.08 2557.32,1808.43 2561.08,1807.32C2562.19,1807 2563.64,1806.58 2564.32,1806.41C2566.44,1805.84 2568.85,1805 2570.35,1804.29C2571.16,1803.92 2572.2,1803.49 2572.69,1803.35C2574.06,1802.95 2575.14,1802.51 2578.1,1801.16C2579.61,1800.47 2581.31,1799.8 2581.9,1799.67C2582.49,1799.53 2583.52,1799.28 2584.19,1799.08C2586.21,1798.52 2590.22,1798.59 2591.08,1799.21C2591.46,1799.48 2591.9,1799.69 2592.08,1799.69C2592.42,1799.69 2595.07,1801.3 2597.06,1802.71C2598.87,1803.99 2599,1804.27 2599.04,1807.04C2599.12,1811.5 2600.63,1813.77 2604.31,1814.89C2605.83,1815.36 2608.55,1815.46 2609.56,1815.08C2609.9,1814.96 2610.98,1814.81 2611.97,1814.74C2613.97,1814.6 2616.43,1813.73 2618.33,1812.48C2621.54,1810.36 2627.49,1804.61 2629.94,1801.24C2630.68,1800.22 2632.08,1796.81 2632.41,1795.21C2632.57,1794.43 2632.88,1793.34 2633.12,1792.74C2633.83,1790.95 2633.74,1784.74 2632.98,1783.1C2632.68,1782.44 2632.43,1781.61 2632.43,1781.27C2632.43,1780.71 2631.63,1779.28 2630.91,1778.56C2630.77,1778.41 2630.64,1778.14 2630.64,1777.98C2630.64,1777.82 2630.21,1777.41 2629.67,1777.06C2629.14,1776.71 2628.08,1775.84 2627.32,1775.14C2625.79,1773.74 2624.58,1773.15 2619.48,1771.34C2615.57,1769.94 2604.54,1769.06 2601.5,1769.89C2599.4,1770.47 2598.48,1770.64 2596.54,1770.82C2595.42,1770.93 2594.18,1771.17 2593.82,1771.35C2593.45,1771.53 2592.92,1771.68 2592.63,1771.68C2591.27,1771.68 2587.91,1772.9 2586.45,1773.93C2585.5,1774.59 2584.9,1774.59 2582.82,1773.94C2581.06,1773.38 2577.27,1772.97 2577.27,1773.34C2577.27,1773.66 2572.57,1773.8 2570.16,1773.56C2568.43,1773.38 2567.93,1773.41 2567.26,1773.67C2566.81,1773.86 2565.59,1774.06 2564.54,1774.13C2563.5,1774.2 2561.24,1774.35 2559.52,1774.47C2557.8,1774.58 2554.28,1774.72 2551.71,1774.78C2545.04,1774.93 2543.78,1775.25 2543.46,1776.92C2543.24,1778.02 2542.86,1778.18 2540.35,1778.25C2537.07,1778.34 2532.14,1778.86 2529.82,1779.37C2528.72,1779.61 2527.36,1779.9 2526.81,1780.01C2524.19,1780.54 2522.91,1780.87 2521.52,1781.37C2520.68,1781.67 2519.74,1781.98 2519.44,1782.06C2518.94,1782.19 2517.03,1783.02 2514.08,1784.37C2513.53,1784.63 2512.59,1785.1 2511.99,1785.43C2510.9,1786.03 2510.89,1786.03 2508.64,1785.39C2506.58,1784.82 2505.99,1784.74 2502.13,1784.65C2499.8,1784.59 2497.86,1784.54 2497.81,1784.53C2497.77,1784.52 2497.29,1784.06 2496.76,1783.52C2494.87,1781.6 2489.73,1779.41 2483.38,1777.81C2481.63,1777.36 2478.57,1776.81 2477.87,1776.81C2477.57,1776.81 2476.72,1776.66 2476,1776.48C2470,1774.97 2458.46,1774.88 2454.36,1776.32C2452.31,1777.04 2450.58,1776.96 2449.53,1776.09C2449,1775.66 2448.46,1775.32 2448.31,1775.32C2448.15,1775.32 2447.07,1774.69 2445.89,1773.94C2444.72,1773.18 2443.4,1772.47 2442.97,1772.36C2442.54,1772.24 2441.91,1771.96 2441.56,1771.71C2441.21,1771.47 2440.02,1770.98 2438.93,1770.62C2437.83,1770.26 2436.33,1769.77 2435.59,1769.52C2433.74,1768.88 2427.78,1769.05 2426.84,1769.76C2426.53,1769.99 2425.99,1770.18 2425.66,1770.18C2424.76,1770.18 2423.62,1770.7 2422.64,1771.56C2422.16,1771.98 2421.62,1772.33 2421.42,1772.34C2421.23,1772.34 2420.68,1772.58 2420.18,1772.86C2419.69,1773.14 2419.01,1773.48 2418.67,1773.62C2418.33,1773.76 2417.95,1774.04 2417.83,1774.27C2417.51,1774.84 2416.61,1775.23 2414.81,1775.59C2413.93,1775.76 2413.02,1776.01 2412.76,1776.14C2412.5,1776.28 2412.03,1776.38 2411.72,1776.38C2411.41,1776.38 2410.62,1776.59 2409.97,1776.83C2406.36,1778.21 2402.84,1776.12 2400.93,1771.47C2399.72,1768.52 2399.78,1767.83 2401.77,1761.52C2402.72,1758.49 2402.89,1757.17 2402.92,1752.68C2402.94,1748.71 2402.98,1748.29 2403.39,1747.8C2403.93,1747.14 2403.84,1740.22 2403.26,1737.99C2403.08,1737.29 2402.81,1736.14 2402.66,1735.43C2402.17,1733.12 2401.72,1732.03 2400.87,1731.16C2400.41,1730.68 2399.68,1729.58 2399.24,1728.69C2398.8,1727.81 2398.12,1726.71 2397.71,1726.23C2397.29,1725.76 2396.57,1724.82 2396.09,1724.14C2394.75,1722.22 2392.18,1720.05 2390.18,1719.14C2389.25,1718.72 2388.22,1718.2 2387.92,1718C2387.61,1717.8 2387.08,1717.57 2386.74,1717.49C2386.24,1717.37 2386.13,1717.23 2386.13,1716.66C2386.11,1714.66 2385.17,1713.22 2383.7,1712.97C2381.79,1712.65 2381.35,1712.26 2381.17,1710.73C2381.07,1709.96 2380.89,1708.62 2380.76,1707.73C2380.29,1704.47 2380.21,1697.63 2380.64,1696.81C2381.69,1694.83 2381.94,1693.71 2381.58,1692.62C2380.47,1689.17 2378.78,1685.47 2378.19,1685.18C2377.95,1685.06 2377.44,1684.75 2377.08,1684.5C2376.49,1684.09 2375.56,1683.82 2374.3,1683.67C2374.11,1683.65 2373.72,1683.58 2373.41,1683.51C2370.97,1682.96 2370.63,1683.04 2368.92,1684.48ZM2385.39,1974.76C2387.32,1974.98 2388.04,1976.45 2387.34,1978.72C2386.69,1980.79 2386.08,1986.02 2386.39,1986.79C2386.53,1987.12 2386.57,1988 2386.48,1988.88C2386.31,1990.77 2386.44,1991.09 2388.13,1992.81C2388.87,1993.57 2389.48,1994.32 2389.48,1994.48C2389.48,1995.3 2393.49,1997.73 2394.84,1997.73C2395.3,1997.73 2395.62,1998.06 2395.84,1998.8C2395.94,1999.09 2396.31,1999.96 2396.67,2000.73C2397.86,2003.26 2397.97,2003.52 2397.97,2003.94C2397.97,2004.81 2391.33,2004.82 2389.79,2003.94C2389.36,2003.7 2388.89,2003.5 2388.74,2003.5C2387.49,2003.46 2387.03,2002.15 2386.89,1998.18C2386.72,1993.27 2386.04,1991.71 2383.64,1990.62C2382.49,1990.09 2379.46,1990.12 2377.61,1990.67C2376.83,1990.9 2375.97,1991.09 2375.71,1991.09C2375.44,1991.1 2375.16,1991.19 2375.09,1991.3C2375.02,1991.41 2374.66,1991.56 2374.28,1991.64C2373.89,1991.72 2373.19,1992.12 2372.71,1992.54C2371.75,1993.36 2371.39,1993.34 2371.8,1992.48C2372.29,1991.46 2372.13,1990.44 2371.36,1989.68C2370.64,1988.97 2370.64,1988.97 2371.24,1988.41C2371.56,1988.11 2371.89,1987.5 2371.97,1987.07C2372.17,1985.99 2373.01,1984.37 2374.07,1983.03C2374.57,1982.41 2375.12,1981.54 2375.32,1981.11C2375.5,1980.67 2375.89,1980.06 2376.17,1979.77C2376.46,1979.47 2377.15,1978.56 2377.72,1977.73C2380.19,1974.16 2379.77,1974.44 2382.29,1974.56C2383.49,1974.61 2384.88,1974.71 2385.39,1974.76Z" style="fill:white;"/>
                <path d="M892.6,1752.14C892.6,1752.83 892.144,2288.47 891.583,2942.06L890.567,4130.72L895.25,4130.72C897.861,4130.72 1388.86,3943.43 1397.15,3940.56L1412.22,3935.35L1413.24,3128.89L1459.05,3128.89L1546.4,3124.51L1633.75,3120.14C1633.75,3120.14 1657.22,3120.11 1687.47,3114.34C1711.54,3109.76 1743.07,3099.3 1747.77,3098.48C1758.31,3096.64 1784.22,3088.21 1805.39,3079.73C1826.57,3071.25 1855.05,3059.44 1868.72,3053.49L1893.56,3042.66L1913.72,3024.74C1924.71,3014.98 1940.35,3000.3 1948.13,2992.46C1955.93,2984.59 1967.44,2970.17 1973.58,2960.59C1979.71,2951.01 1987.91,2936.13 1991.7,2927.69C1995.44,2919.36 2000.21,2906.24 2002.08,2899.15C2003.95,2892.07 2006.2,2882.01 2006.97,2877.28C2007.76,2872.45 2013.48,2422.61 2013.48,2422.61C2010.49,2405.94 2007.25,2386.58 2006.36,2380.12C2005.44,2373.45 2002.77,2364.41 2000.25,2359.49C1997.69,2354.49 1995.77,2347.09 1995.77,2342.21C1995.77,2337.49 1989.4,2322.21 1981.52,2308.05C1973.64,2293.88 1961.89,2273.68 1955.26,2262.85C1948.63,2252.05 1934.39,2232.44 1923.49,2219.11C1912.59,2205.78 1902.18,2194.3 1900.28,2193.49C1898.36,2192.69 1892.63,2187.67 1887.45,2182.25C1882.27,2176.83 1869.53,2165.67 1858.94,2157.26C1848.36,2148.84 935.161,1769.72 926.806,1765.69C918.667,1761.74 908.372,1756.67 904.411,1754.65C900.339,1752.57 896.083,1750.9 894.839,1750.9C893.5,1750.9 892.6,1751.4 892.6,1752.14ZM1379.85,2298.26C1388.4,2301.06 1398.88,2304.82 1403.67,2306.8C1408.41,2308.77 1421.38,2314.61 1432.79,2319.92C1444.18,2325.23 1458.79,2334.23 1465.57,2340.13C1472.32,2345.99 1482.07,2357.83 1487.36,2366.58C1492.54,2375.15 1498.88,2391.57 1501.2,2402.4L1505.48,2422.39L1508.73,2702.33L1504.66,2713.37C1502.48,2719.28 1499.45,2729.82 1498.14,2736.07C1496.79,2742.53 1490.61,2753.77 1484.3,2761.27C1478.06,2768.68 1465.16,2778.86 1455.79,2783.76L1438.69,2792.72L1398.78,2795.22L1358.87,2797.72L1352.36,2792.09L1345.84,2786.47L1345.84,2293.26L1355.21,2293.26C1360.45,2293.26 1371.29,2295.46 1379.85,2298.26Z" style="fill:white;fill-rule:nonzero;"/>
                <path d="M3861.11,644.278C3864.01,644.144 3866.94,644.072 3869.9,644.072C3936.14,644.072 3989.93,679.083 3989.93,722.206C3989.93,761.906 3944.34,794.733 3885.41,799.689C3888.06,848.233 3938.29,1153.67 3999.37,1379.71C4032.19,1501.19 4093.24,1585.99 4137.57,1595.61C4278.34,1569.96 4652.42,990.761 4673.26,958.344C4627.33,947.372 4594.53,918.644 4594.53,884.972C4594.53,841.844 4648.32,806.839 4714.57,806.839C4780.82,806.839 4834.6,841.844 4834.6,884.972C4834.6,925.878 4786.2,959.483 4724.67,962.828C4724.67,963.3 4724.5,963.817 4724.14,964.367C4724.14,964.367 4667.13,1208.42 4603.42,1400.91C4581.73,1466.45 4569.06,1527.04 4569.41,1568.82C4569.72,1605.47 4579.98,1627.69 4595.63,1633.32C4700.02,1605.69 5156.35,1177.73 5175.92,1180.31C5175.86,1180.2 5175.79,1180.1 5175.71,1180C5174.63,1178.72 5170.8,1178.04 5171.07,1178.05C5125.82,1166.85 5093.63,1138.34 5093.63,1104.98C5093.63,1061.86 5147.42,1026.85 5213.66,1026.85C5279.91,1026.85 5333.69,1061.86 5333.69,1104.98C5333.69,1148.11 5279.91,1183.12 5213.66,1183.12C5213.12,1183.12 5212.58,1183.12 5212.03,1183.11C5213.89,1183.47 5214.3,1183.63 5212.52,1183.48L4865.97,1616.56C4790.53,1697.57 4752.86,1773.89 4735.79,1847.67C4325.71,1881.22 4107.97,1896.87 3889.38,1896.42C3879.97,1896.43 3870.54,1896.42 3861.11,1896.38C3851.69,1896.42 3842.27,1896.43 3832.84,1896.42C3614.26,1896.87 3396.52,1881.22 2986.43,1847.67C2969.37,1773.89 2931.69,1697.57 2856.26,1616.56L2509.7,1183.48C2507.92,1183.63 2508.33,1183.47 2510.19,1183.11C2509.64,1183.12 2509.1,1183.12 2508.56,1183.12C2442.31,1183.12 2388.53,1148.11 2388.53,1104.98C2388.53,1061.86 2442.31,1026.85 2508.56,1026.85C2574.81,1026.85 2628.59,1061.86 2628.59,1104.98C2628.59,1138.34 2596.41,1166.85 2551.15,1178.05C2551.42,1178.04 2547.59,1178.72 2546.52,1180C2546.43,1180.1 2546.36,1180.2 2546.31,1180.31C2565.87,1177.73 3022.21,1605.69 3126.59,1633.32C3142.24,1627.69 3152.51,1605.47 3152.81,1568.82C3153.16,1527.04 3140.49,1466.45 3118.8,1400.91C3055.09,1208.42 2998.08,964.367 2998.08,964.367C2997.72,963.817 2997.56,963.3 2997.55,962.828C2936.02,959.483 2887.62,925.878 2887.62,884.972C2887.62,841.844 2941.41,806.839 3007.66,806.839C3073.91,806.839 3127.69,841.844 3127.69,884.972C3127.69,918.644 3094.89,947.372 3048.97,958.344C3069.81,990.761 3443.87,1569.94 3584.66,1595.61C3628.98,1585.99 3690.03,1501.19 3722.86,1379.71C3783.93,1153.67 3834.16,848.233 3836.82,799.689C3777.88,794.733 3732.29,761.906 3732.29,722.206C3732.29,679.083 3786.08,644.072 3852.32,644.072C3855.28,644.072 3858.21,644.144 3861.11,644.278ZM3861.11,1754.39C3453.08,1754.55 3048.06,1765.6 3048.06,1787.55C3048.06,1809.49 3453.17,1820.54 3861.11,1820.69C4269.06,1820.54 4674.16,1809.49 4674.16,1787.55C4674.16,1765.6 4269.14,1754.55 3861.11,1754.39Z" style="fill:white;"/>
            </g>
        </g>
    </g>
</svg>
