<?xml version="1.0" encoding="UTF-8" standalone="no"?>
<!DOCTYPE svg PUBLIC "-//W3C//DTD SVG 1.1//EN" "http://www.w3.org/Graphics/SVG/1.1/DTD/svg11.dtd">
<svg width="100%" height="100%" viewBox="0 0 7723 5462" version="1.1" xmlns="http://www.w3.org/2000/svg" xmlns:xlink="http://www.w3.org/1999/xlink" xml:space="preserve" xmlns:serif="http://www.serif.com/" style="fill-rule:evenodd;clip-rule:evenodd;stroke-linejoin:round;stroke-miterlimit:2;">
    <rect id="Page-4" serif:id="Page 4" x="0" y="0" width="7722.22" height="5461.11" style="fill:none;"/>
    <g id="Page-41" serif:id="Page 4">
        <g id="Pinas-Logo" serif:id="Pinas Logo">
        </g>
        <g id="Text">
            <path d="M2908.78,4395.72C2895.99,4397.04 2887.86,4400.37 2875.43,4409.37C2854.91,4424.21 2840.92,4451.73 2835.75,4487.42C2831.63,4515.86 2833.89,4573.76 2840.04,4597.39C2852.43,4644.98 2877.71,4679.63 2909.2,4692.17C2923.75,4697.96 2944.18,4698.88 2957.98,4694.35C2970.87,4690.12 2987.59,4677.77 2996.72,4665.72L3003.77,4656.44L3005.41,4680.52C3009.52,4740.88 2999.39,4756.98 2957.34,4756.98C2934.7,4756.98 2924.62,4751.18 2920.04,4735.51L2917.54,4726.95L2883.96,4720.57C2865.56,4717.07 2848.97,4714.15 2847.27,4714.11C2844.73,4714.05 2844.41,4716.79 2845.48,4728.98C2847.26,4749.29 2852.5,4764.22 2863.15,4779.32C2873.27,4793.68 2886.08,4803.34 2902.36,4808.91C2922.49,4815.78 2954.13,4818.8 2978.52,4816.17C3021.7,4811.51 3047.52,4793.68 3060.27,4759.74C3069.46,4735.27 3070.04,4715.05 3065.87,4563.29C3063.72,4484.95 3061.69,4420.56 3061.36,4420.24C3060.88,4419.78 3036.71,4416.51 3010.18,4413.3L3001.63,4412.27L3003.12,4450.13L2993.77,4438.23C2968.12,4405.59 2941.6,4392.33 2908.78,4395.72ZM4048.66,4461.73C4022.73,4466.48 3999.76,4481.32 3984.64,4503.09C3968,4527.05 3961.37,4551.98 3961.37,4590.57C3961.37,4630.18 3970.31,4659.63 3989.36,4682.84C4011.4,4709.68 4044.14,4720.88 4078.18,4713.23C4092.66,4709.97 4113.49,4696.77 4124.98,4683.57L4132.31,4675.16L4131.13,4704.89C4129.84,4737.39 4127.23,4747.41 4117.89,4755.67C4110.74,4762.01 4095.93,4765.83 4078.61,4765.83C4056.57,4765.83 4045.2,4760.07 4042.84,4747.69C4041.53,4740.81 4043.94,4741.44 3998.38,4736.13C3987.25,4734.84 3975.78,4733.44 3973.03,4733.04C3968.21,4732.35 3968,4732.75 3968.05,4742.62C3968.15,4763.37 3979.12,4784.89 3996.08,4797.61C4015.73,4812.34 4057.21,4819.81 4099.14,4816.16C4150.08,4811.73 4177.23,4791.37 4188.49,4749.14C4193.34,4730.96 4195.79,4677.62 4198.13,4539.07L4199.48,4459.27L4186.54,4460.14C4179.35,4460.63 4165.89,4461.43 4156.27,4461.96L4138.94,4462.9L4137.66,4496.99L4132.31,4490.17C4129.38,4486.44 4120.76,4479.17 4113.27,4474.12C4093.5,4460.78 4074.11,4457.06 4048.66,4461.73ZM3470.37,4366.71L3405.76,4402.26L3408.76,4452.45L3379.44,4450.86L3380.52,4506.13L3407.47,4507.58L3408.97,4521.29C3409.79,4528.82 3410.6,4554.59 3410.76,4578.38C3411.12,4632.07 3414.18,4671.11 3419.06,4684.29C3428.24,4709.06 3451.97,4720.53 3489.19,4718.18C3496.26,4717.74 3507.33,4715.84 3513.8,4713.96C3524.93,4710.74 3525.57,4710.24 3525.57,4704.89C3525.57,4699.38 3520.87,4658.72 3520.16,4658.18C3519.96,4658.02 3514.44,4659.13 3507.81,4660.68C3494.12,4663.86 3488.92,4663.37 3483.04,4658.32C3477.51,4653.58 3476.57,4643.23 3474.88,4568.81L3473.58,4511.21L3518.08,4513.39L3517.01,4486.91C3516.42,4472.4 3515.65,4460.21 3515.3,4459.92C3514.95,4459.65 3506.53,4459.02 3496.69,4458.54C3486.84,4458.07 3477.36,4457.12 3475.72,4456.44C3473.37,4455.48 3472.47,4445.63 3471.55,4410.96L3470.37,4366.71ZM3812.46,4464.22C3793.29,4467.51 3773.49,4478.42 3758.8,4493.8L3750.21,4502.79L3750.21,4467.25L3726.89,4467.25C3714.05,4467.25 3700.29,4466.79 3696.29,4466.23L3689.02,4465.22L3690.62,4589.99C3691.51,4658.62 3692.37,4714.86 3692.55,4714.98C3692.73,4715.1 3706.99,4715.46 3724.32,4715.78L3755.77,4716.36L3755.77,4638.74C3755.77,4557.35 3756.82,4546.37 3765.81,4534.42C3784.15,4510.05 3821.03,4506.29 3836.92,4527.17C3844.93,4537.71 3845.24,4540.96 3846.51,4628.73L3847.76,4716.36L3912.16,4717.23L3911.24,4618.57C3910.23,4511.36 3910.26,4511.53 3897.09,4492.64C3890.12,4482.63 3873.27,4471.36 3859.11,4467.22C3846.91,4463.66 3824.22,4462.2 3812.46,4464.22ZM3560.53,4462.47C3559.3,4463.92 3563.72,4712.98 3564.99,4713.89C3565.55,4714.29 3580.02,4714.91 3597.13,4715.27L3628.26,4715.92L3627.41,4643.74C3626.93,4603.99 3625.92,4547.52 3625.16,4518.03L3623.77,4464.49L3602.16,4463.55C3590.18,4463.03 3576.31,4462.32 3571.03,4461.96C3565.89,4461.61 3561.06,4461.84 3560.53,4462.47ZM4490.66,4432.28C4457.33,4435.77 4424.61,4453.61 4405.52,4478.71C4382.25,4509.29 4374.01,4536.46 4373.87,4583.03C4373.7,4638.74 4387.01,4671.09 4419.94,4695.03C4438.54,4708.55 4454.5,4713.29 4481.24,4713.23C4506.06,4713.18 4520.16,4710.17 4538.37,4701.04C4552.93,4693.73 4566.78,4681.11 4577.09,4665.72C4584.09,4655.28 4596.03,4625.79 4597.3,4615.82L4598.06,4609.87L4567.78,4605.73C4551.09,4603.46 4537.37,4601.69 4537.19,4601.82C4537.01,4601.93 4535.2,4607.83 4533.16,4614.94C4525.6,4641.21 4510.34,4654.84 4488.52,4654.84C4463.18,4654.84 4448.11,4641.06 4441.88,4612.19C4437.66,4592.6 4440.14,4541.41 4446.04,4526.44C4451.64,4512.23 4457.18,4504.71 4467.1,4497.87C4480.85,4488.37 4499.43,4485.93 4513.55,4491.74C4522.43,4495.41 4531.43,4507.73 4533.38,4518.9C4534.12,4523.11 4535.51,4526.59 4536.44,4526.59C4538.32,4526.59 4587.36,4512.56 4594.42,4510.01C4598.46,4508.54 4598.52,4507.87 4595.54,4498.16C4585.21,4464.49 4566.16,4443.02 4539.65,4435.14C4528.24,4431.76 4507.34,4430.54 4490.66,4432.28ZM3120.04,4353.29C3120.81,4371.12 3123.41,4457.31 3125.82,4544.79C3128.23,4632.28 3130.44,4704.04 3130.74,4704.24C3131.03,4704.44 3145.39,4705.1 3162.51,4705.69L3193.74,4706.78L3192.12,4647.59C3189.21,4542.26 3189.98,4525.84 3198.62,4508.31C3208.2,4488.87 3237.12,4481.6 3258.78,4493.18C3261.93,4494.87 3267.16,4499.89 3270.28,4504.24C3278.41,4515.58 3280.17,4533.12 3282.72,4627.86C3283.91,4672.11 3285.17,4708.54 3285.53,4708.74C3285.88,4708.94 3300.18,4709.5 3317.08,4709.97L3347.99,4710.84L3347.91,4686.91C3347.7,4635.11 3343.55,4523.58 3341.34,4510.63C3338.72,4495.26 3332.22,4479.16 3324.42,4468.7C3316.94,4458.69 3298.72,4445.77 3284.88,4440.68C3271.19,4435.63 3246.15,4433.75 3232.68,4436.75C3222.54,4439.01 3203.92,4450.28 3194.26,4460L3186.9,4467.39L3185.19,4399.13C3184.24,4361.56 3183.14,4330.61 3182.73,4330.29C3182.32,4329.98 3169.99,4328.11 3155.45,4326.16C3140.9,4324.21 3126.6,4322.21 3123.79,4321.73L3118.65,4320.87L3120.04,4353.29ZM4680.74,4309.26L4651.11,4313.9L4649.96,4323.18C4648.73,4333.05 4639.24,4702.08 4640.21,4702.69C4641.57,4703.57 4700.53,4700.69 4702.03,4699.67C4703.13,4698.93 4712.17,4397.61 4713.67,4311.43C4713.74,4307.37 4713.04,4304.27 4712.09,4304.39C4711.15,4304.52 4697.01,4306.71 4680.74,4309.26ZM4952.77,4377.52L4925.6,4382.09L4924.1,4466.23C4921.99,4584.91 4919.94,4600.64 4904.03,4620.31C4885.71,4642.94 4855.71,4645.81 4841.74,4626.26C4832.81,4613.77 4831.97,4598.99 4834.26,4494.67C4835.43,4441.43 4836.14,4397.51 4835.84,4397.03C4835.09,4395.84 4776.57,4404.28 4774.48,4405.88C4771.85,4407.89 4767.92,4612.92 4770.21,4628.73C4774.55,4658.76 4783.92,4677.28 4800.66,4688.94C4836.59,4713.96 4887.91,4700.54 4917.26,4658.47L4924.74,4647.73L4924.96,4691.4L4950.21,4690.39C4964.11,4689.83 4977.08,4689.07 4979.09,4688.71C4982.96,4687.99 4983.71,4666.74 4987.02,4463.77C4988.46,4374.98 4988.4,4372.81 4984.22,4372.87C4981.86,4372.92 4967.74,4375 4952.77,4377.52ZM2718.47,4399.06C2718.77,4415.19 2720.02,4486.54 2721.26,4557.78C2722.49,4629.02 2723.69,4687.32 2723.93,4687.47C2725,4688.15 2785.11,4691.08 2785.97,4690.49C2787.09,4689.73 2782.27,4428.37 2780.63,4400.95L2779.34,4379.48L2749.71,4374.62C2733.45,4371.95 2719.59,4369.76 2719.01,4369.76C2718.42,4369.76 2718.18,4382.96 2718.47,4399.06ZM5080.71,4230.77L5051.18,4237.88L5049.93,4256.16C5048.12,4282.56 5043.29,4683.58 5044.77,4684.58C5045.47,4685.07 5058.46,4684.87 5073.65,4684.15L5101.24,4682.84L5102.53,4635.54L5112.18,4649.18C5140.3,4688.94 5184.41,4697.48 5217.03,4669.49C5249.47,4641.67 5266.2,4601.89 5273.29,4535.73C5276.46,4506.28 5274.81,4449.37 5270.04,4423C5259.28,4363.52 5230.14,4328.41 5191.53,4328.41C5163.26,4328.41 5138.76,4344.22 5117.12,4376.43L5109.81,4387.31L5110.98,4305.41C5111.63,4260.44 5111.72,4223.54 5111.19,4223.58C5110.66,4223.63 5096.97,4226.86 5080.71,4230.77ZM2447.31,4427.43L2447.31,4672.54L2457.89,4673.49C2463.68,4674 2478.43,4674.89 2490.41,4675.44L2512.34,4676.46L2512.34,4473.78L2577.92,4482.71C2614.07,4487.62 2644.26,4491.63 2645.2,4491.63C2647.37,4491.63 2647.43,4429.09 2645.26,4420.83L2643.7,4414.88L2579.31,4404.07C2543.79,4398.11 2514.43,4392.93 2513.84,4392.53C2513.25,4392.13 2512.04,4366.49 2511.17,4335.59C2509.8,4287.86 2510.04,4279.49 2512.77,4280.2C2524.53,4283.25 2660.83,4311.87 2663.6,4311.87C2664.42,4311.87 2665.09,4294.89 2665.09,4274.15L2665.09,4236.43L2608.4,4222.86C2577.17,4215.39 2528.55,4203.24 2500.14,4195.8C2471.69,4188.36 2448.3,4182.31 2447.94,4182.31C2447.59,4182.31 2447.31,4292.64 2447.31,4427.43ZM4103.85,4515.71C4114.93,4520.92 4125.69,4534.72 4130.01,4549.22C4134.23,4563.44 4133.7,4604.97 4129.12,4619.01C4117.6,4654.26 4081.88,4671.38 4053.57,4655.21C4045.41,4650.54 4034.64,4635.69 4031,4624.08C4026.74,4610.49 4025.52,4582.01 4028.46,4565.04C4032.52,4541.68 4039.88,4528.62 4054.64,4518.61C4069.09,4508.81 4086.95,4507.76 4103.85,4515.71ZM2963.12,4462.49C2980.58,4471.74 2994.69,4493.8 2999.66,4519.63C3002.95,4536.74 3003.04,4576.11 2999.83,4589.56C2992.99,4618.14 2975.99,4634.82 2953.7,4634.82C2931.17,4634.82 2913.23,4618.14 2904.09,4588.68C2902.32,4582.93 2899.88,4567.94 2898.69,4555.32C2894.03,4506.13 2905.46,4468.81 2927.82,4460.23C2936.16,4457.02 2955.07,4458.24 2963.12,4462.49ZM5181.47,4404.65C5189.72,4409.06 5198.42,4421.26 5203.35,4435.33C5210.09,4454.58 5213.18,4496.41 5210.29,4529.35C5206.91,4567.94 5199.96,4588.13 5184.65,4603.77C5165.02,4623.84 5137.77,4618.28 5122.73,4591.15C5112.89,4573.42 5111.1,4564.02 5109.87,4523.69C5108.53,4479.87 5111.35,4458.6 5121.29,4437.51C5128.13,4423 5140.34,4409.27 5150.24,4404.96C5159.66,4400.86 5174.13,4400.72 5181.47,4404.65ZM3559.16,4365.26L3559.16,4427.36L3578.84,4428.29C3589.75,4428.82 3604.29,4429.63 3611.47,4430.11L3624.41,4430.98L3623.12,4369.03L3605.16,4368.02C3595.31,4367.46 3580.84,4366.61 3573.17,4366.13L3559.16,4365.26ZM2717.29,4287.21L2717.94,4326.23L2748.21,4331.96C2764.9,4335.12 2778.77,4337.72 2779.13,4337.75C2780.22,4337.84 2779.68,4304.76 2778.23,4283.14C2776.87,4262.83 2776.45,4261.3 2771.96,4260.14C2769.31,4259.47 2755.81,4256.5 2741.9,4253.54L2716.66,4248.18L2717.29,4287.21Z" style="fill:rgb(8,6,5);fill-rule:nonzero;"/>
            <path d="M3574.82,4065.09L3574.82,4175.8L3487.63,4175.8L3487.63,4116.45C3487.63,4107.88 3486.98,4102.73 3485.69,4100.99C3484.39,4099.26 3480.83,4097.95 3475.01,4097.06C3469.18,4096.17 3456.19,4095.73 3436.05,4095.73L3427.42,4095.73L3427.42,4082.81C3469.57,4079.93 3501.59,4074.03 3523.46,4065.09L3574.82,4065.09Z" style="fill:rgb(8,6,5);fill-rule:nonzero;"/>
            <path d="M3608.71,4146.4L3695.9,4146.4C3695.9,4151.55 3696.12,4154.8 3696.54,4156.14C3696.98,4157.49 3698.74,4158.62 3701.83,4159.53C3704.93,4160.44 3709.13,4160.89 3714.46,4160.89C3718.92,4160.89 3722.59,4160.46 3725.47,4159.59C3728.34,4158.73 3729.96,4157.61 3730.32,4156.24C3730.68,4154.88 3730.86,4152.12 3730.86,4147.97L3730.86,4130.33C3726.54,4133.29 3720.07,4135.52 3711.44,4136.99C3702.81,4138.48 3692.08,4139.22 3679.28,4139.22C3663.31,4139.22 3649.21,4137.85 3636.98,4135.12C3624.75,4132.38 3616.98,4129.1 3613.67,4125.27C3610.36,4121.44 3608.71,4116.27 3608.71,4109.74L3608.71,4100.93C3608.71,4093.18 3609.68,4087.41 3611.62,4083.62C3613.56,4079.84 3618.56,4076.34 3626.62,4073.13C3634.68,4069.92 3645.83,4067.42 3660.07,4065.64C3674.32,4063.86 3690.86,4062.97 3709.71,4062.97C3733.02,4062.97 3752.16,4064 3767.12,4066.05C3782.08,4068.1 3793.67,4071.06 3801.87,4074.91C3810.07,4078.76 3814.82,4082.81 3816.11,4087.04C3817.41,4091.28 3818.06,4099.49 3818.06,4111.66L3818.06,4127.04C3818.06,4140.22 3817.48,4149.03 3816.33,4153.48C3815.18,4157.92 3810.18,4162.13 3801.33,4166.09C3792.48,4170.06 3780.5,4173.03 3765.39,4175.02C3750.29,4177 3732.81,4177.99 3712.95,4177.99C3688.34,4177.99 3668.24,4176.74 3652.63,4174.23C3637.02,4171.72 3625.79,4168.19 3618.96,4163.63C3612.12,4159.07 3608.71,4153.33 3608.71,4146.4ZM3695.9,4111.87C3695.9,4116.52 3697.81,4119.39 3701.62,4120.48C3705.43,4121.58 3709.35,4122.12 3713.38,4122.12C3719.42,4122.12 3723.85,4121.43 3726.66,4120.04C3729.46,4118.64 3730.86,4115.92 3730.86,4111.87L3730.86,4091.83C3730.86,4086.95 3729.53,4083.76 3726.87,4082.26C3724.21,4080.76 3719.78,4080 3713.59,4080C3709.86,4080 3705.97,4080.58 3701.94,4081.74C3697.91,4082.91 3695.9,4086.04 3695.9,4091.14L3695.9,4111.87Z" style="fill:rgb(8,6,5);fill-rule:nonzero;"/>
            <path d="M3848.06,4146.4L3935.24,4146.4C3935.24,4151.55 3935.46,4154.8 3935.89,4156.14C3936.33,4157.49 3938.09,4158.62 3941.18,4159.53C3944.27,4160.44 3948.48,4160.89 3953.81,4160.89C3958.27,4160.89 3961.94,4160.46 3964.82,4159.59C3967.69,4158.73 3969.31,4157.61 3969.67,4156.24C3970.03,4154.88 3970.21,4152.12 3970.21,4147.97L3970.21,4130.33C3965.89,4133.29 3959.42,4135.52 3950.78,4136.99C3942.15,4138.48 3931.43,4139.22 3918.63,4139.22C3902.66,4139.22 3888.56,4137.85 3876.33,4135.12C3864.09,4132.38 3856.33,4129.1 3853.02,4125.27C3849.71,4121.44 3848.06,4116.27 3848.06,4109.74L3848.06,4100.93C3848.06,4093.18 3849.03,4087.41 3850.97,4083.62C3852.91,4079.84 3857.91,4076.34 3865.97,4073.13C3874.02,4069.92 3885.18,4067.42 3899.42,4065.64C3913.67,4063.86 3930.21,4062.97 3949.06,4062.97C3972.37,4062.97 3991.51,4064 4006.47,4066.05C4021.43,4068.1 4033.02,4071.06 4041.22,4074.91C4049.42,4078.76 4054.17,4082.81 4055.46,4087.04C4056.76,4091.28 4057.4,4099.49 4057.4,4111.66L4057.4,4127.04C4057.4,4140.22 4056.83,4149.03 4055.68,4153.48C4054.52,4157.92 4049.52,4162.13 4040.68,4166.09C4031.83,4170.06 4019.85,4173.03 4004.74,4175.02C3989.63,4177 3972.15,4177.99 3952.29,4177.99C3927.69,4177.99 3907.58,4176.74 3891.97,4174.23C3876.36,4171.72 3865.14,4168.19 3858.31,4163.63C3851.47,4159.07 3848.06,4153.33 3848.06,4146.4ZM3935.24,4111.87C3935.24,4116.52 3937.15,4119.39 3940.97,4120.48C3944.78,4121.58 3948.7,4122.12 3952.73,4122.12C3958.77,4122.12 3963.19,4121.43 3966,4120.04C3968.81,4118.64 3970.21,4115.92 3970.21,4111.87L3970.21,4091.83C3970.21,4086.95 3968.88,4083.76 3966.22,4082.26C3963.56,4080.76 3959.13,4080 3952.94,4080C3949.2,4080 3945.32,4080.58 3941.29,4081.74C3937.26,4082.91 3935.24,4086.04 3935.24,4091.14L3935.24,4111.87Z" style="fill:rgb(8,6,5);fill-rule:nonzero;"/>
            <path d="M4277.76,4065.09L4277.76,4082.81L4169.63,4082.81L4169.63,4101.61C4183.16,4096.55 4200.57,4094.02 4221.86,4094.02C4245.89,4094.02 4264.05,4096.15 4276.36,4100.41C4288.66,4104.67 4294.81,4112.87 4294.81,4124.99L4294.81,4140.79C4294.81,4148.63 4293.62,4154.39 4291.24,4158.06C4288.87,4161.73 4283.8,4165.12 4276.03,4168.24C4268.26,4171.37 4257.43,4173.76 4243.55,4175.43C4229.67,4177.09 4212.72,4177.92 4192.72,4177.92C4170.28,4177.92 4150.49,4176.68 4133.37,4174.19C4116.25,4171.71 4104.09,4168.01 4096.9,4163.08C4089.71,4158.16 4086.11,4150.54 4086.11,4140.24L4086.11,4134.23L4173.3,4134.23L4173.3,4141.13C4173.3,4148.29 4174.09,4153.37 4175.67,4156.38C4177.26,4159.39 4182.72,4160.89 4192.08,4160.89C4196.39,4160.89 4199.88,4160.46 4202.54,4159.59C4205.21,4158.73 4206.64,4157.79 4206.86,4156.79C4207.07,4155.79 4207.33,4151.43 4207.62,4143.73L4207.62,4121.78C4207.62,4117.63 4206.25,4114.81 4203.51,4113.3C4200.78,4111.8 4196.25,4111.04 4189.92,4111.04C4185.89,4111.04 4182.51,4111.43 4179.77,4112.21C4177.04,4112.98 4175.28,4113.82 4174.48,4114.71C4173.69,4115.59 4173.3,4117.66 4173.3,4120.89L4086.97,4120.89L4090.64,4065.09L4277.76,4065.09Z" style="fill:rgb(8,6,5);fill-rule:nonzero;"/>
            <path d="M2940.87,3818.43L2940.87,3951.88L2845.48,3951.88L2788.87,3891.22L2788.87,3951.88L2697.88,3951.88L2697.88,3818.43L2788.87,3818.43L2849.88,3878.52L2849.88,3818.43L2940.87,3818.43Z" style="fill:rgb(8,6,5);fill-rule:nonzero;"/>
            <path d="M2984.56,3818.43L3166.02,3818.43L3166.02,3845.13L3093.38,3845.13L3093.38,3870.44L3161.37,3870.44L3161.37,3895.83L3093.38,3895.83L3093.38,3925.18L3173.26,3925.18L3173.26,3951.88L2984.56,3951.88L2984.56,3818.43Z" style="fill:rgb(8,6,5);fill-rule:nonzero;"/>
            <path d="M3204.53,3818.43L3285.96,3818.43C3338.52,3818.43 3374.06,3819.19 3392.59,3820.73C3411.12,3822.27 3425.2,3824.8 3434.85,3828.32C3444.51,3831.83 3450.53,3835.75 3452.94,3840.07C3455.36,3844.38 3456.57,3852.86 3456.57,3865.49L3456.57,3912.23C3456.57,3924.22 3454.8,3932.23 3451.27,3936.27C3447.73,3940.31 3441.57,3943.46 3432.78,3945.74C3423.99,3948.03 3413.14,3949.62 3400.22,3950.53C3387.29,3951.43 3367.82,3951.88 3341.79,3951.88L3204.53,3951.88L3204.53,3818.43ZM3313.36,3841.26L3313.36,3929.05C3329.04,3929.05 3338.69,3928.05 3342.31,3926.04C3345.93,3924.04 3347.74,3918.58 3347.74,3909.68L3347.74,3857.83C3347.74,3851.78 3347.14,3847.91 3345.93,3846.21C3344.72,3844.5 3341.97,3843.25 3337.66,3842.46C3333.35,3841.66 3325.25,3841.26 3313.36,3841.26Z" style="fill:rgb(8,6,5);fill-rule:nonzero;"/>
            <path d="M3497.15,3818.43L3678.61,3818.43L3678.61,3845.13L3605.98,3845.13L3605.98,3870.44L3673.96,3870.44L3673.96,3895.83L3605.98,3895.83L3605.98,3925.18L3685.85,3925.18L3685.85,3951.88L3497.15,3951.88L3497.15,3818.43Z" style="fill:rgb(8,6,5);fill-rule:nonzero;"/>
            <path d="M3717.13,3818.43L3794.16,3818.43C3845.52,3818.43 3880.28,3819.06 3898.46,3820.32C3916.64,3821.59 3931.47,3824.82 3942.92,3830.01C3954.38,3835.2 3960.12,3843.48 3960.12,3854.86C3960.12,3865.25 3956.07,3872.23 3947.97,3875.8C3939.87,3879.37 3923.93,3881.52 3900.14,3882.23C3921.68,3883.93 3936.16,3886.22 3943.57,3889.07C3950.98,3891.93 3955.59,3894.56 3957.4,3896.94C3959.21,3899.33 3960.12,3905.92 3960.12,3916.69L3960.12,3951.88L3859.04,3951.88L3859.04,3907.54C3859.04,3900.39 3857.28,3895.97 3853.74,3894.27C3850.21,3892.56 3840.95,3891.71 3825.96,3891.71L3825.96,3951.88L3717.13,3951.88L3717.13,3818.43ZM3825.96,3841.26L3825.96,3870.94C3838.19,3870.94 3846.77,3870.4 3851.68,3869.33C3856.59,3868.26 3859.04,3864.78 3859.04,3858.9L3859.04,3851.57C3859.04,3847.33 3856.67,3844.56 3851.93,3843.24C3847.19,3841.92 3838.53,3841.26 3825.96,3841.26Z" style="fill:rgb(8,6,5);fill-rule:nonzero;"/>
            <path d="M4111.08,3818.43L4111.08,3925.18L4177.25,3925.18L4177.25,3951.88L4002.25,3951.88L4002.25,3818.43L4111.08,3818.43Z" style="fill:rgb(8,6,5);fill-rule:nonzero;"/>
            <path d="M4404.73,3818.43L4467.02,3951.88L4355.61,3951.88L4350.18,3927.9L4311.15,3927.9L4304.69,3951.88L4191.98,3951.88L4247.31,3818.43L4404.73,3818.43ZM4347.08,3904.24C4341.57,3889.13 4336.06,3870.47 4330.54,3848.27C4319.51,3873.77 4312.62,3892.42 4309.86,3904.24L4347.08,3904.24Z" style="fill:rgb(8,6,5);fill-rule:nonzero;"/>
            <path d="M4728.62,3818.43L4728.62,3951.88L4633.24,3951.88L4576.63,3891.22L4576.63,3951.88L4485.63,3951.88L4485.63,3818.43L4576.63,3818.43L4637.63,3878.52L4637.63,3818.43L4728.62,3818.43Z" style="fill:rgb(8,6,5);fill-rule:nonzero;"/>
            <path d="M4772.31,3818.43L4853.73,3818.43C4906.29,3818.43 4941.84,3819.19 4960.36,3820.73C4978.89,3822.27 4992.98,3824.8 5002.63,3828.32C5012.28,3831.83 5018.31,3835.75 5020.72,3840.07C5023.13,3844.38 5024.34,3852.86 5024.34,3865.49L5024.34,3912.23C5024.34,3924.22 5022.57,3932.23 5019.04,3936.27C5015.51,3940.31 5009.34,3943.46 5000.56,3945.74C4991.77,3948.03 4980.91,3949.62 4967.99,3950.53C4955.06,3951.43 4935.59,3951.88 4909.57,3951.88L4772.31,3951.88L4772.31,3818.43ZM4881.13,3841.26L4881.13,3929.05C4896.82,3929.05 4906.47,3928.05 4910.08,3926.04C4913.71,3924.04 4915.51,3918.58 4915.51,3909.68L4915.51,3857.83C4915.51,3851.78 4914.91,3847.91 4913.71,3846.21C4912.5,3844.5 4909.74,3843.25 4905.43,3842.46C4901.12,3841.66 4893.02,3841.26 4881.13,3841.26Z" style="fill:rgb(8,6,5);fill-rule:nonzero;"/>
            <path d="M3592.89,2033.48L3592.89,2071.31L3536.22,2071.31L3536.22,2222.53L3440.77,2222.53L3440.77,2071.31L3384.31,2071.31L3384.31,2033.48L3592.89,2033.48Z" style="fill:rgb(8,6,5);fill-rule:nonzero;"/>
            <path d="M3614.66,2033.48L3773.82,2033.48L3773.82,2071.31L3710.11,2071.31L3710.11,2107.16L3769.74,2107.16L3769.74,2143.13L3710.11,2143.13L3710.11,2184.7L3780.17,2184.7L3780.17,2222.53L3614.66,2222.53L3614.66,2033.48Z" style="fill:rgb(8,6,5);fill-rule:nonzero;"/>
            <path d="M3972.43,2033.48L4027.07,2222.53L3929.36,2222.53L3924.59,2188.55L3890.36,2188.55L3884.69,2222.53L3785.84,2222.53L3834.36,2033.48L3972.43,2033.48ZM3921.87,2155.04C3917.04,2133.63 3912.2,2107.2 3907.36,2075.75C3897.69,2111.87 3891.64,2138.3 3889.22,2155.04L3921.87,2155.04Z" style="fill:rgb(8,6,5);fill-rule:nonzero;"/>
            <path d="M4337.91,2033.48L4337.91,2222.53L4254.48,2222.53L4254.48,2094.9L4221.15,2222.53L4161.97,2222.53L4126.83,2097.82L4126.83,2222.53L4043.4,2222.53L4043.4,2033.48L4166.96,2033.48C4170.59,2044.84 4174.44,2058.23 4178.52,2073.65L4191.67,2121.76L4213.44,2033.48L4337.91,2033.48Z" style="fill:rgb(8,6,5);fill-rule:nonzero;"/>
        </g>
        <g id="Pinas-Logo1" serif:id="Pinas Logo">
            <path d="M6511.06,1888.29C6472.67,1887.56 6419.67,1893.74 6389.11,1897.04C6368.39,1899.27 6346.44,1903.67 6327.61,1908.08C6310.22,1912.15 6289.56,1919.39 6276.33,1923.49C6266.83,1926.42 6257.44,1929.53 6248,1932.66C6237.94,1935.98 6226.61,1939.58 6216.06,1943.48C6204.28,1947.82 6190.44,1953.86 6177.56,1958.69C6162.61,1964.28 6140.83,1971.6 6126.22,1977.02C6114.11,1981.53 6101.89,1986.02 6090,1991.18C6077.17,1996.73 6062.89,2003.98 6049.28,2010.34C6033.56,2017.7 6013.22,2026.29 5995.72,2035.33C5976.83,2045.09 5955.44,2056.99 5935.89,2068.87C5914.5,2081.86 5886.72,2099.73 5867.44,2113.23C5851.22,2124.64 5835.72,2137.16 5820.44,2149.89C5800.5,2166.48 5770.61,2190.17 5747.94,2212.79C5724.83,2235.84 5699.06,2260.48 5681.78,2288.19C5661.5,2320.65 5650,2345.02 5643.44,2376.52C5634.44,2419.59 5627.83,2495.36 5627.83,2546.67C5627.83,2592.87 5636.78,2649.42 5643.44,2684.34C5648.17,2709.22 5655.56,2734.12 5667.72,2756.2C5683,2783.94 5708.5,2822.8 5735.11,2850.76C5761.78,2878.81 5795,2902.63 5827.72,2924.49C5905.78,2976.53 6130.17,3113.75 6203.22,3162.97C6226.56,3178.69 6251.22,3205.28 6265.94,3219.83C6275.28,3229.11 6284.17,3239.12 6291.39,3250.24C6299.5,3262.77 6308.33,3280.27 6314.61,3295.02C6320.56,3309.12 6326,3323.67 6328.83,3338.76C6334.11,3366.83 6343.44,3426.99 6346.39,3463.44C6348.89,3494.67 6354.94,3531.37 6346.39,3557.46C6337.94,3583.25 6318.89,3610.63 6295.06,3619.93C6271.17,3629.23 6225.39,3620.24 6203.22,3613.28C6186.06,3607.9 6171,3593.91 6161.83,3578.15C6152.39,3561.9 6148.28,3537.15 6146.61,3515.8C6143.72,3479.34 6145.22,3411.52 6144.56,3359.38C6143.89,3307.24 6144.39,3229.07 6142.56,3202.96C6142.33,3199.84 6136.39,3202.99 6133.39,3202.76C6123.89,3202.03 6101.61,3199.81 6085.72,3198.58C6053.56,3196.12 5988.78,3191.54 5940.33,3187.97C5885.83,3183.94 5804.17,3177.97 5758.5,3174.42C5727.83,3172.04 5684.67,3168.14 5666.5,3166.72C5660.78,3166.28 5650.44,3160.15 5649.39,3165.89C5646.61,3180.71 5649.78,3225.73 5650,3255.66C5650.22,3285.58 5649.72,3323.18 5650.61,3345.43C5651.17,3360.08 5653.28,3374.64 5655.28,3389.17C5657.61,3405.86 5662.17,3432 5664.44,3445.61C5665.83,3454.02 5667.56,3463.28 5668.94,3470.81C5670.11,3477.48 5670.72,3484.29 5672.61,3490.81C5674.72,3498.31 5678.61,3507.51 5681.78,3515.8C5686,3526.91 5691.89,3544.23 5698.06,3557.46C5704.11,3570.47 5713.67,3585.96 5718.83,3595.16C5722.11,3601.02 5724.56,3607.46 5728.78,3612.65C5738.78,3624.97 5761.33,3651.09 5778.89,3669.09C5797.61,3688.33 5818.94,3710.17 5841.17,3728.04C5870.56,3751.64 5914.67,3787.29 5955.22,3810.73C6014.44,3844.96 6118.89,3901.57 6196.72,3933.4C6269.44,3963.17 6354.33,3989.74 6422.11,4001.72C6481.56,4012.23 6559.44,4009.53 6603.11,4005.26C6631.61,4002.48 6663.56,3985.44 6684.11,3976.1C6699.39,3969.19 6714.17,3960.47 6726.72,3949.23C6742.11,3935.42 6764.11,3915 6776.56,3893.21C6790.61,3868.73 6804.06,3823.36 6810.78,3802.39C6814.39,3791.13 6815.67,3779.17 6817.11,3767.41C6820.5,3740.05 6830,3681.57 6831.17,3638.27C6832.89,3570.86 6829.67,3424.09 6827.67,3362.92C6826.67,3332.25 6823.22,3301.68 6819.11,3271.28C6813.89,3231.91 6805,3162.24 6796.11,3126.73C6790.06,3102.44 6775.06,3078.03 6765.78,3058.21C6757.83,3041.17 6751.61,3022.9 6740.56,3007.8C6721.17,2981.38 6676.67,2928.38 6649.5,2899.71C6627.44,2876.37 6603.17,2855.07 6577.67,2835.76C6539.28,2806.74 6458.83,2750.82 6419.22,2725.58C6394.11,2709.56 6366.5,2697.93 6340.06,2684.34C6305.78,2666.78 6244.06,2640.15 6213.78,2620.19C6192.06,2605.85 6170.89,2582.53 6158.39,2564.58C6147.89,2549.44 6141.67,2530.89 6139.06,2512.51C6135.11,2484.11 6132.61,2425.69 6134.61,2394.2C6136.11,2370.06 6142,2342.76 6151.11,2323.6C6159.5,2305.9 6172.67,2289.37 6189.17,2279.26C6205.67,2269.12 6234,2264 6250.22,2262.78C6262.72,2261.84 6277.83,2265 6286.67,2271.94C6295.56,2278.88 6301.89,2292.29 6303.39,2304.43C6306.56,2330.02 6304.5,2385.12 6305.61,2425.45C6306.72,2466.1 6305.94,2481.37 6310.11,2548.33C6310.72,2557.84 6700,2492.76 6780.06,2480.85C6783.72,2480.31 6790.22,2480.67 6790.44,2476.89C6791.72,2451.66 6789.22,2378.57 6787.78,2329.43C6786.17,2273.99 6784.72,2188.7 6780.67,2144.27C6778.11,2116.61 6770.44,2087.54 6763.33,2062.83C6756.72,2039.89 6749.89,2016.51 6737.89,1995.97C6725.5,1974.69 6708.56,1950.91 6688.83,1935.15C6669.11,1919.39 6644.33,1907.94 6619.61,1901.41C6589.94,1893.6 6547.5,1888.98 6511.06,1888.29Z" style="fill:rgb(8,6,5);fill-rule:nonzero;"/>
            <path d="M5258.25,2236.12C5254.78,2238.18 4491.24,2345.67 4491.24,2345.67L4487.37,2349.63C4485.27,2351.78 4481.55,2361.29 4479.23,2370.46C4476.86,2379.81 4209.07,3492.17 4206.59,3500.59C4204.13,3508.93 4202.11,3516.18 4202.11,3516.63C4202.11,3517.09 4746.81,3567.02 4756.34,3568.49L4773.86,3571.21L4776.91,3560.99C4778.58,3555.39 4808.79,3355.82 4810.71,3352.71L4814.17,3347.09L4997.01,3365.83L5002.31,3372.29L5007.6,3378.75L5027.96,3598.69L5032.44,3604.32L5036.92,3609.94L5046.89,3609.94C5052.31,3609.94 5571.56,3717.84 5575.5,3719.92L5582.61,3723.67L5585.06,3719.49C5586.39,3717.18 5585.5,3707 5583,3696.58C5580.56,3686.32 5287.17,2266.56 5284.92,2257.78C5282.67,2249.03 5279.48,2239.72 5277.79,2236.95C5276.08,2234.15 5272.5,2232.04 5269.65,2232.16C5266.69,2232.28 5261.91,2233.94 5258.25,2236.12ZM4907.42,2630.19C4907.42,2630.19 4974.64,3070.7 4978.08,3087.37C4981.51,3104.03 4984.48,3120.73 4984.59,3124.02L4984.79,3130.07L4960.16,3126.52C4946.56,3124.57 4802.77,3120.48 4802.77,3120.48L4803.38,3112.57C4803.71,3108.21 4894.8,2630.19 4894.8,2630.19L4907.42,2630.19Z" style="fill:rgb(8,6,5);fill-rule:nonzero;"/>
            <path d="M2875.37,2317.97L2872.53,2321.09L2872.53,3566.62L2879.04,3569.12L2885.56,3571.62L3331.47,3526.63L3334.93,3521.22L3338.39,3515.8L3338.18,3268.78L3337.98,3021.76L3342.06,3020.29L3346.12,3018.84L3618.56,3509.55L4108.04,3511.63L4107.03,2940.73L4106.01,2369.83L4093.18,2371.5C4086.13,2372.42 3641.36,2378.58 3641.36,2378.58L3641.77,2620.61L3642.18,2862.63L3635.05,2861.17L3627.92,2859.71L3621,2846.59C3617.21,2839.41 3340.31,2366.85 3337.17,2364.22L3331.47,2359.42L2878.23,2314.85L2875.37,2317.97Z" style="fill:rgb(8,6,5);fill-rule:nonzero;"/>
            <path d="M2111.22,2177.18C2111.11,2178.44 2111.02,2523.13 2111.02,2943.44C2111.02,3363.76 2111.75,3708.17 2112.64,3709.08C2113.54,3709.99 2654.25,3600.78 2654.25,3600.78L2654.25,2286.11C2654.25,2286.11 2111.33,2175.93 2111.22,2177.18Z" style="fill:rgb(8,6,5);fill-rule:nonzero;"/>
            <path d="M2386.91,1636.79C2603.73,1636.79 2779.77,1746.84 2779.77,1882.39C2779.77,2017.95 2603.73,2128.01 2386.91,2128.01C2170.08,2128.01 1994.05,2017.95 1994.05,1882.39C1994.05,1746.84 2170.08,1636.79 2386.91,1636.79ZM2368.92,1684.41C2366.67,1686.3 2365.17,1688.87 2364.89,1691.3C2364.31,1696.42 2364.28,1697.2 2364.52,1701.36C2364.79,1706.01 2364.79,1706.12 2364.57,1707.92C2364.46,1708.81 2364.52,1709.44 2364.78,1710.21C2365.32,1711.79 2365.29,1716.8 2364.73,1718.27C2364.5,1718.87 2364.24,1719.73 2364.16,1720.17C2363.94,1721.26 2363.01,1722.98 2362.09,1723.97C2361.68,1724.41 2361.34,1724.89 2361.34,1725.04C2361.34,1725.57 2359.46,1728.83 2359.09,1728.94C2358.86,1729.01 2358.61,1729.46 2358.45,1730.07C2358.31,1730.63 2357.98,1731.43 2357.72,1731.87C2357.04,1733.04 2357.43,1740.22 2358.23,1741.16C2358.6,1741.58 2358.77,1743.4 2358.46,1743.59C2357.84,1743.95 2358.26,1753.29 2358.92,1753.97C2359.31,1754.38 2359.34,1754.68 2359.24,1756.97C2359.16,1758.97 2359.21,1759.63 2359.46,1760C2359.64,1760.26 2359.89,1760.98 2360.03,1761.6C2360.44,1763.5 2361.06,1765.12 2361.89,1766.47C2362.33,1767.19 2362.69,1767.94 2362.69,1768.13C2362.69,1768.58 2361.81,1770.32 2361.58,1770.32C2361.48,1770.32 2361.24,1770.73 2361.03,1771.23C2360.67,1772.14 2356.5,1776.53 2356,1776.53C2355.87,1776.53 2355.58,1776.68 2355.37,1776.86C2354.73,1777.42 2352.32,1778.88 2352.06,1778.88C2351.92,1778.88 2351.24,1779.17 2350.55,1779.52C2349.76,1779.93 2348.8,1780.22 2347.97,1780.3C2346.66,1780.43 2346.31,1780.36 2342.7,1779.28C2340.01,1778.47 2333.44,1777.91 2330.53,1778.23C2324.77,1778.86 2321.62,1779.58 2318.98,1780.87C2317.96,1781.36 2316.85,1781.89 2316.52,1782.06C2316.18,1782.22 2315.58,1782.64 2315.19,1783C2314.35,1783.76 2313.53,1783.72 2311.66,1782.84C2311.05,1782.55 2310.42,1782.31 2310.26,1782.31C2310.09,1782.3 2309.65,1782.14 2309.26,1781.94C2308.87,1781.75 2307.89,1781.52 2307.09,1781.42C2306.29,1781.33 2304.93,1781.16 2304.07,1781.04C2300.43,1780.53 2290.95,1781.06 2288.89,1781.87C2288.64,1781.97 2287.29,1782.4 2285.87,1782.84C2282.82,1783.78 2280.58,1784.74 2278.69,1785.92C2277.92,1786.4 2277.18,1786.79 2277.03,1786.79C2276.87,1786.79 2276.37,1787.26 2275.89,1787.84C2274.62,1789.39 2274.65,1789.39 2270.03,1789.49C2266.2,1789.57 2265.74,1789.63 2264.32,1790.14C2261.94,1790.99 2261.51,1791.01 2260.34,1790.23C2259.78,1789.87 2259.11,1789.47 2258.82,1789.36C2258.53,1789.24 2258.15,1789.05 2257.96,1788.94C2257.78,1788.83 2256.84,1788.38 2255.89,1787.95C2254.94,1787.52 2254.17,1787.09 2254.17,1787C2254.17,1786.91 2253.83,1786.77 2253.43,1786.71C2253.02,1786.63 2251.86,1786.24 2250.84,1785.83C2249.83,1785.42 2248.87,1785.08 2248.71,1785.08C2248.54,1785.08 2247.92,1784.94 2247.32,1784.78C2246.3,1784.49 2245.63,1784.32 2242.11,1783.47C2239.87,1782.92 2232.44,1782.23 2231.09,1782.44C2230.11,1782.59 2229.5,1782.06 2229.3,1780.84C2229.01,1779.08 2227.76,1778.75 2220.56,1778.56C2217.98,1778.49 2214.62,1778.34 2213.08,1778.24C2211.54,1778.12 2209.49,1777.98 2208.5,1777.91C2207.52,1777.83 2206.34,1777.63 2205.88,1777.44C2205.18,1777.16 2204.72,1777.14 2202.87,1777.32C2200.02,1777.61 2195.82,1777.44 2195.97,1777.05C2196.05,1776.86 2195.93,1776.79 2195.59,1776.84C2195.33,1776.89 2194.31,1776.98 2193.33,1777.07C2192.36,1777.14 2191.26,1777.33 2190.88,1777.48C2188.46,1778.47 2188.41,1778.48 2187.72,1778.23C2187.37,1778.1 2186.81,1777.76 2186.51,1777.48C2185.69,1776.74 2183.23,1775.71 2181.46,1775.35C2180.61,1775.18 2179.61,1774.89 2179.24,1774.72C2178.88,1774.55 2177.74,1774.36 2176.72,1774.28C2175.69,1774.22 2174.66,1774.07 2174.43,1773.94C2173.99,1773.72 2172.68,1773.43 2170.66,1773.09C2165.69,1772.27 2155.78,1773.65 2152.23,1775.66C2151.86,1775.87 2151.22,1776.16 2150.78,1776.31C2148.91,1776.95 2147.89,1777.6 2146.2,1779.22C2145.22,1780.17 2144.14,1781.11 2143.8,1781.33C2143.47,1781.54 2143.19,1781.89 2143.19,1782.1C2143.19,1782.32 2143.09,1782.55 2142.98,1782.62C2142.51,1782.89 2141.4,1785.07 2141.4,1785.7C2141.4,1786.07 2141.15,1786.94 2140.84,1787.63C2140.07,1789.39 2139.98,1796.35 2140.7,1798.57C2140.94,1799.32 2141.21,1800.43 2141.28,1801.01C2141.35,1801.6 2141.55,1802.42 2141.73,1802.83C2141.89,1803.24 2142.37,1804.44 2142.77,1805.49C2143.17,1806.54 2143.83,1807.82 2144.23,1808.32C2144.63,1808.82 2145.19,1809.59 2145.49,1810.04C2147.82,1813.56 2155.95,1821.22 2157.34,1821.22C2157.53,1821.22 2157.74,1821.32 2157.83,1821.46C2158.11,1821.89 2159.97,1822.51 2160.99,1822.51C2161.56,1822.51 2162.67,1822.66 2163.46,1822.85C2165.05,1823.23 2168.59,1823.19 2169.12,1822.79C2169.29,1822.67 2169.67,1822.51 2169.98,1822.44C2172.61,1821.83 2174.69,1817.44 2174.37,1813.16C2174.26,1811.64 2174.28,1811.56 2174.97,1810.69C2175.83,1809.62 2179.55,1806.78 2180.84,1806.22C2181.35,1806 2181.88,1805.69 2182.02,1805.53C2182.74,1804.69 2185.99,1804.59 2188.74,1805.31C2192.42,1806.28 2192.3,1806.23 2196.73,1808.5C2197.74,1809.01 2199.02,1809.55 2200.24,1809.96C2200.73,1810.12 2202.14,1810.75 2203.37,1811.34C2205.39,1812.32 2207.87,1813.21 2210.62,1813.94C2211.18,1814.09 2211.97,1814.34 2212.39,1814.52C2215.39,1815.76 2218.59,1815.11 2219.78,1813.02C2220.82,1811.21 2221.36,1810.99 2222.5,1811.92C2222.91,1812.25 2223.44,1812.46 2223.89,1812.46C2224.32,1812.46 2225.54,1812.91 2226.94,1813.6C2228.22,1814.23 2229.67,1814.81 2230.16,1814.9C2230.66,1814.98 2231.7,1815.37 2232.51,1815.76C2235.48,1817.19 2236.44,1817.55 2237.77,1817.67C2238.56,1817.74 2239.75,1818.06 2240.63,1818.43C2242.13,1819.08 2243.59,1819.41 2246.35,1819.73C2247.15,1819.82 2248.91,1820.04 2250.26,1820.22C2253.01,1820.59 2263.98,1820.68 2266.33,1820.35C2267.99,1820.12 2269.35,1820.38 2271.47,1821.34C2272.33,1821.73 2273.43,1822.12 2273.93,1822.2C2274.42,1822.28 2274.92,1822.42 2275.04,1822.51C2275.4,1822.76 2278.65,1823.79 2279.11,1823.79C2279.34,1823.79 2279.66,1823.91 2279.81,1824.06C2280.12,1824.35 2281.9,1824.77 2284.09,1825.08C2284.89,1825.18 2285.79,1825.37 2286.09,1825.49C2286.4,1825.61 2287.64,1825.85 2288.83,1826.03C2297.48,1827.33 2300.65,1827.38 2304.84,1826.31C2305.74,1826.08 2306.71,1825.86 2306.96,1825.83C2307.56,1825.76 2309.91,1825.08 2310.77,1824.74C2311.14,1824.59 2312.14,1824.26 2313.01,1824.01C2313.86,1823.75 2314.82,1823.42 2315.12,1823.26C2317.39,1822.1 2318.08,1822.77 2316.97,1825.06C2315.66,1827.76 2315.39,1828.64 2314.44,1833.73C2314.31,1834.44 2314.11,1835.45 2313.98,1835.98C2312.42,1843.13 2313.49,1852.46 2316.21,1855.28C2317.56,1856.68 2320.73,1856.39 2321.23,1854.82C2322.09,1852.09 2322.38,1845.27 2321.75,1842.18C2321.57,1841.29 2321.37,1839.63 2321.31,1838.48C2321.24,1837.33 2321.09,1836.27 2320.98,1836.13C2320.25,1835.23 2319.9,1830.6 2320.46,1829.13C2321.11,1827.39 2322.04,1827.54 2322.04,1829.39C2322.04,1829.84 2322.14,1830.38 2322.26,1830.58C2322.37,1830.79 2322.57,1831.96 2322.72,1833.2C2322.86,1834.44 2323.07,1835.47 2323.18,1835.51C2323.29,1835.55 2323.39,1836.1 2323.39,1836.73C2323.39,1837.36 2323.49,1837.94 2323.61,1838.01C2323.73,1838.08 2323.83,1838.64 2323.83,1839.25C2323.83,1840.47 2324.41,1845.58 2324.73,1847.1C2324.84,1847.63 2324.99,1848.37 2325.07,1848.76C2325.26,1849.69 2325.52,1849.64 2327.08,1848.39C2327.81,1847.81 2329.08,1846.88 2329.89,1846.35C2331.69,1845.17 2331.78,1844.91 2331.08,1842.83C2330.79,1841.95 2330.38,1840.47 2330.19,1839.56C2330,1838.65 2329.54,1837.3 2329.18,1836.57C2328.82,1835.83 2328.52,1835.07 2328.52,1834.87C2328.52,1834.67 2328.12,1833.95 2327.63,1833.28C2327.14,1832.61 2326.74,1831.86 2326.74,1831.63C2326.74,1831.39 2326.6,1831.04 2326.43,1830.86C2326.12,1830.51 2325.25,1828.9 2324.2,1826.74C2323.49,1825.28 2323.51,1825.24 2325.27,1823.5C2326.6,1822.17 2327.18,1821.11 2327.18,1819.98C2327.18,1819.57 2326.74,1819.13 2325.7,1818.52C2325.33,1818.3 2325.43,1818.21 2326.58,1817.71C2328.17,1817.03 2327.96,1816.99 2328.67,1818.17C2329.01,1818.73 2329.46,1819.42 2329.68,1819.7C2329.91,1819.98 2330.08,1820.46 2330.08,1820.77C2330.08,1821.08 2330.25,1821.57 2330.45,1821.84C2331.06,1822.67 2332.09,1824.83 2332.09,1825.27C2332.09,1826.22 2333.03,1830.16 2333.42,1830.84C2333.98,1831.83 2335.22,1835.42 2335.22,1836.04C2335.22,1836.32 2335.42,1836.93 2335.67,1837.42C2335.92,1837.92 2336.12,1838.4 2336.12,1838.51C2336.12,1838.62 2336.26,1838.98 2336.45,1839.32C2336.63,1839.66 2336.78,1840.09 2336.78,1840.3C2336.78,1840.5 2336.88,1840.72 2337.01,1840.79C2337.13,1840.86 2337.23,1841.19 2337.23,1841.51C2337.23,1841.83 2337.43,1842.31 2337.68,1842.56C2337.92,1842.81 2338.12,1843.24 2338.12,1843.51C2338.12,1843.78 2338.41,1844.58 2338.76,1845.28C2339.56,1846.86 2341.03,1851.13 2341.03,1851.88C2341.03,1852.18 2341.13,1852.48 2341.25,1852.56C2341.37,1852.62 2341.47,1852.86 2341.47,1853.08C2341.47,1853.3 2342.01,1854.53 2342.66,1855.8C2343.32,1857.07 2344.14,1858.71 2344.51,1859.44C2344.86,1860.17 2345.27,1860.78 2345.42,1860.78C2345.72,1860.79 2345.94,1861.29 2345.94,1861.98C2345.94,1862.46 2346.77,1864.39 2347.08,1864.64C2347.15,1864.69 2347.34,1865.42 2347.49,1866.24C2347.66,1867.06 2347.87,1867.85 2347.98,1867.98C2348.09,1868.12 2348.21,1868.53 2348.23,1868.89C2348.26,1869.26 2348.36,1869.56 2348.44,1869.56C2348.8,1869.56 2349.64,1873.36 2349.84,1875.94C2349.91,1876.81 2350.07,1877.68 2350.19,1877.9C2350.31,1878.12 2350.47,1878.66 2350.54,1879.11C2350.61,1879.56 2350.88,1880.51 2351.13,1881.2C2351.38,1881.89 2351.61,1882.62 2351.63,1882.81C2351.65,1882.98 2351.78,1883.4 2351.92,1883.72C2352.43,1884.88 2352.28,1887.21 2351.48,1890.62C2351.34,1891.2 2351.21,1893.03 2351.19,1894.68C2351.16,1897.67 2351.15,1897.68 2348.31,1900.46C2345.55,1903.15 2342.64,1906.52 2341.38,1908.48C2341.04,1909.01 2340.22,1910.26 2339.55,1911.26C2338.88,1912.26 2338.27,1913.31 2338.19,1913.59C2338.12,1913.88 2337.92,1914.37 2337.76,1914.66C2337.59,1914.96 2337.46,1915.3 2337.46,1915.4C2337.46,1915.51 2337.17,1916.18 2336.81,1916.89C2335.93,1918.68 2335.22,1921.19 2335.22,1922.51C2335.22,1923.22 2334.99,1924.17 2334.57,1925.18C2332.49,1930.23 2331.89,1941.09 2333.46,1945.33C2334.07,1946.96 2333.89,1947.86 2332.63,1949.58C2332.09,1950.32 2331.65,1951.06 2331.65,1951.21C2331.65,1951.46 2331.5,1951.73 2330.59,1953.12C2330.13,1953.83 2329.57,1955.41 2329.19,1957.02C2329.04,1957.67 2328.73,1958.74 2328.5,1959.39C2328.22,1960.18 2328.04,1961.38 2327.98,1962.92C2327.93,1964.21 2327.72,1965.93 2327.52,1966.76C2327.25,1967.84 2327.14,1969.39 2327.1,1972.42C2327.05,1976.85 2327.09,1977.3 2327.88,1980.09C2328.28,1981.52 2328.33,1981.96 2328.11,1982.28C2327.69,1982.93 2328.2,1986.22 2329.2,1989.22C2329.32,1989.58 2329.48,1990.49 2329.55,1991.25C2329.62,1992.01 2329.88,1993.16 2330.11,1993.81C2330.35,1994.46 2331.04,1996.47 2331.66,1998.3C2332.28,2000.13 2333.08,2002.19 2333.44,2002.9C2333.82,2003.61 2334.11,2004.32 2334.11,2004.5C2334.11,2004.68 2334.26,2005.09 2334.43,2005.43C2334.62,2005.76 2334.87,2006.44 2335.01,2006.93C2335.26,2007.85 2335.38,2008.15 2336.53,2010.49C2336.9,2011.26 2337.51,2012.56 2337.87,2013.38C2338.23,2014.2 2338.99,2015.93 2339.56,2017.21C2340.12,2018.49 2340.58,2019.78 2340.58,2020.06C2340.58,2020.34 2340.68,2020.76 2340.8,2020.97C2341.88,2022.89 2342.23,2039.03 2341.28,2042.68C2340.91,2044.09 2340.75,2045.48 2340.67,2047.92C2340.61,2049.74 2340.46,2051.95 2340.33,2052.83C2340.21,2053.72 2339.98,2055.72 2339.81,2057.28C2339.61,2059.17 2339.39,2060.25 2339.17,2060.49C2338.99,2060.69 2338.58,2061.47 2338.26,2062.23C2337.47,2064.09 2334.11,2068.86 2332.38,2070.55C2330.38,2072.53 2329.86,2073.61 2329.72,2076.05C2329.66,2077.32 2329.7,2078.08 2329.85,2078.17C2329.98,2078.24 2330.08,2078.48 2330.08,2078.68C2330.08,2080.26 2333.9,2081.39 2335.26,2080.21C2335.99,2079.57 2335.99,2079.57 2336.48,2080.17C2338.04,2082.08 2341.49,2082.19 2342.84,2080.38C2343.29,2079.77 2343.37,2079.74 2344.34,2079.89C2346.74,2080.24 2349.12,2080.13 2350.14,2079.62C2351.01,2079.18 2351.23,2079.16 2352.51,2079.35C2354.06,2079.59 2355.74,2079.38 2356.89,2078.81C2357.55,2078.49 2357.59,2078.49 2358.02,2079.02C2359.29,2080.57 2363.06,2081.26 2366.62,2080.61C2368.58,2080.24 2371.38,2077.51 2372.17,2075.18C2372.37,2074.59 2372.66,2073.88 2372.8,2073.6C2373.22,2072.8 2373.09,2069.44 2372.57,2067.59C2372.32,2066.71 2372,2065.32 2371.86,2064.49C2371.71,2063.67 2371.4,2062.51 2371.17,2061.92C2370.94,2061.33 2370.71,2060.37 2370.64,2059.78C2370.36,2057.19 2370.24,2056.85 2369.44,2056.08C2368.62,2055.29 2368.04,2054.22 2368.04,2053.47C2368.04,2053.21 2367.9,2052.75 2367.73,2052.44C2366.13,2049.56 2364.87,2043.66 2365.4,2041.51C2365.53,2040.97 2365.62,2039.63 2365.59,2038.51C2365.57,2037.38 2365.53,2033.35 2365.49,2029.52C2365.43,2023 2365.24,2020.68 2364.72,2019.74C2364.34,2019.07 2363.73,2016.32 2363.87,2015.97C2364.18,2015.21 2365.3,2015.62 2367.49,2017.31C2371.44,2020.36 2376.93,2024.18 2377.37,2024.18C2377.65,2024.18 2377.87,2024.31 2377.87,2024.48C2377.87,2024.73 2378.99,2025.54 2379.77,2025.87C2380.31,2026.09 2384.76,2029.04 2385.46,2029.65C2385.89,2030.02 2386.91,2030.63 2387.72,2031.02C2388.54,2031.39 2389.69,2032.11 2390.28,2032.61C2391.44,2033.58 2393.77,2034.86 2394.37,2034.87C2394.57,2034.87 2394.89,2035.24 2395.11,2035.73C2395.44,2036.5 2395.68,2036.68 2397.45,2037.47C2398.53,2037.95 2399.71,2038.58 2400.07,2038.87C2401.11,2039.71 2404.71,2041.66 2405.91,2042.04C2406.51,2042.23 2407.33,2042.52 2407.72,2042.69C2408.11,2042.86 2408.47,2042.99 2408.54,2042.99C2408.62,2042.99 2409.35,2043.41 2410.19,2043.93C2411.02,2044.45 2412.24,2045.02 2412.92,2045.22C2414.78,2045.75 2418.17,2047 2419.58,2047.68C2420.28,2048.02 2421.26,2048.36 2421.75,2048.44C2422.24,2048.52 2423.59,2048.86 2424.76,2049.21C2426.67,2049.76 2427.16,2049.81 2429.68,2049.78C2432.29,2049.73 2432.51,2049.77 2433.21,2050.23C2433.84,2050.67 2434.37,2050.77 2437.13,2050.97C2440.26,2051.19 2440.51,2051.17 2443.26,2050.58C2446.89,2049.79 2450.22,2046.24 2450.89,2042.46C2450.99,2041.87 2451.18,2041.01 2451.3,2040.54C2451.65,2039.22 2451.66,2035.81 2451.32,2033.91C2450.73,2030.61 2450.98,2028.27 2452.08,2026.55C2452.51,2025.89 2452.97,2024.94 2453.11,2024.44C2453.25,2023.94 2453.56,2023.09 2453.79,2022.58C2454.63,2020.71 2455.17,1998.27 2454.46,1995.2C2453.95,1993.06 2453.81,1991.7 2453.66,1987.5C2453.49,1982.83 2453.54,1982.52 2454.77,1981.42C2455.09,1981.13 2455.36,1980.81 2455.36,1980.69C2455.36,1980.57 2455.53,1980.29 2455.73,1980.08C2456.81,1978.93 2457.23,1971.53 2456.39,1968.36C2456.22,1967.71 2456.02,1966.37 2455.93,1965.37C2455.76,1963.19 2455.41,1961.26 2455.01,1960.23C2454.85,1959.82 2454.54,1958.52 2454.34,1957.34C2454.13,1956.17 2453.88,1954.77 2453.79,1954.24C2453.38,1951.9 2452.92,1948.43 2452.78,1946.65C2452.64,1944.94 2452.31,1943.22 2451.91,1942.27C2451.84,1942.09 2451.74,1941.27 2451.69,1940.45C2451.58,1938.72 2450.66,1933.93 2450.12,1932.22C2449.91,1931.57 2449.59,1930.42 2449.42,1929.65C2449.23,1928.88 2448.7,1927.3 2448.22,1926.12C2447.29,1923.84 2446.75,1922.32 2446.42,1921.09C2446.24,1920.44 2445.34,1918.64 2443.09,1914.47C2442.74,1913.82 2442.01,1912.42 2441.46,1911.37C2439.8,1908.14 2437.91,1904.76 2437.58,1904.41C2437.42,1904.22 2437.12,1903.64 2436.93,1903.12C2436.74,1902.59 2436.3,1901.64 2435.95,1900.99C2435.59,1900.34 2435.24,1899.51 2435.16,1899.13C2435.07,1898.76 2434.8,1898.04 2434.56,1897.57C2434.31,1897.08 2433.97,1895.85 2433.81,1894.83C2433.32,1891.72 2431.91,1888.84 2429.44,1885.92C2426.81,1882.78 2426.33,1881.39 2426.11,1876.08C2425.84,1869.74 2426.26,1867.54 2429.22,1859.51C2429.86,1857.79 2430.46,1856.07 2430.56,1855.66C2430.75,1854.88 2430.8,1854.7 2432.31,1849.45C2433.53,1845.19 2434.81,1840.18 2434.81,1839.66C2434.81,1839.42 2434.95,1838.66 2435.12,1837.97C2435.28,1837.29 2435.59,1835.96 2435.81,1835.02C2436.24,1833.08 2436.45,1832.26 2436.92,1830.74C2437.11,1830.15 2437.36,1828.86 2437.48,1827.85C2437.6,1826.85 2437.9,1824.55 2438.14,1822.73C2438.47,1820.22 2438.54,1818.68 2438.45,1816.32C2438.26,1811.24 2438.48,1810.91 2441.51,1811.83C2444.58,1812.77 2445.14,1812.92 2446.27,1813.11C2447.61,1813.34 2448.87,1813.62 2449.99,1813.92C2450.43,1814.04 2451.32,1814.28 2452.01,1814.47C2452.68,1814.66 2453.49,1814.81 2453.82,1814.81C2454.15,1814.81 2455.11,1815.11 2455.94,1815.47C2456.78,1815.82 2458.08,1816.3 2458.82,1816.52C2459.55,1816.73 2460.71,1817.08 2461.38,1817.28C2462.48,1817.61 2464.46,1818.05 2467.74,1818.7C2468.41,1818.83 2470.53,1818.88 2472.99,1818.81C2476.82,1818.71 2478.76,1818.53 2481.93,1817.99C2482.6,1817.87 2483.74,1817.74 2484.47,1817.68C2485.2,1817.63 2485.9,1817.5 2486.03,1817.39C2486.17,1817.29 2486.83,1817.14 2487.51,1817.06C2489.26,1816.85 2491.73,1816.32 2492.59,1815.97C2492.99,1815.8 2493.53,1815.66 2493.77,1815.66C2494.02,1815.66 2494.95,1815.41 2495.83,1815.11C2496.71,1814.8 2498.03,1814.42 2498.74,1814.25C2499.46,1814.08 2500.46,1813.75 2500.97,1813.5C2502.02,1812.99 2503.57,1812.63 2504.59,1812.64C2519.04,1812.86 2519.85,1812.86 2522.34,1812.53C2523.76,1812.35 2525.66,1812.11 2526.58,1812.01C2529.47,1811.68 2530.67,1811.43 2532.17,1810.85C2532.97,1810.54 2534.27,1810.24 2535.07,1810.18C2535.87,1810.11 2536.93,1809.88 2537.43,1809.65C2537.93,1809.43 2538.45,1809.24 2538.59,1809.24C2538.72,1809.24 2539.52,1808.92 2540.36,1808.51C2541.19,1808.11 2542.28,1807.72 2542.77,1807.64C2543.26,1807.56 2544.61,1807.07 2545.76,1806.55C2547.03,1805.98 2548.17,1805.61 2548.67,1805.61C2549.16,1805.61 2549.81,1805.4 2550.31,1805.07C2551.64,1804.2 2552.07,1804.37 2553.38,1806.27C2554.56,1808 2557.32,1808.35 2561.08,1807.25C2562.19,1806.92 2563.64,1806.51 2564.32,1806.33C2566.44,1805.77 2568.85,1804.93 2570.35,1804.22C2571.16,1803.84 2572.2,1803.42 2572.69,1803.27C2574.06,1802.88 2575.14,1802.44 2578.1,1801.09C2579.61,1800.4 2581.31,1799.73 2581.9,1799.59C2582.49,1799.46 2583.52,1799.2 2584.19,1799.01C2586.21,1798.45 2590.22,1798.52 2591.08,1799.14C2591.46,1799.41 2591.9,1799.62 2592.08,1799.62C2592.42,1799.62 2595.07,1801.23 2597.06,1802.63C2598.87,1803.92 2599,1804.2 2599.04,1806.97C2599.12,1811.43 2600.63,1813.69 2604.31,1814.82C2605.83,1815.28 2608.55,1815.38 2609.56,1815.01C2609.9,1814.88 2610.98,1814.73 2611.97,1814.67C2613.97,1814.53 2616.43,1813.66 2618.33,1812.4C2621.54,1810.28 2627.49,1804.53 2629.94,1801.17C2630.68,1800.15 2632.08,1796.73 2632.41,1795.13C2632.57,1794.36 2632.88,1793.26 2633.12,1792.67C2633.83,1790.88 2633.74,1784.67 2632.98,1783.03C2632.68,1782.37 2632.43,1781.54 2632.43,1781.2C2632.43,1780.63 2631.63,1779.21 2630.91,1778.48C2630.77,1778.33 2630.64,1778.07 2630.64,1777.91C2630.64,1777.74 2630.21,1777.33 2629.67,1776.98C2629.14,1776.63 2628.08,1775.77 2627.32,1775.07C2625.79,1773.67 2624.58,1773.08 2619.48,1771.26C2615.57,1769.87 2604.54,1768.98 2601.5,1769.82C2599.4,1770.39 2598.48,1770.57 2596.54,1770.75C2595.42,1770.86 2594.18,1771.09 2593.82,1771.28C2593.45,1771.46 2592.92,1771.61 2592.63,1771.61C2591.27,1771.61 2587.91,1772.82 2586.45,1773.85C2585.5,1774.52 2584.9,1774.52 2582.82,1773.87C2581.06,1773.31 2577.27,1772.89 2577.27,1773.27C2577.27,1773.58 2572.57,1773.72 2570.16,1773.48C2568.43,1773.31 2567.93,1773.33 2567.26,1773.6C2566.81,1773.78 2565.59,1773.98 2564.54,1774.06C2563.5,1774.12 2561.24,1774.28 2559.52,1774.39C2557.8,1774.51 2554.28,1774.64 2551.71,1774.71C2545.04,1774.85 2543.78,1775.18 2543.46,1776.84C2543.24,1777.94 2542.86,1778.11 2540.35,1778.17C2537.07,1778.27 2532.14,1778.79 2529.82,1779.29C2528.72,1779.53 2527.36,1779.83 2526.81,1779.94C2524.19,1780.47 2522.91,1780.8 2521.52,1781.3C2520.68,1781.6 2519.74,1781.91 2519.44,1781.99C2518.94,1782.12 2517.03,1782.94 2514.08,1784.3C2513.53,1784.56 2512.59,1785.03 2511.99,1785.36C2510.9,1785.96 2510.89,1785.96 2508.64,1785.32C2506.58,1784.74 2505.99,1784.67 2502.13,1784.58C2499.8,1784.52 2497.86,1784.46 2497.81,1784.46C2497.77,1784.44 2497.29,1783.99 2496.76,1783.44C2494.87,1781.53 2489.73,1779.33 2483.38,1777.73C2481.63,1777.29 2478.57,1776.74 2477.87,1776.74C2477.57,1776.74 2476.72,1776.59 2476,1776.41C2470,1774.89 2458.46,1774.81 2454.36,1776.25C2452.31,1776.97 2450.58,1776.89 2449.53,1776.02C2449,1775.59 2448.46,1775.24 2448.31,1775.24C2448.15,1775.24 2447.07,1774.62 2445.89,1773.86C2444.72,1773.11 2443.4,1772.39 2442.97,1772.28C2442.54,1772.17 2441.91,1771.88 2441.56,1771.64C2441.21,1771.4 2440.02,1770.91 2438.93,1770.55C2437.83,1770.19 2436.33,1769.69 2435.59,1769.44C2433.74,1768.81 2427.78,1768.98 2426.84,1769.68C2426.53,1769.91 2425.99,1770.11 2425.66,1770.11C2424.76,1770.11 2423.62,1770.63 2422.64,1771.48C2422.16,1771.91 2421.62,1772.26 2421.42,1772.27C2421.23,1772.27 2420.68,1772.51 2420.18,1772.79C2419.69,1773.07 2419.01,1773.41 2418.67,1773.54C2418.33,1773.68 2417.95,1773.97 2417.83,1774.19C2417.51,1774.77 2416.61,1775.16 2414.81,1775.52C2413.93,1775.69 2413.02,1775.94 2412.76,1776.07C2412.5,1776.21 2412.03,1776.31 2411.72,1776.31C2411.41,1776.31 2410.62,1776.52 2409.97,1776.76C2406.36,1778.13 2402.84,1776.04 2400.93,1771.39C2399.72,1768.44 2399.78,1767.76 2401.77,1761.45C2402.72,1758.42 2402.89,1757.09 2402.92,1752.61C2402.94,1748.64 2402.98,1748.22 2403.39,1747.73C2403.93,1747.07 2403.84,1740.15 2403.26,1737.92C2403.08,1737.22 2402.81,1736.06 2402.66,1735.36C2402.17,1733.05 2401.72,1731.96 2400.87,1731.08C2400.41,1730.61 2399.68,1729.51 2399.24,1728.62C2398.8,1727.73 2398.12,1726.63 2397.71,1726.16C2397.29,1725.69 2396.57,1724.75 2396.09,1724.07C2394.75,1722.15 2392.18,1719.98 2390.18,1719.07C2389.25,1718.64 2388.22,1718.13 2387.92,1717.93C2387.61,1717.73 2387.08,1717.5 2386.74,1717.42C2386.24,1717.3 2386.13,1717.16 2386.13,1716.58C2386.11,1714.58 2385.17,1713.15 2383.7,1712.9C2381.79,1712.57 2381.35,1712.18 2381.17,1710.66C2381.07,1709.89 2380.89,1708.55 2380.76,1707.66C2380.29,1704.4 2380.21,1697.55 2380.64,1696.73C2381.69,1694.76 2381.94,1693.64 2381.58,1692.54C2380.47,1689.1 2378.78,1685.39 2378.19,1685.11C2377.95,1684.98 2377.44,1684.68 2377.08,1684.42C2376.49,1684.02 2375.56,1683.74 2374.3,1683.6C2374.11,1683.58 2373.72,1683.51 2373.41,1683.43C2370.97,1682.89 2370.63,1682.96 2368.92,1684.41ZM2385.39,1974.69C2387.32,1974.91 2388.04,1976.38 2387.34,1978.64C2386.69,1980.72 2386.08,1985.95 2386.39,1986.72C2386.53,1987.04 2386.57,1987.93 2386.48,1988.81C2386.31,1990.69 2386.44,1991.02 2388.13,1992.74C2388.87,1993.5 2389.48,1994.25 2389.48,1994.41C2389.48,1995.23 2393.49,1997.66 2394.84,1997.66C2395.3,1997.66 2395.62,1997.99 2395.84,1998.73C2395.94,1999.02 2396.31,1999.88 2396.67,2000.65C2397.86,2003.18 2397.97,2003.45 2397.97,2003.87C2397.97,2004.74 2391.33,2004.74 2389.79,2003.87C2389.36,2003.63 2388.89,2003.43 2388.74,2003.42C2387.49,2003.39 2387.03,2002.07 2386.89,1998.11C2386.72,1993.2 2386.04,1991.63 2383.64,1990.54C2382.49,1990.02 2379.46,1990.04 2377.61,1990.59C2376.83,1990.83 2375.97,1991.02 2375.71,1991.02C2375.44,1991.02 2375.16,1991.12 2375.09,1991.23C2375.02,1991.33 2374.66,1991.49 2374.28,1991.57C2373.89,1991.64 2373.19,1992.05 2372.71,1992.46C2371.75,1993.29 2371.39,1993.27 2371.8,1992.41C2372.29,1991.38 2372.13,1990.37 2371.36,1989.61C2370.64,1988.9 2370.64,1988.9 2371.24,1988.34C2371.56,1988.03 2371.89,1987.42 2371.97,1986.99C2372.17,1985.92 2373.01,1984.29 2374.07,1982.96C2374.57,1982.33 2375.12,1981.47 2375.32,1981.03C2375.5,1980.59 2375.89,1979.98 2376.17,1979.69C2376.46,1979.4 2377.15,1978.48 2377.72,1977.66C2380.19,1974.08 2379.77,1974.37 2382.29,1974.48C2383.49,1974.54 2384.88,1974.63 2385.39,1974.69Z" style="fill:rgb(8,6,5);"/>
            <path d="M892.6,1752.07C892.6,1752.76 892.144,2288.39 891.583,2941.98L890.567,4130.64L895.25,4130.64C897.861,4130.64 1388.86,3943.36 1397.15,3940.48L1412.22,3935.28L1413.24,3128.81L1459.05,3128.81L1633.75,3120.07C1633.75,3120.07 1657.22,3120.04 1687.47,3114.27C1711.54,3109.69 1743.07,3099.22 1747.77,3098.41C1758.31,3096.57 1784.22,3088.14 1805.39,3079.66C1826.57,3071.18 1855.05,3059.37 1868.72,3053.42L1893.56,3042.58L1913.72,3024.67C1924.71,3014.91 1940.35,3000.23 1948.13,2992.39C1955.93,2984.52 1967.44,2970.1 1973.58,2960.52C1979.71,2950.94 1987.91,2936.06 1991.7,2927.61C1995.44,2919.28 2000.21,2906.17 2002.08,2899.08C2003.95,2891.99 2006.2,2881.93 2006.97,2877.21C2007.76,2872.38 2013.48,2422.53 2013.48,2422.53C2010.49,2405.87 2007.25,2386.51 2006.36,2380.04C2005.44,2373.38 2002.77,2364.33 2000.25,2359.42C1997.69,2354.42 1995.77,2347.02 1995.77,2342.13C1995.77,2337.42 1989.4,2322.14 1981.52,2307.97C1973.64,2293.81 1961.89,2273.61 1955.26,2262.78C1948.63,2251.98 1934.39,2232.37 1923.49,2219.04C1912.59,2205.71 1902.18,2194.23 1900.28,2193.42C1898.36,2192.62 1892.63,2187.59 1887.45,2182.18C1882.27,2176.76 1869.53,2165.59 1858.94,2157.18C1848.36,2148.77 935.161,1769.65 926.806,1765.62C918.667,1761.67 908.372,1756.6 904.411,1754.57C900.339,1752.49 896.083,1750.83 894.839,1750.83C893.5,1750.83 892.6,1751.32 892.6,1752.07ZM1379.85,2298.18C1388.4,2300.98 1398.88,2304.74 1403.67,2306.73C1408.41,2308.69 1421.38,2314.53 1432.79,2319.85C1444.18,2325.16 1458.79,2334.16 1465.57,2340.06C1472.32,2345.92 1482.07,2357.76 1487.36,2366.5C1492.54,2375.08 1498.88,2391.5 1501.2,2402.33L1505.48,2422.32L1507.11,2562.29L1508.73,2702.25L1504.66,2713.29C1502.48,2719.21 1499.45,2729.74 1498.14,2735.99C1496.79,2742.45 1490.61,2753.7 1484.3,2761.19C1478.06,2768.61 1465.16,2778.79 1455.79,2783.69L1438.69,2792.65L1398.78,2795.14L1358.87,2797.64L1345.84,2786.4L1345.84,2293.19L1355.21,2293.19C1360.45,2293.19 1371.29,2295.39 1379.85,2298.18Z" style="fill:rgb(8,6,5);fill-rule:nonzero;"/>
            <path d="M3861.11,644.206C3864.01,644.067 3866.94,644 3869.9,644C3936.14,644 3989.93,679.011 3989.93,722.133C3989.93,761.833 3944.34,794.661 3885.41,799.617C3888.06,848.161 3938.29,1153.6 3999.37,1379.63C4032.19,1501.12 4093.24,1585.92 4137.57,1595.53C4278.34,1569.88 4652.42,990.689 4673.26,958.267C4627.33,947.3 4594.53,918.572 4594.53,884.894C4594.53,841.772 4648.32,806.761 4714.57,806.761C4780.82,806.761 4834.6,841.772 4834.6,884.894C4834.6,925.8 4786.2,959.411 4724.67,962.756C4724.67,963.228 4724.5,963.739 4724.14,964.294C4724.14,964.294 4667.13,1208.34 4603.42,1400.83C4581.73,1466.38 4569.06,1526.97 4569.41,1568.74C4569.72,1605.39 4579.98,1627.62 4595.63,1633.25C4700.02,1605.62 5156.35,1177.66 5175.92,1180.23C5175.86,1180.13 5175.79,1180.02 5175.71,1179.92C5174.63,1178.64 5170.8,1177.97 5171.07,1177.97C5125.82,1166.78 5093.63,1138.27 5093.63,1104.91C5093.63,1061.79 5147.42,1026.78 5213.66,1026.78C5279.91,1026.78 5333.69,1061.79 5333.69,1104.91C5333.69,1148.03 5279.91,1183.04 5213.66,1183.04C5213.12,1183.04 5212.58,1183.04 5212.03,1183.04C5213.89,1183.39 5214.3,1183.56 5212.52,1183.41L4865.97,1616.48C4790.53,1697.49 4752.86,1773.82 4735.79,1847.59C4325.71,1881.15 4107.97,1896.79 3889.38,1896.34C3879.97,1896.36 3870.54,1896.35 3861.11,1896.31C3851.69,1896.35 3842.27,1896.36 3832.84,1896.34C3614.26,1896.79 3396.52,1881.15 2986.43,1847.59C2969.37,1773.82 2931.69,1697.49 2856.26,1616.48L2509.7,1183.41C2507.92,1183.56 2508.33,1183.39 2510.19,1183.04C2509.64,1183.04 2509.1,1183.04 2508.56,1183.04C2442.31,1183.04 2388.53,1148.03 2388.53,1104.91C2388.53,1061.79 2442.31,1026.78 2508.56,1026.78C2574.81,1026.78 2628.59,1061.79 2628.59,1104.91C2628.59,1138.27 2596.41,1166.78 2551.15,1177.97C2551.42,1177.97 2547.59,1178.64 2546.52,1179.92C2546.43,1180.02 2546.36,1180.13 2546.31,1180.23C2565.87,1177.66 3022.21,1605.62 3126.59,1633.25C3142.24,1627.62 3152.51,1605.39 3152.81,1568.74C3153.16,1526.97 3140.49,1466.38 3118.8,1400.83C3055.09,1208.34 2998.08,964.294 2998.08,964.294C2997.72,963.739 2997.56,963.228 2997.55,962.756C2936.02,959.411 2887.62,925.8 2887.62,884.894C2887.62,841.772 2941.41,806.761 3007.66,806.761C3073.91,806.761 3127.69,841.772 3127.69,884.894C3127.69,918.572 3094.89,947.3 3048.97,958.267C3069.81,990.689 3443.87,1569.87 3584.66,1595.53C3628.98,1585.92 3690.03,1501.12 3722.86,1379.63C3783.93,1153.6 3834.16,848.161 3836.82,799.617C3777.88,794.661 3732.29,761.833 3732.29,722.133C3732.29,679.011 3786.08,644 3852.32,644C3855.28,644 3858.21,644.067 3861.11,644.206ZM3861.11,1754.32C3453.08,1754.47 3048.06,1765.53 3048.06,1787.48C3048.06,1809.42 3453.17,1820.47 3861.11,1820.62C4269.06,1820.47 4674.16,1809.42 4674.16,1787.48C4674.16,1765.53 4269.14,1754.47 3861.11,1754.32Z" style="fill:rgb(8,6,5);"/>
        </g>
    </g>
</svg>
