<?xml version="1.0" encoding="UTF-8" standalone="no"?>
<!DOCTYPE svg PUBLIC "-//W3C//DTD SVG 1.1//EN" "http://www.w3.org/Graphics/SVG/1.1/DTD/svg11.dtd">
<svg width="100%" height="100%" viewBox="0 0 12272 5219" version="1.1" xmlns="http://www.w3.org/2000/svg" xmlns:xlink="http://www.w3.org/1999/xlink" xml:space="preserve" xmlns:serif="http://www.serif.com/" style="fill-rule:evenodd;clip-rule:evenodd;stroke-linejoin:round;stroke-miterlimit:2;">
    <g transform="matrix(4.16667,0,0,4.16667,0,0)">
        <g transform="matrix(1,0,0,1,-2388.53,-644)">
            <path d="M3861.11,644.206C3864.01,644.067 3866.94,644 3869.9,644C3936.14,644 3989.93,679.011 3989.93,722.133C3989.93,761.833 3944.34,794.661 3885.41,799.617C3888.06,848.161 3938.29,1153.6 3999.37,1379.63C4032.19,1501.12 4093.24,1585.92 4137.57,1595.53C4278.34,1569.88 4652.42,990.689 4673.26,958.267C4627.33,947.3 4594.53,918.572 4594.53,884.894C4594.53,841.772 4648.32,806.761 4714.57,806.761C4780.82,806.761 4834.6,841.772 4834.6,884.894C4834.6,925.8 4786.2,959.411 4724.67,962.756C4724.67,963.228 4724.5,963.739 4724.14,964.294C4724.14,964.294 4667.13,1208.34 4603.42,1400.83C4581.73,1466.38 4569.06,1526.97 4569.41,1568.74C4569.72,1605.39 4579.98,1627.62 4595.63,1633.25C4700.02,1605.62 5156.35,1177.66 5175.92,1180.23C5175.86,1180.13 5175.79,1180.02 5175.71,1179.92C5174.63,1178.64 5170.8,1177.97 5171.07,1177.97C5125.82,1166.78 5093.63,1138.27 5093.63,1104.91C5093.63,1061.79 5147.42,1026.78 5213.66,1026.78C5279.91,1026.78 5333.69,1061.79 5333.69,1104.91C5333.69,1148.03 5279.91,1183.04 5213.66,1183.04L5212.03,1183.04C5213.89,1183.39 5214.3,1183.56 5212.52,1183.41L4865.97,1616.48C4790.53,1697.49 4752.86,1773.82 4735.79,1847.59C4325.71,1881.15 4107.97,1896.79 3889.38,1896.34C3879.97,1896.36 3870.54,1896.35 3861.11,1896.31C3851.69,1896.35 3842.27,1896.36 3832.84,1896.34C3614.26,1896.79 3396.52,1881.15 2986.43,1847.59C2969.37,1773.82 2931.69,1697.49 2856.26,1616.48L2509.7,1183.41C2507.92,1183.56 2508.33,1183.39 2510.19,1183.04L2508.56,1183.04C2442.31,1183.04 2388.53,1148.03 2388.53,1104.91C2388.53,1061.79 2442.31,1026.78 2508.56,1026.78C2574.81,1026.78 2628.59,1061.79 2628.59,1104.91C2628.59,1138.27 2596.41,1166.78 2551.15,1177.97C2551.42,1177.97 2547.59,1178.64 2546.52,1179.92C2546.43,1180.02 2546.36,1180.13 2546.31,1180.23C2565.87,1177.66 3022.21,1605.62 3126.59,1633.25C3142.24,1627.62 3152.51,1605.39 3152.81,1568.74C3153.16,1526.97 3140.49,1466.38 3118.8,1400.83C3055.09,1208.34 2998.08,964.294 2998.08,964.294C2997.72,963.739 2997.56,963.228 2997.55,962.756C2936.02,959.411 2887.62,925.8 2887.62,884.894C2887.62,841.772 2941.41,806.761 3007.66,806.761C3073.91,806.761 3127.69,841.772 3127.69,884.894C3127.69,918.572 3094.89,947.3 3048.97,958.267C3069.81,990.689 3443.87,1569.87 3584.66,1595.53C3628.98,1585.92 3690.03,1501.12 3722.86,1379.63C3783.93,1153.6 3834.16,848.161 3836.82,799.617C3777.88,794.661 3732.29,761.833 3732.29,722.133C3732.29,679.011 3786.08,644 3852.32,644C3855.28,644 3858.21,644.067 3861.11,644.206ZM3861.11,1754.32C3453.08,1754.47 3048.06,1765.53 3048.06,1787.48C3048.06,1809.42 3453.17,1820.47 3861.11,1820.62C4269.06,1820.47 4674.16,1809.42 4674.16,1787.48C4674.16,1765.53 4269.14,1754.47 3861.11,1754.32Z" style="fill:white;"/>
        </g>
    </g>
</svg>
