<svg xmlns="http://www.w3.org/2000/svg" viewBox="0 0 501.13 111.56"><defs><style>.cls-1{fill:#fff;}</style></defs><g id="Layer_2" data-name="Layer 2"><g id="Layer_1-2" data-name="Layer 1"><path class="cls-1" d="M257.4,6.75a20.54,20.54,0,0,0-8.19,1.74,19.47,19.47,0,0,0-6.7,4.72,20.63,20.63,0,0,0-4.15,7.29,27.71,27.71,0,0,0-1.51,9.1,30.15,30.15,0,0,0,1.7,9.94,26.79,26.79,0,0,0,4.89,8.62,18,18,0,0,0,14.35,6.53,23.29,23.29,0,0,0,3.38-.24s.5.82,1.84,2.83a5.8,5.8,0,0,0,3.07,2.43,30.34,30.34,0,0,1-8.6,1.2,29.52,29.52,0,0,1-11.71-2.32,29.84,29.84,0,0,1-9.46-6.34A29.8,29.8,0,0,1,227.62,31,30.77,30.77,0,0,1,230,18.88a29.4,29.4,0,0,1,16.32-16.1A31.92,31.92,0,0,1,258.56.46m0,0A29.89,29.89,0,0,1,270,2.74a26.77,26.77,0,0,1,9.46,6.33A27.2,27.2,0,0,1,284,15.31a5.92,5.92,0,0,0-4.4.53c-1.91,1.19-2.74,6-2.83,5.7a25.19,25.19,0,0,0-3.89-7.17A18.73,18.73,0,0,0,257.4,6.75"/><rect class="cls-1" x="3.88" y="69.47" width="497.07" height="1.99"/><path class="cls-1" d="M336,1.79V10.2c1.88-2.48,4.9-2.91,8.78-2.91L354,7.2l-.09,52.17h7.69l0-52.17,9.58.09c3.88,0,6.9.54,8.78,2.91V1.79Z"/><path class="cls-1" d="M374.51,59.4l17.43-50a13.1,13.1,0,0,0,.81-3.76,4.41,4.41,0,0,0-1.14-3l-.78-.76h12.7l20,57.61h-9.31l-7-21.23H389.79L383.22,59.4ZM405,31.61l-6.26-20.46-6.89,20.46Z"/><path class="cls-1" d="M38.64,7.89H12.73v17H34.65v6.29H12.73l-.06,28.24H3.88V13c0-1.88,0-3.42-.16-4.64a13.55,13.55,0,0,0-.58-3.06A5.4,5.4,0,0,0,2,3.23,7.82,7.82,0,0,0,0,1.78H38.64Z"/><path class="cls-1" d="M63.48,1.78a25.54,25.54,0,0,1,6.93.83,15.1,15.1,0,0,1,5.15,2.57,14.35,14.35,0,0,1,3.94,5A14.06,14.06,0,0,1,81,16.36a13.06,13.06,0,0,1-1,4.88,14.74,14.74,0,0,1-2.75,4.39A18.45,18.45,0,0,1,73,29.1a19.69,19.69,0,0,1-5.3,2.25Q72.3,38,75.87,42.64t6.46,8a53.05,53.05,0,0,0,5.37,5.42,27.54,27.54,0,0,0,5.23,3.35,26.18,26.18,0,0,1-6.16.53c-3.66-.08-6.19-.72-7.62-1.64a15.49,15.49,0,0,1-3-2.65c-1-1.14-2.25-2.58-3.64-4.36-2.43-3-4.86-6.41-7.32-10.14s-4.78-7.6-7-11.63Q71.84,27,71.84,17a9.33,9.33,0,0,0-2.75-7,9.79,9.79,0,0,0-7.15-2.69c-.88,0-4.25-.13-5.73,0v52.1H47.93V13.13c0-1.88,0-3.43-.16-4.64a14.44,14.44,0,0,0-.54-3.07,5.4,5.4,0,0,0-1.08-2A9.11,9.11,0,0,0,44,1.8Z"/><path class="cls-1" d="M172.27,59.38a17.21,17.21,0,0,0,2.16-1.87,6.72,6.72,0,0,0,1.31-2.08,11.17,11.17,0,0,0,.65-2.69,29.59,29.59,0,0,0,.19-3.68v-37a29.7,29.7,0,0,0-.19-3.68,10.85,10.85,0,0,0-.69-2.75,7.32,7.32,0,0,0-1.31-2.06,15.1,15.1,0,0,0-2-1.78h11.76a2,2,0,0,0,.28.54l.31.54c.13.21.29.49.5.82s.51.77.92,1.33l30.1,41.23V12.05a29.49,29.49,0,0,0-.2-3.68,10,10,0,0,0-.69-2.7A7.11,7.11,0,0,0,214,3.6a14.74,14.74,0,0,0-2.07-1.82h14.54A13.19,13.19,0,0,0,224.3,3.6,6.61,6.61,0,0,0,223,5.67a10.89,10.89,0,0,0-.66,2.7,31.79,31.79,0,0,0-.19,3.68V59.43l-5.83,0c-1.18-2-33.8-45.28-33.8-45.28s-.06,26.09-.06,34.89,2,10.37,2,10.37Z"/><path class="cls-1" d="M125.49,49.4l0,10-31.13,0V13c0-1.88,0-3.42-.16-4.64a14.13,14.13,0,0,0-.58-3.06A10.14,10.14,0,0,0,92.46,3.2a7.93,7.93,0,0,0-1.95-1.42H125.7V7.89h-.07V8H103.28V24.88h18.43v6.29H103.28V52.53h14a12.38,12.38,0,0,0,8.2-3.13"/><path class="cls-1" d="M167.34,39l-.06-.11c-2.41-5.58-7.73-8.21-14.35-12-.42-.23-.81-.4-1.21-.6-1.91-1-3.6-1.93-4.91-2.74a21.87,21.87,0,0,1-3.76-2.74,7.38,7.38,0,0,1-1.88-2.66,8.61,8.61,0,0,1-.51-3.08c0-2.62,1-5.7,3-7.26a12.4,12.4,0,0,1,7.91-2.35c6.58,0,9.81,1.63,13.07,4.69V2A46,46,0,0,0,158.27.48,39.25,39.25,0,0,0,152,0a29.34,29.34,0,0,0-8.48,1.14A19.12,19.12,0,0,0,137,4.39a15,15,0,0,0-4.15,5.14,15.49,15.49,0,0,0-1.44,6.77,13.19,13.19,0,0,0,4.3,9.43,16.82,16.82,0,0,0,1.84,1.75,26.77,26.77,0,0,0,2.31,1.6c.89.57,1.92,1.15,3.1,1.79s2.56,1.37,4.18,2.18,3.07,1.6,4.19,2.21c.74.41,1.3.74,1.9,1.09l.06,0a22.28,22.28,0,0,1,4,2.75,9.6,9.6,0,0,1,1.94,2.57.59.59,0,0,0,0,.08,15.84,15.84,0,0,1,.54,4.27,9.38,9.38,0,0,1-4.33,7.27A15.42,15.42,0,0,1,147,55.39a18.37,18.37,0,0,1-7.45-1.56,20.44,20.44,0,0,1-6.37-4.45v9.75a51.44,51.44,0,0,0,6.7,1.53,45.48,45.48,0,0,0,6.63.47c3.31,0,10.7,0,15.65-3.71a15,15,0,0,0,6.4-12.58,13.86,13.86,0,0,0-1.2-5.84"/><path class="cls-1" d="M500.92,49.4l0,10H469.82V13c0-1.88-.05-3.42-.17-4.64a14.18,14.18,0,0,0-.57-3.06,10.59,10.59,0,0,0-1.2-2.06,7.56,7.56,0,0,0-1.95-1.42h35.2l0,6.22H478.7V24.88h18.44v6.29H478.7V52.53h14a12.42,12.42,0,0,0,8.2-3.13"/><path class="cls-1" d="M333,39s0-.07-.05-.11c-2.41-5.58-7.74-8.21-14.36-12-.42-.23-.8-.4-1.2-.6-1.91-1-3.6-1.93-4.92-2.74a22.27,22.27,0,0,1-3.76-2.74,7.22,7.22,0,0,1-1.87-2.66,8.61,8.61,0,0,1-.51-3.08c0-2.62,1-5.7,3-7.26a12.37,12.37,0,0,1,7.9-2.35c6.58,0,9.81,1.63,13.07,4.69V2A46,46,0,0,0,323.93.48,39.22,39.22,0,0,0,317.68,0a29.53,29.53,0,0,0-8.5,1.14,19.11,19.11,0,0,0-6.49,3.25,14.77,14.77,0,0,0-4.15,5.14,15.35,15.35,0,0,0-1.45,6.77,13.19,13.19,0,0,0,4.31,9.43,15.19,15.19,0,0,0,1.84,1.75,26.5,26.5,0,0,0,2.3,1.6c.89.57,1.92,1.15,3.1,1.79s2.56,1.37,4.18,2.18,3.07,1.6,4.19,2.21c.74.41,1.3.74,1.9,1.09,0,0,0,0,.06,0a22.78,22.78,0,0,1,4,2.75,10.56,10.56,0,0,1,.73.78,9.33,9.33,0,0,1,1.2,1.79l.05.08a15.85,15.85,0,0,1,.53,4.27,9.35,9.35,0,0,1-4.33,7.27,15.4,15.4,0,0,1-8.48,2.06,18.33,18.33,0,0,1-7.45-1.56,20.48,20.48,0,0,1-6.38-4.45v9.75a51.2,51.2,0,0,0,6.71,1.53,45.24,45.24,0,0,0,6.62.47c3.31,0,10.71,0,15.65-3.71a15.05,15.05,0,0,0,6.41-12.58A14,14,0,0,0,333,39"/><path class="cls-1" d="M416.9,1.78v8.41c1.87-2.48,4.89-2.91,8.77-2.91l9.22-.1-.07,52.18h7.67l0-52.18,9.57.1c3.88,0,6.9.54,8.79,2.91V1.78Z"/><path class="cls-1" d="M253,37.72c-1,.31-1.83,2.43-1.27,4,.71,2,3.32,5.07,6.05,5.66,2.2.48,5.52-.7,6-3.07s-.46-4.14-2.7-4.7-5.17-1.42-5.89-1.71a4.52,4.52,0,0,0-2.24-.21"/><path class="cls-1" d="M258.65,22.18c-1.16-.57-3.33.76-3.72,3.44s.53,6.8,2.91,8.69,5.89,1,7-.85.22-4.49-1.32-5.95a18.89,18.89,0,0,1-3.11-3.73,4.47,4.47,0,0,0-1.77-1.6"/><path class="cls-1" d="M264.15,17.06c-.45.9.25,2.2.76,3.32a32.54,32.54,0,0,1,1.18,5c.3,1.44,2.37,4.15,5.15,3s4.1-4.55,3.29-6.43a11.24,11.24,0,0,0-5-5.45c-2.35-1.08-4.43-1.29-5.35.58"/><path class="cls-1" d="M279,23.25c-.33,1.37-1.31,2.88-1.25,4.16a4.68,4.68,0,0,0,3.08,4.28c2.27.69,4.31-.35,5.49-2.86a8.77,8.77,0,0,0-.22-7.61c-1.09-1.62-3.29-3.28-4.65-2.93s-1.54,1.48-1.74,2.49a23.91,23.91,0,0,1-.71,2.47"/><path class="cls-1" d="M277.56,51.39A65.76,65.76,0,0,1,285,47.78c1.7-.7,3.72-1.41,4.84-5,1-3.34-.37-6-2-6.63s-5.73-.92-7.82-2.06-2-2.79-4.1-3.58-5.83.26-7.66,1.67-3.95,4.65-2.92,7.59,1.41,4.42.42,6.61-2.16,4.69-1.67,6.37,2.67,4.91,4.75,5.37,4.26-1.51,5.36-2.83,1.63-2.67,3.35-3.92"/><path class="cls-1" d="M157.3,90c0-2.64-1.57-4.24-4.89-4.24s-5.16,1.72-5.16,3.85c0,6.41,13.22,2.89,13.22,10.44,0,4.16-3.29,6.29-8.25,6.29-5.12,0-7.95-2.16-7.95-6.38v-.63h2.44v.81c0,2.74,1.84,4.58,5.43,4.58s5.88-1.36,5.88-4.37c0-6.37-13.22-2.73-13.22-10.53,0-3.37,2.79-5.68,7.53-5.68,5.08,0,7.41,2,7.41,5.86Z"/><path class="cls-1" d="M164.21,91.55h-2.78V90h2.78V85.62h2.3V90h3.59v1.51h-3.59V103c0,1.27.68,1.69,2.18,1.69a6,6,0,0,0,1.41-.18V106a4.79,4.79,0,0,1-1.61.18c-3.09,0-4.28-.66-4.28-2.8Z"/><path class="cls-1" d="M172.2,90h2.29V101.3c0,2.59,1.11,3.58,3.52,3.58,2.6,0,4.43-1.63,4.43-4.09V90h2.29v16h-2.06V103.8h-.08a6,6,0,0,1-5.19,2.58c-3.1,0-5.2-1.26-5.2-4.27Z"/><path class="cls-1" d="M199.48,103.37h-.07c-.61,1.84-2.56,3-5,3-4.47,0-6.5-2.83-6.5-8.36s2-8.34,6.5-8.34c2.52,0,4.24,1.09,4.74,2.77h.07V84.54h2.3V106h-2.07Zm-4.66,1.51c2.33,0,4.43-.93,4.43-6.86s-2.1-6.83-4.43-6.83-4.43.93-4.43,6.83,2.14,6.86,4.43,6.86"/><path class="cls-1" d="M217.86,100.73c-.34,3.4-2.71,5.65-6.53,5.65-4.28,0-6.8-2.34-6.8-8.36,0-5.54,2.52-8.34,7-8.34s6.53,2.44,6.53,7.77v.66H207v.75c0,4.6,2.06,6,4.32,6,2.41,0,3.9-1.36,4.28-4.15Zm-2.25-4.13c-.08-4-1.49-5.41-4.32-5.41s-4.24,1.44-4.32,5.41Z"/><path class="cls-1" d="M221.26,90h2.07v2.23h.07a6,6,0,0,1,5.2-2.59c3.09,0,5.19,1.27,5.19,4.28V106H231.5V94.47c0-2.2-1.14-3.28-3.47-3.28-2.68,0-4.48,1.62-4.48,4.09V106h-2.29Z"/><path class="cls-1" d="M238.69,91.55H235.9V90h2.79V85.62H241V90h3.59v1.51H241V103c0,1.27.69,1.69,2.18,1.69a6,6,0,0,0,1.41-.18V106a4.76,4.76,0,0,1-1.6.18c-3.1,0-4.28-.66-4.28-2.8Z"/><polygon class="cls-1" points="268.49 95.31 257.83 95.31 257.83 106.02 255.38 106.02 255.38 84.54 257.83 84.54 257.83 93.68 268.49 93.68 268.49 84.54 270.94 84.54 270.94 106.02 268.49 106.02 268.49 95.31"/><path class="cls-1" d="M280.83,89.68c4.47,0,7,2.8,7,8.34s-2.52,8.36-7,8.36-7-2.8-7-8.36,2.52-8.34,7-8.34m0,15.2c2.56,0,4.55-1.75,4.55-6.86s-2-6.83-4.55-6.83-4.55,1.74-4.55,6.83,2,6.86,4.55,6.86"/><path class="cls-1" d="M290.8,90h2.3V101.3c0,2.59,1.11,3.58,3.51,3.58,2.6,0,4.43-1.63,4.43-4.09V90h2.3v16h-2.07V103.8h-.07a6,6,0,0,1-5.2,2.58c-3.09,0-5.2-1.26-5.2-4.27Z"/><path class="cls-1" d="M310.6,98.08c-2.87-.88-3.9-2.2-3.9-3.79,0-3.28,2.6-4.61,6-4.61,3.82,0,5.58,1.54,5.58,4.46v.45H316v-.45c0-2.08-1.22-3-3.32-3C310,91.19,309,92.3,309,93.9c0,1.11.46,2,2.75,2.67l3.33,1c2.75.81,3.78,2.31,3.78,4.06,0,2.74-2,4.75-6.27,4.75s-6.22-1.35-6.22-5v-.51h2.29v.42c0,2.34,1.3,3.55,3.9,3.55,2.44,0,4-1.09,4-2.86,0-1.42-.73-2.32-2.75-3Z"/><path class="cls-1" d="M322,84.54h2.29v3.07H322Zm0,5.5h2.29v16H322Z"/><path class="cls-1" d="M328.52,90h2.06v2.23h.08a6,6,0,0,1,5.19-2.59c3.1,0,5.2,1.27,5.2,4.28V106h-2.29V94.47c0-2.2-1.15-3.28-3.48-3.28-2.67,0-4.47,1.62-4.47,4.09V106h-2.29Z"/><path class="cls-1" d="M355.57,90h2.06v14.84c0,4.42-2.06,6.68-6.65,6.68-3.93,0-6-1.63-6-3.91h2.29c0,1.5,1.8,2.4,3.82,2.4,2.79,0,4.28-1.53,4.28-4.36v-2.53h-.08c-.72,2-2.63,2.86-4.73,2.86-3.14,0-6.27-1.62-6.27-8,0-5.51,2-8.34,6.5-8.34a4.81,4.81,0,0,1,4.73,2.83h.08ZM351,104.52c2.72,0,4.32-1.57,4.32-6.68s-1.6-6.65-4.32-6.65-4.31,1.56-4.31,6.65,1.6,6.68,4.31,6.68"/></g></g></svg>