<?xml version="1.0" encoding="UTF-8"?>
<svg id="Layer_2" data-name="Layer 2" xmlns="http://www.w3.org/2000/svg" viewBox="0 0 582.96 132.48">
  <defs>
    <style>
      .cls-1 {
        fill: #fff;
        stroke-width: 0px;
      }
    </style>
  </defs>
  <g id="Layer_1-2" data-name="Layer 1">
    <g>
      <g>
        <path class="cls-1" d="m299.43,7.86c-3.24,0-6.42.68-9.52,2.02-3.09,1.34-5.7,3.17-7.8,5.48-2.05,2.25-3.66,5.08-4.83,8.48-1.18,3.41-1.76,6.94-1.76,10.59,0,3.92.66,7.77,1.98,11.56,1.32,3.79,3.22,7.13,5.69,10.02,4.33,5.07,9.89,7.6,16.69,7.6,1.36,0,2.67-.09,3.94-.28,0,0,.58.96,2.13,3.29,1.55,2.33,3.58,2.83,3.58,2.83-3.17.92-6.51,1.39-10.01,1.39-4.88,0-9.42-.91-13.63-2.7-4.21-1.8-7.88-4.25-11.01-7.37-3.13-3.11-5.59-6.79-7.4-11.03-1.8-4.24-2.7-8.8-2.7-13.68s.91-9.77,2.75-14.11c1.84-4.33,4.36-8.08,7.57-11.27,3.22-3.18,7.02-5.66,11.42-7.46,4.39-1.8,9.14-2.7,14.25-2.7m0,0c4.51,0,8.93.88,13.26,2.65,4.33,1.76,8,4.22,11,7.37,2.06,2.11,3.82,4.53,5.27,7.25,0,0-2.79-.84-5.12.62-2.22,1.38-3.19,6.93-3.29,6.63-1.1-3.1-2.6-5.89-4.52-8.35-4.64-5.91-10.62-8.85-17.96-8.85"/>
        <rect class="cls-1" x="4.51" y="80.82" width="578.24" height="2.31"/>
        <path class="cls-1" d="m390.84,2.08v9.79c2.19-2.89,5.7-3.39,10.22-3.39l10.72-.11-.1,60.7h8.94l.03-60.7,11.14.11c4.51,0,8.03.62,10.21,3.39V2.08h-51.15Z"/>
        <path class="cls-1" d="m435.66,69.1l20.27-58.22c.63-1.89.95-3.37.95-4.38,0-.95-.23-2.33-1.33-3.52l-.9-.88h14.77l23.32,67.02h-10.83l-8.16-24.7h-20.31l-7.65,24.69h-10.13Zm35.51-32.33l-7.28-23.8-8.02,23.8h15.3Z"/>
        <path class="cls-1" d="m44.95,9.18H14.81v19.76h25.49v7.32H14.81l-.07,32.84H4.52V15.08c0-2.19-.06-3.98-.19-5.4-.13-1.42-.35-2.6-.67-3.56-.32-.96-.77-1.75-1.35-2.36-.57-.62-1.35-1.17-2.31-1.69h44.95v7.11Z"/>
        <path class="cls-1" d="m73.85,2.07c3.12,0,5.81.32,8.06.96,2.25.64,4.25,1.64,5.99,2.99,1.92,1.54,3.46,3.49,4.59,5.82,1.14,2.35,1.72,4.75,1.72,7.18,0,1.93-.38,3.82-1.13,5.68-.76,1.87-1.81,3.56-3.2,5.1-1.38,1.55-3.02,2.89-4.91,4.04-1.89,1.16-3.94,2.02-6.16,2.61,3.54,5.14,6.69,9.52,9.45,13.14,2.76,3.63,5.27,6.73,7.52,9.3,2.25,2.57,4.33,4.67,6.25,6.31,1.93,1.64,4.23,2.95,6.08,3.89,0,0-2.91.72-7.17.62-4.26-.09-7.2-.85-8.86-1.91-1.12-.72-2.27-1.76-3.47-3.08-1.2-1.32-2.61-3-4.23-5.07-2.82-3.53-5.66-7.46-8.51-11.79-2.85-4.34-5.57-8.84-8.15-13.53,10.56-1.92,15.85-6.77,15.85-14.55,0-3.34-1.07-6.05-3.2-8.14-2.13-2.09-4.9-3.13-8.33-3.13-1.02,0-4.94-.16-6.66-.03v60.61h-9.63V15.27c0-2.18-.06-3.98-.18-5.39-.12-1.42-.33-2.6-.63-3.57-.3-.96-.72-1.75-1.26-2.36-.54-.61-1.55-1.34-2.45-1.86l22.61-.02Z"/>
        <path class="cls-1" d="m200.4,69.08c1.01-.77,1.85-1.47,2.51-2.18.66-.7,1.16-1.51,1.52-2.41.35-.89.61-1.94.76-3.13.14-1.18.22-2.61.22-4.29V14.02c0-1.67-.08-3.1-.22-4.28-.15-1.2-.42-2.25-.81-3.19-.39-.92-.9-1.73-1.52-2.4-.63-.68-1.42-1.36-2.37-2.07h13.69c.06.26.23.47.33.63.09.16.21.37.36.63.14.25.34.57.58.96.23.39.59.9,1.07,1.54l35.01,47.96V14.02c0-1.67-.08-3.1-.23-4.28-.15-1.2-.42-2.24-.81-3.14-.39-.9-.91-1.7-1.57-2.41-.66-.71-1.46-1.41-2.41-2.12h16.92c-1.02.71-1.85,1.41-2.51,2.12-.66.7-1.16,1.51-1.52,2.41-.36.9-.61,1.94-.76,3.14-.14,1.18-.22,2.62-.22,4.28v55.12l-6.78-.03c-1.38-2.38-39.33-52.68-39.33-52.68,0,0-.06,30.35-.06,40.58s2.37,12.07,2.37,12.07h-14.21Z"/>
        <path class="cls-1" d="m145.98,57.47l.04,11.61-36.21.03V15.08c0-2.19-.06-3.98-.19-5.39-.13-1.42-.35-2.6-.67-3.57-.23-.67-1.2-2.2-1.39-2.39-.57-.6-1.32-1.14-2.27-1.65h40.94v7.11h-.09v.13h-26v19.63h21.44v7.32h-21.44v24.84h16.3c2.89,0,6.69-1,9.54-3.64"/>
        <path class="cls-1" d="m194.67,45.37s-.06-.08-.07-.13c-2.8-6.5-8.99-9.55-16.69-13.95-.49-.28-.94-.46-1.41-.71-2.22-1.18-4.19-2.24-5.72-3.18-1.85-1.11-3.31-2.17-4.37-3.19-1.06-1.01-1.79-2.04-2.18-3.09-.4-1.04-.59-2.23-.59-3.58,0-3.04,1.15-6.62,3.46-8.44,2.31-1.83,5.37-2.73,9.2-2.73,7.65,0,11.41,1.9,15.2,5.46V2.33c-2.61-.81-5.07-1.4-7.37-1.77-2.31-.37-4.73-.56-7.28-.56-3.64,0-6.93.44-9.87,1.33-2.95.86-5.47,2.14-7.56,3.77-2.09,1.67-3.7,3.66-4.83,5.98-1.12,2.33-1.68,4.96-1.68,7.87,0,5.01,2.78,8.93,5.01,10.97.67.74,1.38,1.42,2.14,2.03.76.6,1.65,1.22,2.69,1.86,1.03.66,2.24,1.34,3.6,2.08,1.37.74,2.98,1.59,4.87,2.53,1.94,1.01,3.57,1.87,4.87,2.58.86.47,1.51.85,2.21,1.26.02.01.04.03.07.05,1.96,1.11,3.5,2.17,4.62,3.2.34.3.58.61.86.91.55.62,1,1.33,1.4,2.09.01.03.04.06.04.09.43,1.04.63,3.61.63,4.96,0,3.05-2.06,6.52-5.04,8.46-2.54,1.65-5.83,2.4-9.87,2.4-3.02,0-5.91-.6-8.67-1.82-2.76-1.22-5.23-2.94-7.41-5.18v11.34c2.76.81,5.36,1.41,7.8,1.78,2.44.37,5.01.56,7.7.56,3.85,0,12.45-.03,18.21-4.32,4.96-3.69,7.3-8.39,7.44-14.63.05-2.36-.47-4.62-1.4-6.79"/>
        <path class="cls-1" d="m582.71,57.47l.03,11.61h-36.2V15.08c0-2.19-.06-3.98-.2-5.39-.12-1.42-.35-2.6-.66-3.57-.23-.67-1.21-2.2-1.39-2.39-.57-.6-1.32-1.14-2.27-1.65h40.95l-.02,7.24h-26.07v19.63h21.45v7.32h-21.45v24.84h16.31c2.88,0,6.68-1,9.53-3.64"/>
        <path class="cls-1" d="m387.38,45.37s-.05-.08-.07-.13c-2.8-6.5-8.99-9.55-16.7-13.95-.49-.28-.94-.46-1.41-.71-2.22-1.18-4.19-2.24-5.72-3.18-1.85-1.11-3.31-2.17-4.37-3.19-1.06-1.01-1.79-2.04-2.18-3.09-.4-1.04-.6-2.23-.6-3.58,0-3.04,1.15-6.62,3.46-8.44,2.31-1.83,5.37-2.73,9.2-2.73,7.65,0,11.41,1.9,15.2,5.46V2.33c-2.62-.81-5.06-1.4-7.37-1.77-2.31-.37-4.73-.56-7.28-.56-3.64,0-6.94.44-9.88,1.33-2.94.86-5.46,2.14-7.56,3.77-2.09,1.67-3.7,3.66-4.83,5.98-1.12,2.33-1.68,4.96-1.68,7.87,0,5.01,2.78,8.93,5.01,10.97.66.74,1.38,1.42,2.14,2.03.76.6,1.65,1.22,2.68,1.86,1.03.66,2.24,1.34,3.6,2.08,1.36.74,2.98,1.59,4.86,2.53,1.94,1.01,3.57,1.87,4.87,2.58.87.47,1.52.85,2.21,1.26.02.01.04.03.07.05,1.96,1.11,3.49,2.17,4.63,3.2.34.3.58.61.85.91.55.62,1,1.33,1.4,2.09.01.03.04.06.05.09.42,1.04.63,3.61.63,4.96,0,3.05-2.05,6.52-5.05,8.46-2.54,1.65-5.82,2.4-9.87,2.4-3.02,0-5.91-.6-8.66-1.82-2.77-1.22-5.23-2.94-7.42-5.18v11.34c2.76.81,5.36,1.41,7.8,1.78,2.44.37,5.01.56,7.7.56,3.85,0,12.46-.03,18.21-4.32,4.96-3.69,7.3-8.39,7.45-14.63.06-2.36-.47-4.62-1.4-6.79"/>
        <path class="cls-1" d="m484.98,2.07v9.79c2.18-2.89,5.69-3.39,10.2-3.39l10.73-.11-.09,60.69h8.93l.03-60.69,11.13.11c4.52,0,8.03.62,10.22,3.39V2.07h-51.15Z"/>
        <path class="cls-1" d="m294.32,43.88c-1.19.36-2.13,2.82-1.48,4.69.83,2.39,3.86,5.9,7.05,6.59,2.55.55,6.42-.82,7.03-3.57.62-2.75-.53-4.82-3.14-5.47-2.6-.65-6.02-1.65-6.86-1.99-1.27-.5-2.6-.25-2.6-.25"/>
        <path class="cls-1" d="m300.89,25.8c-1.36-.66-3.87.89-4.33,4.01-.46,3.12.62,7.91,3.39,10.11,2.77,2.21,6.85,1.19,8.15-.99,1.29-2.18.26-5.23-1.53-6.92-1.79-1.69-3.07-3.4-3.62-4.34-.71-1.23-2.06-1.87-2.06-1.87"/>
        <path class="cls-1" d="m307.28,19.84c-.52,1.06.3,2.56.89,3.87.59,1.31,1.01,4.09,1.37,5.76.35,1.68,2.76,4.83,5.99,3.52,3.22-1.31,4.78-5.29,3.84-7.48-.93-2.19-3.13-5.08-5.85-6.34-2.73-1.26-5.16-1.5-6.23.67"/>
        <path class="cls-1" d="m324.54,27.05c-.38,1.6-1.52,3.34-1.45,4.84.07,1.5.95,4.18,3.59,4.98,2.63.81,5.01-.41,6.39-3.32,1.38-2.91,1-6.97-.26-8.86-1.27-1.88-3.82-3.81-5.41-3.4-1.58.41-1.79,1.72-2.02,2.89-.23,1.16-.83,2.88-.83,2.88"/>
        <path class="cls-1" d="m322.88,59.78c1.28-.92,6.69-3.38,8.67-4.19,1.98-.81,4.33-1.64,5.63-5.8,1.22-3.88-.43-6.99-2.33-7.7-1.9-.72-6.67-1.07-9.09-2.4-2.43-1.32-2.35-3.24-4.77-4.17-2.42-.92-6.78.31-8.9,1.94-2.12,1.64-4.59,5.42-3.4,8.83,1.19,3.41,1.64,5.15.5,7.69-1.14,2.55-2.51,5.46-1.95,7.4.57,1.95,3.11,5.72,5.53,6.25,2.42.52,4.96-1.76,6.23-3.29,1.27-1.54,1.9-3.1,3.9-4.56"/>
      </g>
      <g>
        <g>
          <path class="cls-1" d="m124.69,99.2v17.4c-.01,2.41-.77,4.39-2.28,5.92s-3.55,2.4-6.13,2.58l-.9.04c-2.8,0-5.03-.76-6.7-2.27s-2.51-3.59-2.53-6.24v-17.44h3.34v17.33c0,1.85.51,3.29,1.53,4.32s2.47,1.54,4.36,1.54,3.37-.51,4.39-1.53,1.52-2.46,1.52-4.31v-17.35h3.39Z"/>
          <path class="cls-1" d="m131.21,105.77l.11,2.39c1.45-1.83,3.35-2.74,5.7-2.74,4.02,0,6.05,2.27,6.08,6.8v12.57h-3.25v-12.59c-.01-1.37-.33-2.38-.94-3.04s-1.57-.98-2.87-.98c-1.05,0-1.98.28-2.78.84s-1.42,1.3-1.86,2.21v13.55h-3.25v-19.02h3.08Z"/>
          <path class="cls-1" d="m160.27,120.38l4.71-14.61h3.32l-6.82,19.02h-2.48l-6.89-19.02h3.32l4.83,14.61Z"/>
          <path class="cls-1" d="m177.96,125.15c-2.58,0-4.68-.85-6.29-2.54s-2.43-3.96-2.43-6.79v-.6c0-1.89.36-3.57,1.08-5.05s1.73-2.64,3.02-3.48,2.7-1.26,4.21-1.26c2.47,0,4.39.81,5.77,2.44s2.06,3.96,2.06,7v1.35h-12.88c.05,1.88.59,3.39,1.64,4.54s2.38,1.73,4,1.73c1.15,0,2.12-.23,2.92-.7s1.49-1.09,2.09-1.86l1.99,1.55c-1.59,2.45-3.98,3.67-7.17,3.67Zm-.4-17.05c-1.31,0-2.41.48-3.3,1.43s-1.44,2.29-1.65,4.02h9.53v-.25c-.09-1.65-.54-2.93-1.34-3.84s-1.88-1.36-3.23-1.36Z"/>
          <path class="cls-1" d="m196.96,108.69c-.49-.08-1.03-.12-1.6-.12-2.13,0-3.58.91-4.34,2.72v13.5h-3.25v-19.02h3.16l.05,2.2c1.07-1.7,2.58-2.55,4.54-2.55.63,0,1.11.08,1.44.25v3.02Z"/>
          <path class="cls-1" d="m209.66,119.75c0-.88-.33-1.56-.99-2.05s-1.82-.91-3.46-1.26-2.95-.77-3.92-1.27-1.68-1.08-2.14-1.76-.69-1.49-.69-2.43c0-1.56.66-2.88,1.98-3.96s3-1.62,5.05-1.62c2.16,0,3.91.56,5.25,1.67s2.01,2.54,2.01,4.27h-3.27c0-.89-.38-1.66-1.13-2.3s-1.71-.97-2.86-.97-2.11.26-2.78.77-1,1.19-1,2.02c0,.79.31,1.38.93,1.78s1.74.78,3.37,1.14,2.94.8,3.95,1.3,1.75,1.11,2.24,1.82.73,1.57.73,2.59c0,1.7-.68,3.06-2.04,4.09s-3.12,1.54-5.29,1.54c-1.52,0-2.87-.27-4.04-.81s-2.09-1.29-2.75-2.26-.99-2.01-.99-3.14h3.25c.06,1.09.5,1.95,1.31,2.59s1.89.96,3.23.96c1.23,0,2.22-.25,2.96-.75s1.12-1.16,1.12-2Z"/>
          <path class="cls-1" d="m227.56,101.17v4.61h3.55v2.51h-3.55v11.81c0,.76.16,1.33.47,1.72s.86.57,1.62.57c.38,0,.89-.07,1.55-.21v2.62c-.86.23-1.69.35-2.5.35-1.45,0-2.55-.44-3.29-1.32s-1.11-2.13-1.11-3.74v-11.79h-3.46v-2.51h3.46v-4.61h3.25Z"/>
          <path class="cls-1" d="m239.76,120.03l4.43-14.26h3.48l-7.65,21.96c-1.18,3.16-3.06,4.75-5.64,4.75l-.62-.05-1.21-.23v-2.64l.88.07c1.1,0,1.96-.22,2.58-.67s1.12-1.26,1.52-2.44l.72-1.93-6.79-18.81h3.55l4.75,14.26Z"/>
          <path class="cls-1" d="m257.26,124.79v-25.59h7.22c2.23,0,4.2.49,5.91,1.48s3.03,2.38,3.96,4.2,1.4,3.9,1.42,6.26v1.63c0,2.41-.47,4.53-1.4,6.35s-2.26,3.21-3.99,4.18-3.74,1.47-6.04,1.49h-7.08Zm3.38-22.83v20.07h3.55c2.6,0,4.63-.81,6.07-2.43s2.17-3.92,2.17-6.91v-1.5c0-2.91-.68-5.17-2.05-6.78-1.37-1.61-3.3-2.43-5.81-2.45h-3.94Z"/>
          <path class="cls-1" d="m289.43,105.77l.11,2.39c1.45-1.83,3.35-2.74,5.7-2.74,4.02,0,6.05,2.27,6.08,6.8v12.57h-3.25v-12.59c-.01-1.37-.33-2.38-.94-3.04s-1.57-.98-2.87-.98c-1.05,0-1.98.28-2.78.84s-1.42,1.3-1.86,2.21v13.55h-3.25v-19.02h3.08Z"/>
          <path class="cls-1" d="m315.3,105.77l.11,2.39c1.45-1.83,3.35-2.74,5.7-2.74,4.02,0,6.05,2.27,6.08,6.8v12.57h-3.25v-12.59c-.01-1.37-.33-2.38-.94-3.04s-1.57-.98-2.87-.98c-1.05,0-1.98.28-2.78.84s-1.42,1.3-1.86,2.21v13.55h-3.25v-19.02h3.08Z"/>
          <path class="cls-1" d="m329.94,115.13c0-2.96.69-5.32,2.06-7.08s3.19-2.63,5.45-2.63,4.13.82,5.43,2.46l.16-2.11h2.97v18.56c0,2.46-.73,4.4-2.19,5.82s-3.42,2.13-5.88,2.13c-1.37,0-2.71-.29-4.03-.88s-2.31-1.39-3.01-2.41l1.69-1.95c1.39,1.72,3.1,2.58,5.12,2.58,1.58,0,2.82-.45,3.7-1.34s1.33-2.14,1.33-3.76v-1.63c-1.3,1.5-3.08,2.25-5.33,2.25s-4.03-.9-5.41-2.69-2.07-4.24-2.07-7.33Zm3.27.37c0,2.14.44,3.83,1.32,5.05s2.11,1.84,3.69,1.84c2.05,0,3.56-.93,4.52-2.79v-8.68c-1-1.82-2.49-2.72-4.48-2.72-1.58,0-2.82.62-3.71,1.85s-1.34,3.05-1.34,5.47Z"/>
          <path class="cls-1" d="m365.14,113.39c-2.89-.83-5-1.85-6.32-3.07s-1.98-2.71-1.98-4.49c0-2.02.81-3.68,2.42-5s3.71-1.98,6.28-1.98c1.76,0,3.33.34,4.7,1.02s2.44,1.62,3.2,2.81,1.13,2.5,1.13,3.92h-3.39c0-1.55-.49-2.77-1.48-3.66s-2.37-1.33-4.17-1.33c-1.66,0-2.96.37-3.89,1.1-.93.73-1.4,1.75-1.4,3.06,0,1.05.44,1.93,1.33,2.65.88.72,2.39,1.38,4.52,1.98,2.13.6,3.79,1.26,4.99,1.98s2.09,1.56,2.67,2.52.87,2.09.87,3.39c0,2.07-.81,3.74-2.43,4.98s-3.78,1.87-6.49,1.87c-1.76,0-3.4-.34-4.92-1.01s-2.7-1.6-3.52-2.77-1.24-2.5-1.24-3.99h3.39c0,1.55.57,2.77,1.71,3.67s2.67,1.34,4.58,1.34c1.78,0,3.15-.36,4.1-1.09s1.42-1.72,1.42-2.97-.44-2.22-1.32-2.91-2.47-1.36-4.78-2.03Z"/>
          <path class="cls-1" d="m384.97,125.15c-2.58,0-4.68-.85-6.29-2.54s-2.43-3.96-2.43-6.79v-.6c0-1.89.36-3.57,1.08-5.05s1.73-2.64,3.02-3.48,2.7-1.26,4.21-1.26c2.47,0,4.39.81,5.77,2.44s2.06,3.96,2.06,7v1.35h-12.88c.05,1.88.59,3.39,1.64,4.54s2.38,1.73,4,1.73c1.15,0,2.12-.23,2.92-.7s1.49-1.09,2.09-1.86l1.99,1.55c-1.59,2.45-3.98,3.67-7.17,3.67Zm-.4-17.05c-1.31,0-2.41.48-3.3,1.43s-1.44,2.29-1.65,4.02h9.53v-.25c-.09-1.65-.54-2.93-1.34-3.84s-1.88-1.36-3.23-1.36Z"/>
          <path class="cls-1" d="m403.98,108.69c-.49-.08-1.03-.12-1.6-.12-2.13,0-3.58.91-4.34,2.72v13.5h-3.25v-19.02h3.16l.05,2.2c1.07-1.7,2.58-2.55,4.54-2.55.63,0,1.11.08,1.44.25v3.02Z"/>
          <path class="cls-1" d="m412.19,120.38l4.71-14.61h3.32l-6.82,19.02h-2.48l-6.89-19.02h3.32l4.83,14.61Z"/>
          <path class="cls-1" d="m436.98,122.49c1.16,0,2.17-.35,3.04-1.05s1.35-1.58,1.44-2.64h3.08c-.06,1.09-.43,2.13-1.12,3.11s-1.61,1.77-2.77,2.36-2.38.88-3.67.88c-2.59,0-4.65-.86-6.18-2.59s-2.29-4.09-2.29-7.09v-.54c0-1.85.34-3.5,1.02-4.94s1.66-2.56,2.93-3.36,2.77-1.2,4.51-1.2c2.13,0,3.91.64,5.32,1.92s2.17,2.94,2.26,4.97h-3.08c-.09-1.23-.56-2.24-1.4-3.03s-1.87-1.19-3.1-1.19c-1.65,0-2.93.59-3.84,1.78s-1.36,2.91-1.36,5.16v.62c0,2.19.45,3.88,1.35,5.06s2.19,1.78,3.87,1.78Z"/>
          <path class="cls-1" d="m454.72,125.15c-2.58,0-4.68-.85-6.29-2.54s-2.43-3.96-2.43-6.79v-.6c0-1.89.36-3.57,1.08-5.05s1.73-2.64,3.02-3.48,2.7-1.26,4.21-1.26c2.47,0,4.39.81,5.77,2.44s2.06,3.96,2.06,7v1.35h-12.88c.05,1.88.59,3.39,1.64,4.54s2.38,1.73,4,1.73c1.15,0,2.12-.23,2.92-.7s1.49-1.09,2.09-1.86l1.99,1.55c-1.59,2.45-3.98,3.67-7.17,3.67Zm-.4-17.05c-1.31,0-2.41.48-3.3,1.43s-1.44,2.29-1.65,4.02h9.53v-.25c-.09-1.65-.54-2.93-1.34-3.84s-1.88-1.36-3.23-1.36Z"/>
          <path class="cls-1" d="m475.6,119.75c0-.88-.33-1.56-.99-2.05s-1.82-.91-3.46-1.26-2.95-.77-3.92-1.27-1.68-1.08-2.14-1.76-.69-1.49-.69-2.43c0-1.56.66-2.88,1.98-3.96s3-1.62,5.05-1.62c2.16,0,3.91.56,5.25,1.67s2.01,2.54,2.01,4.27h-3.27c0-.89-.38-1.66-1.13-2.3s-1.71-.97-2.86-.97-2.11.26-2.78.77-1,1.19-1,2.02c0,.79.31,1.38.93,1.78s1.74.78,3.37,1.14,2.94.8,3.95,1.3,1.75,1.11,2.24,1.82.73,1.57.73,2.59c0,1.7-.68,3.06-2.04,4.09s-3.12,1.54-5.29,1.54c-1.52,0-2.87-.27-4.04-.81s-2.09-1.29-2.75-2.26-.99-2.01-.99-3.14h3.25c.06,1.09.5,1.95,1.31,2.59s1.89.96,3.23.96c1.23,0,2.22-.25,2.96-.75s1.12-1.16,1.12-2Z"/>
        </g>
        <path class="cls-1" d="m147.03,98.15h2.84v3.81h-2.84v-3.81Zm0,6.83h2.84v19.82h-2.84v-19.82Z"/>
        <path class="cls-1" d="m216.26,98.15h2.84v3.81h-2.84v-3.81Zm0,6.83h2.84v19.82h-2.84v-19.82Z"/>
        <path class="cls-1" d="m279.47,98.15h2.84v3.81h-2.84v-3.81Zm0,6.83h2.84v19.82h-2.84v-19.82Z"/>
        <path class="cls-1" d="m305.34,98.15h2.84v3.81h-2.84v-3.81Zm0,6.83h2.84v19.82h-2.84v-19.82Z"/>
        <path class="cls-1" d="m422.47,98.15h2.84v3.81h-2.84v-3.81Zm0,6.83h2.84v19.82h-2.84v-19.82Z"/>
      </g>
    </g>
  </g>
</svg>